<svg width="456" height="408" viewBox="0 0 456 408" fill="none" xmlns="http://www.w3.org/2000/svg">
<path d="M386.3 226.4C398.8 226.4 409 216.2 409 203.7C409 191.2 398.8 181 386.3 181C373.8 181 363.6 191.2 363.6 203.7C363.6 216.2 373.8 226.4 386.3 226.4ZM386.3 185.8C396.2 185.8 404.2 193.8 404.2 203.7C404.2 213.6 396.2 221.6 386.3 221.6C376.4 221.6 368.4 213.6 368.4 203.7C368.4 193.8 376.4 185.8 386.3 185.8Z" fill="#CBCBCB"/>
<path d="M391.442 196.549L398.705 203.711L397.581 204.85L390.319 197.688L391.442 196.549Z" fill="#CBCBCB"/>
<path d="M397.611 202.62L398.75 203.743L391.588 211.006L390.449 209.882L397.611 202.62Z" fill="#CBCBCB"/>
<path d="M381.238 196.457L382.347 197.61L374.998 204.683L373.888 203.53L381.238 196.457Z" fill="#CBCBCB"/>
<path d="M374.993 202.398L382.066 209.748L380.913 210.857L373.84 203.508L374.993 202.398Z" fill="#CBCBCB"/>
<path d="M383.204 191.85L390.915 214.894L389.397 215.402L381.687 192.358L383.204 191.85Z" fill="#CBCBCB"/>
<path d="M188.6 1.8C217.6 5.3 245.9 15.8 269.3 32.4C309.9 61.2 330.2 107.2 366.9 139.4C389.8 159.5 420.3 158.9 442.5 186.9C466.3 217 452.2 264.2 434.5 294.7C420.9 318.1 399.7 345.4 379.8 359.1C276.8 430.1 96 429.2 28 308.8C1.40002 261.7 -5.19998 203.6 4.40002 150.8C14 98.2 41.6 46.8 89.4 19.9C119.2 3.2 154.5 -2.4 188.6 1.7V1.8Z" fill="#F3F3F3"/>
<path d="M212.1 53.9L200.5 51.4L203.8 35.9L215.4 38.4C217.7 32.7 221.2 27.8 225.5 23.7L219 13.7L232.3 5.09999L238.8 15.1C244.3 12.9 250.2 11.7 256.3 11.9L258.8 0.299988L274.3 3.59999L271.8 15.2C277.5 17.5 282.4 21 286.5 25.3L296.5 18.8L305.1 32.1L295.1 38.6C297.3 44.1 298.5 50 298.3 56.1L309.9 58.6L306.6 74.1L295 71.6C292.7 77.3 289.2 82.2 284.9 86.3L291.4 96.3L278.1 104.9L271.6 94.9C266.1 97.1 260.2 98.3 254.1 98.1L251.6 109.7L236.1 106.4L238.6 94.8C232.9 92.5 228 89 223.9 84.7L213.9 91.2L205.3 77.9L215.3 71.4C213.1 65.9 211.9 60 212.1 53.9ZM250 79.9C263.7 82.8 277.2 74.1 280.1 60.4C283 46.7 274.3 33.2 260.6 30.3C246.9 27.4 233.4 36.1 230.5 49.8C227.6 63.5 236.3 77 250 79.9Z" fill="#808080"/>
<path d="M285.9 128.9L288.4 117.1L297.2 119C299 114.7 301.6 110.9 304.9 107.9L300 100.3L310.1 93.7L315 101.3C319.1 99.6 323.7 98.7 328.3 98.8L330.2 90L342 92.5L340.1 101.3C344.4 103.1 348.2 105.7 351.2 109L358.8 104.1L365.4 114.2L357.8 119.1C359.5 123.2 360.4 127.8 360.3 132.4L369.1 134.3L366.6 146.1L357.8 144.2C356 148.5 353.4 152.3 350.1 155.3L355 162.9L344.9 169.5L340 161.9C335.9 163.6 331.3 164.5 326.7 164.4L324.8 173.2L313 170.7L314.9 161.9C310.6 160.1 306.8 157.5 303.8 154.2L296.2 159.1L289.6 149L297.2 144.1C295.5 140 294.6 135.4 294.7 130.8L285.9 128.9ZM323.5 150.5C333.9 152.7 344.2 146.1 346.4 135.7C348.6 125.3 342 115 331.6 112.8C321.2 110.6 310.9 117.2 308.7 127.6C306.5 138 313.1 148.3 323.5 150.5Z" fill="#808080"/>
<path d="M110.6 161.7C99.2 161.7 88.6 157.3 80.5 149.2C72.5 141.2 68 130.5 68 119.1C68 107.7 72.4 97.1 80.5 89C88.5 81 99.2 76.5 110.6 76.5C122 76.5 132.6 80.9 140.7 89C148.7 97 153.2 107.7 153.2 119.1C153.2 130.5 148.8 141.1 140.7 149.2C132.7 157.2 122 161.7 110.6 161.7ZM110.6 84.3C91.4 84.3 75.8 99.9 75.8 119.1C75.8 138.3 91.4 153.9 110.6 153.9C129.8 153.9 145.4 138.3 145.4 119.1C145.4 99.9 129.8 84.3 110.6 84.3Z" fill="#CBCBCB"/>
<path d="M104.7 119.1H99.7001V129.2H104.7V119.1Z" fill="#CBCBCB"/>
<path d="M113.1 113.9H108.1V129.2H113.1V113.9Z" fill="#CBCBCB"/>
<path d="M121.5 109.2H116.5V129.2H121.5V109.2Z" fill="#CBCBCB"/>
<path d="M363.9 81.8C374.4 81.8 384.3 77.7 391.7 70.3C399.1 62.9 403.2 53 403.2 42.5C403.2 32 399.1 22.1 391.7 14.7C384.3 7.29998 374.4 3.19998 363.9 3.19998C353.4 3.19998 343.5 7.29998 336.1 14.7C328.7 22.1 324.6 32 324.6 42.5C324.6 53 328.7 62.9 336.1 70.3C343.5 77.7 353.4 81.8 363.9 81.8ZM363.9 10.2C381.7 10.2 396.2 24.7 396.2 42.5C396.2 60.3 381.7 74.7 363.9 74.7C346.1 74.7 331.7 60.2 331.7 42.5C331.7 24.8 346.2 10.2 363.9 10.2Z" fill="#CBCBCB"/>
<path d="M352.9 39.6H375V57.3H352.9V39.6Z" fill="#CBCBCB"/>
<path d="M354.6 43.4H373.4V35.1C373.4 29.9 369.2 25.7 364 25.7C358.8 25.7 354.6 29.9 354.6 35.1V43.4ZM369.5 39.6H358.5V35.2C358.5 32.2 361 29.7 364 29.7C367 29.7 369.5 32.2 369.5 35.2V39.6Z" fill="#CBCBCB"/>
<path d="M330.2 248.3H379.5V311.9H330.2V248.3Z" fill="#808080"/>
<path d="M376.8 310.2C377.5 310.2 378.1 309.6 378.1 308.9C378.1 308.2 377.5 307.6 376.8 307.6C376.1 307.6 375.5 308.2 375.5 308.9C375.5 309.6 376.1 310.2 376.8 310.2ZM376.8 308.3C377.1 308.3 377.3 308.5 377.3 308.8C377.3 309.1 377.1 309.3 376.8 309.3C376.5 309.3 376.3 309.1 376.3 308.8C376.3 308.5 376.5 308.3 376.8 308.3Z" fill="white"/>
<path d="M333 310.2C333.7 310.2 334.3 309.6 334.3 308.9C334.3 308.2 333.7 307.6 333 307.6C332.3 307.6 331.7 308.2 331.7 308.9C331.7 309.6 332.3 310.2 333 310.2ZM333 308.3C333.3 308.3 333.5 308.5 333.5 308.8C333.5 309.1 333.3 309.3 333 309.3C332.7 309.3 332.5 309.1 332.5 308.8C332.5 308.5 332.7 308.3 333 308.3Z" fill="white"/>
<path d="M354.9 299.9C357 299.9 358.6 298.2 358.6 296.2C358.6 294.2 356.9 292.5 354.9 292.5C352.9 292.5 351.2 294.2 351.2 296.2C351.2 298.2 352.9 299.9 354.9 299.9ZM354.9 293.2C356.5 293.2 357.9 294.5 357.9 296.2C357.9 297.9 356.6 299.2 354.9 299.2C353.2 299.2 351.9 297.9 351.9 296.2C351.9 294.5 353.2 293.2 354.9 293.2Z" fill="white"/>
<path d="M354.9 297.9C353.961 297.9 353.2 297.139 353.2 296.2C353.2 295.261 353.961 294.5 354.9 294.5C355.839 294.5 356.6 295.261 356.6 296.2C356.6 297.139 355.839 297.9 354.9 297.9Z" fill="#9C9C9C"/>
<path d="M333 255.3H376.8C377 255.3 377.2 255.1 377.2 254.9C377.2 254.7 377 254.5 376.8 254.5H333C332.8 254.5 332.6 254.7 332.6 254.9C332.6 255.1 332.8 255.3 333 255.3Z" fill="white"/>
<path d="M343.2 276.3H366.6V287.9H343.2V276.3Z" fill="#9C9C9C"/>
<path d="M349.5 283.2V281H360.3V283.2H349.5Z" fill="#D5D1DE"/>
<path d="M343.2 259.8H366.6V271.4H343.2V259.8Z" fill="#9C9C9C"/>
<path d="M349.5 266.7V264.5H360.3V266.7H349.5Z" fill="#D5D1DE"/>
<path d="M402.5 311.8H379.5V248.2H402.5V311.8Z" fill="#9C9C9C"/>
<path d="M58 177.7H181.3V311.9H58V177.7Z" fill="#9C9C9C"/>
<path d="M58.1001 177.7H131.7V311.9H58.1001V177.7Z" fill="#808080"/>
<path d="M59.9 185.5H129.9V211.3H59.9V185.5Z" fill="#9C9C9C"/>
<path d="M61.6001 209.9H128.2V187H61.6001V209.9ZM127.4 209.1H62.4001V187.8H127.4V209.1Z" fill="white"/>
<path d="M100.7 194.9H121.9C122.1 194.9 122.3 194.7 122.3 194.5C122.3 194.3 122.1 194.1 121.9 194.1H100.7C100.5 194.1 100.3 194.3 100.3 194.5C100.3 194.7 100.5 194.9 100.7 194.9Z" fill="white"/>
<path d="M100.7 198.8H121.9C122.1 198.8 122.3 198.6 122.3 198.4C122.3 198.2 122.1 198 121.9 198H100.7C100.5 198 100.3 198.2 100.3 198.4C100.3 198.6 100.5 198.8 100.7 198.8Z" fill="white"/>
<path d="M100.7 202.7H121.9C122.1 202.7 122.3 202.5 122.3 202.3C122.3 202.1 122.1 201.9 121.9 201.9H100.7C100.5 201.9 100.3 202.1 100.3 202.3C100.3 202.5 100.5 202.7 100.7 202.7Z" fill="white"/>
<path d="M83.5 198.4C83.5 199.6 84.5 200.6 85.7 200.6C86.9 200.6 87.9 199.6 87.9 198.4C87.9 197.2 86.9 196.2 85.7 196.2C84.5 196.2 83.5 197.2 83.5 198.4Z" fill="#D5D1DE"/>
<path d="M75.7001 198.4C75.7001 199.6 76.7001 200.6 77.9001 200.6C79.1001 200.6 80.1001 199.6 80.1001 198.4C80.1001 197.2 79.1001 196.2 77.9001 196.2C76.7001 196.2 75.7001 197.2 75.7001 198.4Z" fill="#D5D1DE"/>
<path d="M67.9001 198.4C67.9001 199.6 68.9001 200.6 70.1001 200.6C71.3001 200.6 72.3 199.6 72.3 198.4C72.3 197.2 71.3001 196.2 70.1001 196.2C68.9001 196.2 67.9001 197.2 67.9001 198.4Z" fill="#D5D1DE"/>
<path d="M59.9 243.8H129.9V269.6H59.9V243.8Z" fill="#9C9C9C"/>
<path d="M61.6001 268.2H128.2V245.3H61.6001V268.2ZM127.4 267.4H62.4001V246.1H127.4V267.4Z" fill="white"/>
<path d="M100.7 253.2H121.9C122.1 253.2 122.3 253 122.3 252.8C122.3 252.6 122.1 252.4 121.9 252.4H100.7C100.5 252.4 100.3 252.6 100.3 252.8C100.3 253 100.5 253.2 100.7 253.2Z" fill="white"/>
<path d="M100.7 257.1H121.9C122.1 257.1 122.3 256.9 122.3 256.7C122.3 256.5 122.1 256.3 121.9 256.3H100.7C100.5 256.3 100.3 256.5 100.3 256.7C100.3 256.9 100.5 257.1 100.7 257.1Z" fill="white"/>
<path d="M100.7 261H121.9C122.1 261 122.3 260.8 122.3 260.6C122.3 260.4 122.1 260.2 121.9 260.2H100.7C100.5 260.2 100.3 260.4 100.3 260.6C100.3 260.8 100.5 261 100.7 261Z" fill="white"/>
<path d="M83.5 256.7C83.5 257.9 84.5 258.9 85.7 258.9C86.9 258.9 87.9 257.9 87.9 256.7C87.9 255.5 86.9 254.5 85.7 254.5C84.5 254.5 83.5 255.5 83.5 256.7Z" fill="#D5D1DE"/>
<path d="M75.7001 256.7C75.7001 257.9 76.7001 258.9 77.9001 258.9C79.1001 258.9 80.1001 257.9 80.1001 256.7C80.1001 255.5 79.1001 254.5 77.9001 254.5C76.7001 254.5 75.7001 255.5 75.7001 256.7Z" fill="#D5D1DE"/>
<path d="M67.9001 256.7C67.9001 257.9 68.9001 258.9 70.1001 258.9C71.3001 258.9 72.3 257.9 72.3 256.7C72.3 255.5 71.3001 254.5 70.1001 254.5C68.9001 254.5 67.9001 255.5 67.9001 256.7Z" fill="#D5D1DE"/>
<path d="M59.9 274.9H129.9V300.7H59.9V274.9Z" fill="#9C9C9C"/>
<path d="M61.6001 299.2H128.2V276.3H61.6001V299.2ZM127.4 298.5H62.4001V277.2H127.4V298.5Z" fill="white"/>
<path d="M100.7 284.3H121.9C122.1 284.3 122.3 284.1 122.3 283.9C122.3 283.7 122.1 283.5 121.9 283.5H100.7C100.5 283.5 100.3 283.7 100.3 283.9C100.3 284.1 100.5 284.3 100.7 284.3Z" fill="white"/>
<path d="M100.7 288.2H121.9C122.1 288.2 122.3 288 122.3 287.8C122.3 287.6 122.1 287.4 121.9 287.4H100.7C100.5 287.4 100.3 287.6 100.3 287.8C100.3 288 100.5 288.2 100.7 288.2Z" fill="white"/>
<path d="M100.7 292.1H121.9C122.1 292.1 122.3 291.9 122.3 291.7C122.3 291.5 122.1 291.3 121.9 291.3H100.7C100.5 291.3 100.3 291.5 100.3 291.7C100.3 291.9 100.5 292.1 100.7 292.1Z" fill="white"/>
<path d="M83.5 287.8C83.5 289 84.5 290 85.7 290C86.9 290 87.9 289 87.9 287.8C87.9 286.6 86.9 285.6 85.7 285.6C84.5 285.6 83.5 286.6 83.5 287.8Z" fill="#D5D1DE"/>
<path d="M77.8 290C76.585 290 75.6 289.015 75.6 287.8C75.6 286.585 76.585 285.6 77.8 285.6C79.015 285.6 80 286.585 80 287.8C80 289.015 79.015 290 77.8 290Z" fill="#D5D1DE"/>
<path d="M67.9001 287.8C67.9001 289 68.9001 290 70.1001 290C71.3001 290 72.3 289 72.3 287.8C72.3 286.6 71.3001 285.6 70.1001 285.6C68.9001 285.6 67.9001 286.6 67.9001 287.8Z" fill="#D5D1DE"/>
<path d="M77.4 216.6H112.4V238.5H77.4V216.6Z" fill="#9C9C9C"/>
<path d="M106.1 219.5H109.3V235.6H106.1V219.5Z" fill="#D5D1DE"/>
<path d="M126.2 307.4C126.2 308.2 126.8 308.8 127.6 308.8C128.4 308.8 129 308.2 129 307.4C129 306.6 128.4 306 127.6 306C126.8 306 126.2 306.6 126.2 307.4Z" fill="#9C9C9C"/>
<path d="M60.8 307.4C60.8 308.2 61.4 308.8 62.2 308.8C63 308.8 63.6 308.2 63.6 307.4C63.6 306.6 63 306 62.2 306C61.4 306 60.8 306.6 60.8 307.4Z" fill="#9C9C9C"/>
<path d="M298.7 293.4H279.1C281 295 282.2 297.4 282.2 300C282.2 304.8 278.3 308.7 273.5 308.7H267.5C266.9 308.7 266.4 309.2 266.4 309.8C266.4 310.4 266.9 310.9 267.5 310.9H298.8C303.6 310.9 307.5 307 307.5 302.2C307.5 297.4 303.6 293.5 298.8 293.5L298.7 293.4Z" fill="#D5D1DE"/>
<path d="M298.8 311.9H267C266.5 311.9 266.1 311.5 266.1 311C266.1 310.5 266.5 310.1 267 310.1H298.8C303.1 310.1 306.6 306.6 306.6 302.3C306.6 298 303.1 294.5 298.8 294.5C294.5 294.5 297.9 294.1 297.9 293.6C297.9 293.1 298.3 292.7 298.8 292.7C304.1 292.7 308.5 297 308.5 302.4C308.5 307.8 304.2 312.1 298.8 312.1V311.9Z" fill="#A6A3AD"/>
<g opacity="0.1">
<path d="M282.1 299H307.9C306.6 295.2 303 292.5 298.7 292.5C294.4 292.5 297.8 292.9 297.8 293.4H279.1C280.7 294.8 281.8 296.8 282.1 299Z" fill="black"/>
</g>
<path d="M237.5 219.5H340C342.375 219.5 344.3 221.425 344.3 223.8V291.2C344.3 293.575 342.375 295.5 340 295.5H237.5C235.125 295.5 233.2 293.575 233.2 291.2V223.8C233.2 221.425 235.125 219.5 237.5 219.5Z" fill="#9C9C9C"/>
<path d="M233.2 280.6V291.1C233.2 293.5 235.1 295.4 237.5 295.4H340C342.4 295.4 344.3 293.5 344.3 291.1V280.6H233.2Z" fill="#A6A3AD"/>
<path d="M234.5 219.5H337C339.375 219.5 341.3 221.425 341.3 223.8V291.2C341.3 293.575 339.375 295.5 337 295.5H234.5C232.125 295.5 230.2 293.575 230.2 291.2V223.8C230.2 221.425 232.125 219.5 234.5 219.5Z" fill="#808080"/>
<path d="M234.6 223.1H336.9V280.7H234.6V223.1Z" fill="white"/>
<path d="M325.4 234.9V266.8H322.7V234.9H325.4Z" fill="#D5D1DE"/>
<path d="M320.4 239.5V266.8H317.7V239.5H320.4Z" fill="#D5D1DE"/>
<path d="M310.5 239.4V266.7H307.8V239.4H310.5Z" fill="#D5D1DE"/>
<path d="M305.5 243.3V266.7H302.8V243.3H305.5Z" fill="#D5D1DE"/>
<path d="M295.6 239.5V266.8H292.9V239.5H295.6Z" fill="#D5D1DE"/>
<path d="M290.6 243.3V266.7H287.9V243.3H290.6Z" fill="#D5D1DE"/>
<path d="M278 243.4H280.7V266.8H278V243.4Z" fill="#D5D1DE"/>
<path d="M273 246.7H275.7V266.7H273V246.7Z" fill="#D5D1DE"/>
<path d="M260.9 243.4V266.8H258.2V243.4H260.9Z" fill="#D5D1DE"/>
<path d="M265.8 246.8V266.8H263.1V246.8H265.8Z" fill="#D5D1DE"/>
<path d="M243.3 239.5H246V266.8H243.3V239.5Z" fill="#D5D1DE"/>
<path d="M248.2 243.4H250.9V266.8H248.2V243.4Z" fill="#D5D1DE"/>
<path d="M239.9 269.4H331V271.8H239.9V269.4Z" fill="#D5D1DE"/>
<path d="M328.6 229.3H331V271.8H328.6V229.3Z" fill="#D5D1DE"/>
<path d="M230.1 280.6V291.1C230.1 293.5 232 295.4 234.4 295.4H336.9C339.3 295.4 341.2 293.5 341.2 291.1V280.6H230.1Z" fill="#D5D1DE"/>
<path d="M285.7 283.8C287.5 283.8 288.9 285.3 288.9 287C288.9 288.7 287.4 290.2 285.7 290.2C284 290.2 282.5 288.7 282.5 287C282.5 285.3 284 283.8 285.7 283.8Z" fill="#A6A3AD"/>
<path d="M152.2 305.2C163.8 288.4 180.4 275.1 199.3 267.3C204.5 265.2 210.4 263 216 262.6C242.8 260.8 265.8 278.4 267.3 301.8L263 402.2C231.4 406.9 198.8 406.8 167.8 401.3L168.6 382.4C167.1 382.5 165.7 382.6 164.2 382.6C147.5 382.6 134.6 372.2 135.2 355C135.9 337.2 142.1 319.9 152.2 305.3V305.2ZM156.7 359.1C158 362.6 161.2 362.4 169.5 361.4L171.2 319.9C171.2 319.7 171.2 319.6 171.2 319.4C168.1 323.7 165.3 328.3 163 333C155.3 348.5 155.8 356.9 156.7 359.1Z" fill="#CBCBCB"/>
<path d="M259.4 215.8H245V198.6H259.4C264.2 198.6 268 202.5 268 207.2C268 212 264.1 215.8 259.4 215.8Z" fill="#FF5C5C"/>
<path d="M207.6 229.4L237.2 221.9V264.8C237.6 266.2 220.7 275.2 206.7 266L207.7 229.4H207.6Z" fill="#FF5C5C"/>
<path d="M228.9 251.6C229.3 251.6 229.8 251.6 230.2 251.6C241.5 250.7 251.9 243.6 256.4 233.1C260.8 222.7 259.1 210.2 259 199.2C259 190.7 258.9 182.3 258.8 173.8C258.8 170.3 260 163.7 258.8 160.5C257.7 157.8 258.3 159 256 158.3C250 156.5 240.5 158.3 234.2 158.3H193.4C192 158.3 194.3 224.4 196.7 230.3C201.8 242.8 215.4 252.1 229 251.6H228.9Z" fill="#FF6F6F"/>
<path d="M190 215.8H204.4V198.6H190C185.2 198.6 181.4 202.5 181.4 207.2C181.4 212 185.3 215.8 190 215.8Z" fill="#FF6F6F"/>
<path d="M219.5 205.7L218.8 202.6C219 202.6 219.3 202.5 219.5 202.5C221 202.5 222.1 204.3 222.1 206.5C222.1 208.7 220.8 210.4 219.4 210.4C218 210.4 216.8 208.6 216.8 206.4C216.8 205.3 217.2 204.2 217.7 203.5L219.5 205.7Z" fill="#1A1159"/>
<path d="M214.8 197.3C215.3 197.3 215.8 197 216.1 196.5C217 194.8 219.4 193.9 221.2 194.5C222 194.8 222.8 194.3 223.1 193.6C223.4 192.8 222.9 192 222.2 191.7C219 190.6 215.2 192.1 213.5 195.1C213.1 195.8 213.4 196.7 214.1 197.1C214.3 197.2 214.6 197.3 214.8 197.3Z" fill="#1A1159"/>
<path d="M243.9 205.7L244.6 202.6C244.4 202.6 244.1 202.5 243.9 202.5C242.4 202.5 241.3 204.3 241.3 206.5C241.3 208.7 242.6 210.4 244 210.4C245.5 210.4 246.6 208.6 246.6 206.4C246.6 205.3 246.2 204.2 245.7 203.5L243.9 205.7Z" fill="#1A1159"/>
<path d="M248.6 197.3C248.1 197.3 247.6 197 247.3 196.5C246.4 194.8 244 193.9 242.2 194.5C241.4 194.8 240.6 194.3 240.3 193.6C240 192.8 240.5 192 241.2 191.7C244.4 190.6 248.2 192.1 249.9 195.1C250.3 195.8 250 196.7 249.3 197.1C249.1 197.2 248.8 197.3 248.6 197.3Z" fill="#1A1159"/>
<path d="M231 220.8C231.8 220.8 232.6 220.8 233.4 220.7C234.3 220.7 235.1 220.5 235.9 220.6C236.7 220.6 237.4 220.1 237.5 219.2C238 214.9 237.5 210.5 235.8 206.5C235.5 205.7 234.6 205.3 233.8 205.7C233 206 232.6 206.9 233 207.7C234.3 210.8 234.8 214.1 234.6 217.5C234.1 217.5 233.6 217.5 233.2 217.6C232.3 217.6 231.5 217.8 230.7 217.7C229.9 217.7 229.1 218.3 229.1 219.2C229.1 220.1 229.7 220.8 230.6 220.8C230.8 220.8 231 220.8 231.2 220.8H231Z" fill="#FF5C5C"/>
<path d="M233.9 227.7C236.2 227.7 238.5 227.5 240.8 227C241.6 226.8 242.2 226 242 225.2C241.8 224.4 241 223.8 240.2 224C230.7 226.1 220.1 223.1 213.2 216.3C212.6 215.7 211.6 215.7 211 216.3C210.4 216.9 210.4 217.9 211 218.5C217.1 224.4 225.5 227.7 234 227.7H233.9Z" fill="#FF5C5C"/>
<path d="M193.4 158.4H205.2C206.6 163.6 207.7 168.8 207.9 174.1C208.1 181.2 206.4 188.6 201.7 194C199.7 196.2 196.7 198.1 193.9 197.4C193 178.4 192.7 158.5 193.4 158.5V158.4Z" fill="#1A1159"/>
<path d="M188.5 173C188.5 180.1 272.5 184.6 272.5 173C272.5 149.8 253.7 131 230.5 131C207.3 131 188.5 149.8 188.5 173Z" fill="#FFB833"/>
<path d="M231 182C246.3 182 260.8 180 273.4 175.9C275 175.4 275.9 173.6 275.4 172C274.9 170.4 273.1 169.5 271.5 170C249.9 176.9 220.9 177.6 193.9 171.8L189.6 170.1C188 169.5 186.2 170.2 185.6 171.8C185 173.4 185.7 175.2 187.3 175.8L191.8 177.6C192 177.6 192.1 177.7 192.3 177.7C205.2 180.5 218.3 181.9 231 181.9V182Z" fill="#F79400"/>
<path d="M213.9 134.4C219 132.2 224.6 131 230.5 131C236.4 131 243.5 132.6 249 135.3C250.7 146.3 249 159.6 243.7 169.4C240.6 170.3 230.4 170.3 225.6 169.4C224 157.8 219.3 145 213.9 134.4Z" fill="#F79400"/>
<path d="M200.4 273.8C201.3 267.8 202.8 260.1 203.7 254.1C210.4 256.1 216.8 259.3 222.9 262.7C222.6 267.8 222.2 272.7 221.9 277.7C214.2 275.5 208.1 275.9 200.4 273.7V273.8Z" fill="#CBCBCB"/>
<path d="M225.2 281.7C225.2 281.7 225.7 268.4 226.1 262.7C228.8 260.9 234.7 258.4 239.8 257C239.8 257 240.7 280.4 240.5 280.2C235.8 280.2 229.9 281.7 225.2 281.7Z" fill="#CBCBCB"/>
<path d="M229.8 310.9C229.8 310.9 229.9 310.9 230 310.9L253.6 307.4C254.2 307.4 254.6 306.7 254.5 306.1C254.5 305.5 253.8 305.1 253.2 305.2L229.6 308.7C229 308.7 228.6 309.4 228.7 310C228.7 310.5 229.3 310.9 229.8 310.9Z" fill="#121C4D"/>
<path d="M211.7 310.9C212.2 310.9 212.7 310.5 212.8 310C212.9 309.4 212.5 308.8 211.9 308.7L190.7 305.2C190.1 305.1 189.5 305.5 189.4 306.1C189.3 306.7 189.7 307.3 190.3 307.4L211.5 310.9C211.5 310.9 211.6 310.9 211.7 310.9Z" fill="#121C4D"/>
<path d="M221 371.9H283.2L306.3 287H244L221 371.9Z" fill="white"/>
<path d="M244 287H246.2L223.2 371.9H221L244 287Z" fill="#D5D1DE"/>
<path d="M209.7 338.9C215.8 334.2 222.8 331 230.8 329.6C235.6 328.8 240.1 331.9 241 336.7C241.8 341.5 238.7 346 233.9 346.9C228.1 347.9 223.3 350.2 219.2 353.9C217.8 350.4 212.3 341.6 209.8 338.9H209.7Z" fill="#FF6F6F"/>
<path d="M286.6 331.1C284.4 337.3 286.6 343.8 291.6 345.5C296.6 347.3 302.4 343.6 304.6 337.4C306.8 331.2 304.6 324.7 299.6 323C294.6 321.2 288.8 324.9 286.6 331.1Z" fill="#FF6F6F"/>
<path d="M157 61.2C169.5 61.2 179.7 51 179.7 38.5C179.7 26 169.5 15.8 157 15.8C144.5 15.8 134.3 26 134.3 38.5C134.3 51 144.5 61.2 157 61.2ZM157 20.7C166.9 20.7 174.9 28.7 174.9 38.6C174.9 48.5 166.9 56.5 157 56.5C147.1 56.5 139.1 48.5 139.1 38.6C139.1 28.7 147.1 20.7 157 20.7Z" fill="#CBCBCB"/>
<path d="M150.3 37.6H165.9V39.2H150.3V37.6Z" fill="#CBCBCB"/>
<path d="M152.7 45.8H153.5C157.5 45.8 160.8 42.5 160.8 38.5C160.8 34.5 157.5 31.2 153.5 31.2H152.7V32.8H153.5C156.6 32.8 159.2 35.4 159.2 38.5C159.2 41.6 156.6 44.2 153.5 44.2H152.7V45.8Z" fill="#CBCBCB"/>
<path d="M166.5 40.5C166.7 40.5 167 40.5 167.2 40.4C168.2 40 168.8 38.8 168.4 37.8C168 36.8 166.8 36.2 165.8 36.6C165.3 36.8 164.9 37.2 164.7 37.7C164.5 38.2 164.5 38.7 164.7 39.2C164.9 39.7 165.3 40.1 165.8 40.3C166.1 40.4 166.3 40.5 166.6 40.5H166.5ZM166.5 38.1C166.7 38.1 166.8 38.1 166.9 38.3C166.9 38.5 166.9 38.7 166.7 38.8C166.6 38.8 166.5 38.8 166.4 38.8C166.4 38.8 166.3 38.8 166.2 38.6C166.2 38.4 166.2 38.2 166.4 38.1C166.4 38.1 166.4 38.1 166.5 38.1Z" fill="#CBCBCB"/>
<path d="M152.3 34C152.5 34 152.8 34 153 33.9C154 33.5 154.6 32.3 154.2 31.3C153.8 30.3 152.6 29.7 151.6 30.1C151.1 30.3 150.7 30.7 150.5 31.2C150.3 31.7 150.3 32.2 150.5 32.7C150.7 33.2 151.1 33.6 151.6 33.8C151.9 33.9 152.1 34 152.4 34H152.3ZM152.3 31.6C152.5 31.6 152.6 31.6 152.7 31.8C152.7 32 152.7 32.2 152.5 32.3C152.4 32.3 152.3 32.3 152.2 32.3C152.2 32.3 152.1 32.3 152 32.1C152 32 152 31.9 152 31.8C152 31.8 152 31.7 152.2 31.6C152.2 31.6 152.2 31.6 152.3 31.6Z" fill="#CBCBCB"/>
<path d="M152.3 47C152.5 47 152.8 47 153 46.9C154 46.5 154.6 45.3 154.2 44.3C153.8 43.3 152.6 42.7 151.6 43.1C151.1 43.3 150.7 43.7 150.5 44.2C150.3 44.7 150.3 45.2 150.5 45.7C150.7 46.2 151.1 46.6 151.6 46.8C151.9 46.9 152.1 47 152.4 47H152.3ZM152.3 44.6C152.5 44.6 152.6 44.6 152.7 44.8C152.7 45 152.7 45.2 152.5 45.3C152.4 45.3 152.3 45.3 152.2 45.3C152.2 45.3 152.1 45.3 152 45.1C152 45 152 44.9 152 44.8C152 44.8 152 44.7 152.2 44.6C152.2 44.6 152.2 44.6 152.3 44.6Z" fill="#CBCBCB"/>
<path d="M149.8 40.5C150 40.5 150.3 40.5 150.5 40.4C151 40.2 151.4 39.8 151.6 39.3C151.8 38.8 151.8 38.3 151.6 37.8C151.4 37.3 151 36.9 150.5 36.7C150 36.5 149.5 36.5 149 36.7C148 37.1 147.4 38.3 147.8 39.3C148.1 40.1 148.9 40.6 149.7 40.6L149.8 40.5ZM149.8 38.1C149.8 38.1 149.9 38.1 150 38.1C150 38.1 150.1 38.1 150.2 38.3C150.2 38.5 150.2 38.7 150 38.8C149.8 38.8 149.6 38.8 149.5 38.6C149.5 38.4 149.5 38.2 149.7 38.1C149.7 38.1 149.7 38.1 149.8 38.1Z" fill="#CBCBCB"/>
</svg>
