<svg width="23" height="23" viewBox="0 0 23 23" fill="none" xmlns="http://www.w3.org/2000/svg">
<path d="M18.6274 4.01279H1.46177C1.25484 4.01279 1.05638 4.09499 0.91005 4.24132C0.763724 4.38765 0.681519 4.58611 0.681519 4.79304V21.9586C0.681519 22.1656 0.763724 22.364 0.91005 22.5104C1.05638 22.6567 1.25484 22.7389 1.46177 22.7389H18.6274C18.8343 22.7389 19.0328 22.6567 19.1791 22.5104C19.3254 22.364 19.4076 22.1656 19.4076 21.9586V4.79304C19.4076 4.58611 19.3254 4.38765 19.1791 4.24132C19.0328 4.09499 18.8343 4.01279 18.6274 4.01279ZM17.8471 21.1784H2.24203V5.5733H17.8471V21.1784ZM21.7484 19.6179C21.5415 19.6179 21.343 19.5357 21.1967 19.3894C21.0503 19.243 20.9681 19.0446 20.9681 18.8376V2.45228H4.58279C4.37586 2.45228 4.1774 2.37007 4.03107 2.22375C3.88474 2.07742 3.80254 1.87896 3.80254 1.67202C3.80254 1.46509 3.88474 1.26663 4.03107 1.1203C4.1774 0.973975 4.37586 0.891769 4.58279 0.891769H21.7484C21.9553 0.891769 22.1538 0.973975 22.3001 1.1203C22.4464 1.26663 22.5287 1.46509 22.5287 1.67202V18.8376C22.5287 19.0446 22.4464 19.243 22.3001 19.3894C22.1538 19.5357 21.9553 19.6179 21.7484 19.6179ZM15.5064 13.3758C15.5064 13.5828 15.4242 13.7812 15.2778 13.9276C15.1315 14.0739 14.933 14.1561 14.7261 14.1561H10.8248V17.2771C10.8248 17.4841 10.7426 17.6825 10.5963 17.8288C10.45 17.9752 10.2515 18.0574 10.0446 18.0574C9.83764 18.0574 9.63918 17.9752 9.49285 17.8288C9.34653 17.6825 9.26432 17.4841 9.26432 17.2771V14.1561H5.36305C5.15611 14.1561 4.95765 14.0739 4.81132 13.9276C4.665 13.7812 4.58279 13.5828 4.58279 13.3758C4.58279 13.1689 4.665 12.9704 4.81132 12.8241C4.95765 12.6778 5.15611 12.5956 5.36305 12.5956H9.26432V9.47457C9.26432 9.26763 9.34653 9.06917 9.49285 8.92285C9.63918 8.77652 9.83764 8.69432 10.0446 8.69432C10.2515 8.69432 10.45 8.77652 10.5963 8.92285C10.7426 9.06917 10.8248 9.26763 10.8248 9.47457V12.5956H14.7261C14.933 12.5956 15.1315 12.6778 15.2778 12.8241C15.4242 12.9704 15.5064 13.1689 15.5064 13.3758Z" fill="#00C389"/>
</svg>
