<svg width="45" height="45" viewBox="0 0 45 45" fill="none" xmlns="http://www.w3.org/2000/svg">
<path fill-rule="evenodd" clip-rule="evenodd" d="M11.5767 10.2185H34.1733L35.227 6.66878C35.2856 6.51445 35.227 6.36011 35.11 6.20578C34.9929 6.10289 34.8173 6 34.6416 6H11.1084C10.9327 6 10.7571 6.05144 10.64 6.20578C10.523 6.30867 10.4644 6.51445 10.523 6.66878L11.5767 10.2185ZM34.1148 34.346H33.9977H11.5767L10.523 37.8957C10.4644 38.05 10.523 38.2043 10.64 38.3587C10.7571 38.4616 10.9327 38.5645 11.1084 38.5645H34.5831C34.7587 38.5645 34.9343 38.513 35.0514 38.3587C35.1685 38.2558 35.1685 38.05 35.1685 37.8957L34.1148 34.346ZM11.6352 11.2474H34.1148C35.5197 18.6039 35.5197 26.012 34.0562 33.3685H33.9977H11.6352C10.1717 26.012 10.1717 18.6039 11.6352 11.2474ZM14.4452 26.4235H31.6561V25.3946H14.4452V26.4235ZM14.4452 22.5652H31.6561V21.5363H14.4452V22.5652ZM14.4452 18.7068H31.6561V17.6779H14.4452V18.7068Z" fill="#00C389"/>
</svg>
