<svg width="25" height="19" viewBox="0 0 25 19" fill="none" xmlns="http://www.w3.org/2000/svg">
<path d="M16.9192 10.2058C16.3153 10.2058 15.7718 10.538 15.5 11.0211C15.4396 11.1419 15.3792 11.2627 15.349 11.3834V11.4136C15.349 11.474 15.3188 11.5042 15.3188 11.5646V11.5948C15.3188 11.6552 15.3188 11.7156 15.3188 11.776C15.3188 11.8364 15.3188 11.8967 15.3188 11.9571V11.9873C15.3188 12.0477 15.349 12.0779 15.349 12.1383V12.1685C15.3792 12.2893 15.4396 12.4101 15.5 12.5308C15.7718 13.014 16.3153 13.3461 16.9192 13.3461C17.825 13.3461 18.5497 12.6214 18.5497 11.7156C18.5497 10.9305 17.7948 10.2058 16.9192 10.2058Z" fill="#071D49"/>
<path d="M14.2922 11.8364C14.2922 11.7458 14.2922 11.6552 14.2922 11.5646C14.3224 11.2929 14.3828 11.0513 14.4734 10.8097C14.1715 10.4172 13.6883 10.2058 13.2052 10.2058C12.2994 10.2058 11.5747 10.9305 11.5747 11.8364C11.5747 12.7422 12.2994 13.4669 13.2052 13.4669C13.6883 13.4669 14.1715 13.2253 14.4734 12.863C14.3828 12.6214 14.3224 12.3799 14.2922 12.1081C14.2922 12.0175 14.2922 11.9269 14.2922 11.8364Z" fill="#071D49"/>
<path d="M22.9581 5.37467H20.0895V1.81169C20.0895 0.81526 19.2743 0 18.2779 0H1.91227C0.915846 0 0.100586 0.81526 0.100586 1.81169V11.3834C0.100586 12.3799 0.915846 13.1951 1.91227 13.1951H4.78078V16.7883C4.78078 17.7847 5.59604 18.6 6.59247 18.6H22.9882C23.9847 18.6 24.7999 17.7847 24.7999 16.7883V7.18636C24.7697 6.18993 23.9545 5.37467 22.9581 5.37467ZM1.09701 2.77792H19.1837V3.71396H1.09701V2.77792ZM1.09701 6.3711V5.37467H6.53208C5.86779 5.40487 5.2639 5.7974 4.99214 6.3711H1.09701ZM16.9191 14.4633C16.1944 14.4633 15.5603 14.1614 15.0772 13.7084C14.5941 14.1916 13.9298 14.4633 13.2353 14.4633C11.786 14.4633 10.6084 13.2857 10.6084 11.8364C10.6084 10.387 11.786 9.20942 13.2353 9.20942C13.9298 9.20942 14.5941 9.48117 15.0772 9.96429C15.5603 9.48117 16.1944 9.20942 16.9191 9.20942C18.3684 9.20942 19.546 10.387 19.546 11.8364C19.5158 13.2857 18.3382 14.4633 16.9191 14.4633Z" fill="#071D49"/>
</svg>
