<svg width="311" height="314" viewBox="0 0 311 314" fill="none" xmlns="http://www.w3.org/2000/svg">
<path fill-rule="evenodd" clip-rule="evenodd" d="M269.678 303.251H306.016C308.611 303.251 310.918 305.27 310.918 308.153C310.918 310.748 308.611 313.055 306.016 313.055H208.251C208.251 312.477 207.963 311.902 207.673 311.614C203.925 305.268 200.752 298.637 198.157 291.138C195.562 283.638 193.255 275.853 191.523 267.201C191.235 264.606 188.638 262.874 185.756 263.452C183.161 264.03 181.429 266.625 182.007 269.22C183.739 277.873 186.046 286.523 188.928 294.31C191.235 300.944 194.12 307.287 197.291 313.055H140.188C138.456 306.134 137.593 300.078 137.015 294.02C136.437 288.252 136.437 283.06 137.015 277.87C137.303 274.985 135.284 272.678 132.401 272.39C129.806 272.102 127.499 274.121 127.209 277.004C126.631 282.772 126.631 288.54 127.209 294.885C127.787 300.653 128.65 306.421 130.094 313.054H73.5716C74.7252 303.248 75.8788 294.31 77.0323 285.945C78.4737 276.429 79.6272 267.2 81.0709 258.259C81.6488 255.665 79.9173 253.067 77.0323 252.78C74.4374 252.202 72.1303 254.221 71.5524 256.818C70.111 265.759 68.6674 275.275 67.5138 284.504C66.0724 294.31 64.9189 303.539 63.7653 313.055H5.22236C2.62742 313.055 0.320312 310.748 0.320312 308.153V307.287C3.20531 282.775 6.66586 259.413 10.4145 237.205C13.2995 220.19 16.4703 204.04 20.5086 188.756C22.2401 189.622 23.9693 190.487 26.2764 191.063L242.568 229.13C245.453 229.708 248.048 229.13 250.643 228.264C251.796 241.241 253.238 253.643 255.835 265.178C259.008 279.309 263.622 292.288 269.678 303.246L269.678 303.251ZM242.858 184.435C248.914 193.376 251.799 204.333 249.779 215.581C249.492 218.176 246.894 219.907 244.3 219.329L27.7179 181.262C25.123 180.974 23.3915 178.377 23.9694 175.782C25.9887 164.535 32.3319 155.018 40.9846 148.962C49.6374 142.907 60.5952 140.022 71.8427 142.041L115.102 149.541L137.307 24.6674C138.749 16.5924 143.075 9.95877 149.421 5.63239C155.476 1.59383 163.263 -0.423435 171.05 0.730342V1.01818C179.125 2.17174 185.759 6.78595 190.085 12.8418C194.412 19.1873 196.431 26.972 194.987 34.7595L172.782 159.923L216.041 167.423C227.289 169.442 236.805 175.785 242.861 184.438L242.858 184.435Z" fill="white"/>
</svg>
