<svg width="28" height="28" viewBox="0 0 28 28" fill="none" xmlns="http://www.w3.org/2000/svg">
<path fill-rule="evenodd" clip-rule="evenodd" d="M14.0697 3.85423C14.3728 3.85423 14.6185 3.55358 14.6185 3.1827C14.6185 2.81182 14.3728 2.51117 14.0697 2.51117C13.7666 2.51117 13.5209 2.81182 13.5209 3.1827C13.5209 3.55358 13.7666 3.85423 14.0697 3.85423ZM13.9477 7.47017C13.9477 7.84324 13.6991 8.1417 13.3989 8.1417C13.0987 8.1417 12.8547 7.84324 12.8501 7.47017C12.8501 7.09709 13.0987 6.79863 13.3989 6.79863C13.7038 6.79863 13.9477 7.10283 13.9477 7.47017ZM15.0782 8.81323C15.3813 8.81323 15.627 8.51258 15.627 8.1417C15.627 7.77083 15.3813 7.47017 15.0782 7.47017C14.7751 7.47017 14.5293 7.77083 14.5293 8.1417C14.5293 8.51258 14.7751 8.81323 15.0782 8.81323ZM13.3989 10.3055C13.6991 10.3055 13.9477 10.0071 13.9477 9.63399C13.9477 9.26092 13.7038 8.96246 13.3989 8.96246C13.0987 8.96246 12.8501 9.26092 12.8501 9.63399C12.8501 10.0071 13.0987 10.3055 13.3989 10.3055ZM24.108 24.3732H24.7647C25.0508 24.3732 25.2807 24.6545 25.2713 25.0046C25.2713 25.3547 25.0415 25.6359 24.7553 25.6359H20.5477C20.2615 25.6359 20.0317 25.3547 20.0317 25.0046C20.0317 24.7463 20.1583 24.5225 20.3413 24.4249H18.8777C19.0607 24.5225 19.1873 24.7463 19.1873 25.0046C19.1873 25.3547 18.9575 25.6359 18.6713 25.6359H17.7003C17.4142 25.6359 17.1844 25.3547 17.1844 25.0046C17.1844 24.7463 17.311 24.5225 17.4939 24.4249H16.4479C16.6308 24.5225 16.7575 24.7463 16.7575 25.0046C16.7575 25.3547 16.5276 25.6359 16.2415 25.6359H3.35583C3.06969 25.6359 2.83984 25.3547 2.83984 25.0046C2.83984 24.6545 3.06969 24.3732 3.35583 24.3732H4.03131L11.9306 12.7965C12.0479 12.6071 12.7844 11.5051 14.0696 11.5051C15.3549 11.5051 16.0914 12.6014 16.2087 12.7965L24.108 24.3732ZM8.82532 21.5264C8.82532 21.8995 9.07393 22.1979 9.37415 22.1979C9.67905 22.1979 9.92297 21.8995 9.92297 21.5264C9.92297 21.1533 9.67436 20.8549 9.37415 20.8549C9.06924 20.8549 8.82532 21.1591 8.82532 21.5264ZM10.9315 18.7542C10.9315 19.1273 11.1801 19.4257 11.4803 19.4257C11.7805 19.4257 12.0245 19.1273 12.0291 18.7542C12.0291 18.3811 11.7852 18.0827 11.4803 18.0827C11.1754 18.0827 10.9315 18.3869 10.9315 18.7542ZM14.1682 14.7193C14.1682 14.3462 13.9195 14.0477 13.6193 14.0477C13.3144 14.0477 13.0705 14.3462 13.0705 14.7193C13.0705 15.0923 13.3144 15.3908 13.6193 15.3908C13.9242 15.3908 14.1682 15.0866 14.1682 14.7193ZM12.7093 15.5572C12.4044 15.5572 12.1605 15.8614 12.1605 16.2288C12.1605 16.6018 12.4044 16.9003 12.7093 16.9003C13.0142 16.9003 13.2581 16.5961 13.2581 16.2288C13.2581 15.8557 13.0095 15.5572 12.7093 15.5572ZM12.7046 18.7542C12.7046 19.1273 12.9532 19.4257 13.2535 19.4257C13.5537 19.4257 13.8023 19.1273 13.8023 18.7542C13.8023 18.3811 13.5537 18.0827 13.2535 18.0827C12.9485 18.0827 12.7046 18.3869 12.7046 18.7542ZM14.1682 16.2288C13.8633 16.2288 13.6193 16.533 13.6193 16.9003C13.6193 17.2676 13.8633 17.5718 14.1682 17.5718C14.4731 17.5718 14.717 17.2734 14.717 16.9003C14.717 16.5272 14.4731 16.2288 14.1682 16.2288ZM14.4824 18.7542C14.4824 19.1273 14.7311 19.4257 15.0313 19.4257C15.3315 19.4257 15.5754 19.1273 15.5801 18.7542C15.5801 18.3811 15.3362 18.0827 15.0313 18.0827C14.7264 18.0827 14.4824 18.3869 14.4824 18.7542ZM15.3456 16.8946C15.3456 17.2676 15.5942 17.5661 15.8944 17.5661C16.1946 17.5661 16.4432 17.2676 16.4432 16.8946C16.4432 16.5215 16.1993 16.223 15.8944 16.223C15.5895 16.223 15.3456 16.5215 15.3456 16.8946ZM16.9545 19.0125C16.9545 19.3855 17.2031 19.684 17.5033 19.684C17.8082 19.684 18.0522 19.3855 18.0522 19.0125C18.0522 18.6394 17.8082 18.3409 17.5033 18.3409C17.1984 18.3409 16.9545 18.6451 16.9545 19.0125Z" fill="white"/>
</svg>
