<svg width="45" height="45" viewBox="0 0 45 45" fill="none" xmlns="http://www.w3.org/2000/svg">
<path fill-rule="evenodd" clip-rule="evenodd" d="M22.7214 5.92924C23.2132 5.92924 23.6119 5.4414 23.6119 4.83962C23.6119 4.23784 23.2132 3.75 22.7214 3.75C22.2296 3.75 21.8309 4.23784 21.8309 4.83962C21.8309 5.4414 22.2296 5.92924 22.7214 5.92924ZM22.5235 11.7964C22.5235 12.4018 22.1201 12.886 21.633 12.886C21.1459 12.886 20.7501 12.4018 20.7425 11.7964C20.7425 11.1911 21.1459 10.7068 21.633 10.7068C22.1277 10.7068 22.5235 11.2004 22.5235 11.7964ZM24.3578 13.9757C24.8496 13.9757 25.2483 13.4878 25.2483 12.886C25.2483 12.2843 24.8496 11.7964 24.3578 11.7964C23.8659 11.7964 23.4673 12.2843 23.4673 12.886C23.4673 13.4878 23.8659 13.9757 24.3578 13.9757ZM21.633 16.397C22.1201 16.397 22.5235 15.9128 22.5235 15.3074C22.5235 14.7021 22.1277 14.2178 21.633 14.2178C21.1459 14.2178 20.7425 14.7021 20.7425 15.3074C20.7425 15.9128 21.1459 16.397 21.633 16.397ZM39.0095 39.2231H40.075C40.5393 39.2231 40.9123 39.6795 40.897 40.2476C40.897 40.8157 40.5241 41.272 40.0598 41.272H33.2325C32.7682 41.272 32.3953 40.8157 32.3953 40.2476C32.3953 39.8285 32.6008 39.4653 32.8976 39.307H30.5229C30.8197 39.4653 31.0252 39.8285 31.0252 40.2476C31.0252 40.8157 30.6523 41.272 30.188 41.272H28.6125C28.1482 41.272 27.7752 40.8157 27.7752 40.2476C27.7752 39.8285 27.9807 39.4653 28.2776 39.307H26.5803C26.8771 39.4653 27.0826 39.8285 27.0826 40.2476C27.0826 40.8157 26.7097 41.272 26.2454 41.272H5.33724C4.87295 41.272 4.5 40.8157 4.5 40.2476C4.5 39.6795 4.87295 39.2231 5.33724 39.2231H6.43326L19.2506 20.4389C19.4409 20.1315 20.6359 18.3434 22.7214 18.3434C24.8068 18.3434 26.0018 20.1222 26.1921 20.4389L39.0095 39.2231ZM14.212 34.6039C14.212 35.2092 14.6154 35.6935 15.1025 35.6935C15.5972 35.6935 15.993 35.2092 15.993 34.6039C15.993 33.9986 15.5896 33.5143 15.1025 33.5143C14.6078 33.5143 14.212 34.0079 14.212 34.6039ZM17.6294 30.1057C17.6294 30.7111 18.0328 31.1954 18.5199 31.1954C19.0071 31.1954 19.4028 30.7111 19.4105 30.1057C19.4105 29.5004 19.0147 29.0161 18.5199 29.0161C18.0252 29.0161 17.6294 29.5097 17.6294 30.1057ZM22.8812 23.5587C22.8812 22.9534 22.4778 22.4691 21.9907 22.4691C21.4959 22.4691 21.1002 22.9534 21.1002 23.5587C21.1002 24.1641 21.4959 24.6483 21.9907 24.6483C22.4854 24.6483 22.8812 24.1547 22.8812 23.5587ZM20.5141 24.9184C20.0194 24.9184 19.6236 25.412 19.6236 26.008C19.6236 26.6134 20.0194 27.0976 20.5141 27.0976C21.0088 27.0976 21.4046 26.6041 21.4046 26.008C21.4046 25.4027 21.0012 24.9184 20.5141 24.9184ZM20.5065 30.1057C20.5065 30.7111 20.9099 31.1954 21.397 31.1954C21.8841 31.1954 22.2875 30.7111 22.2875 30.1057C22.2875 29.5004 21.8841 29.0161 21.397 29.0161C20.9023 29.0161 20.5065 29.5097 20.5065 30.1057ZM22.8812 26.008C22.3865 26.008 21.9907 26.5016 21.9907 27.0976C21.9907 27.6937 22.3865 28.1873 22.8812 28.1873C23.3759 28.1873 23.7717 27.703 23.7717 27.0976C23.7717 26.4923 23.3759 26.008 22.8812 26.008ZM23.3911 30.1057C23.3911 30.7111 23.7945 31.1954 24.2817 31.1954C24.7688 31.1954 25.1646 30.7111 25.1722 30.1057C25.1722 29.5004 24.7764 29.0161 24.2817 29.0161C23.7869 29.0161 23.3911 29.5097 23.3911 30.1057ZM24.7916 27.0883C24.7916 27.6937 25.195 28.1779 25.6821 28.1779C26.1693 28.1779 26.5727 27.6937 26.5727 27.0883C26.5727 26.483 26.1769 25.9987 25.6821 25.9987C25.1874 25.9987 24.7916 26.483 24.7916 27.0883ZM27.4023 30.5248C27.4023 31.1302 27.8057 31.6144 28.2928 31.6144C28.7875 31.6144 29.1833 31.1302 29.1833 30.5248C29.1833 29.9195 28.7875 29.4352 28.2928 29.4352C27.7981 29.4352 27.4023 29.9288 27.4023 30.5248Z" fill="#00C389"/>
</svg>
