<svg width="33" height="34" viewBox="0 0 33 34" fill="none" xmlns="http://www.w3.org/2000/svg">
<path d="M27.1432 9.71435C26.9105 9.43819 26.6192 9.21618 26.29 9.06409C25.9608 8.91199 25.6018 8.83354 25.2386 8.83432H10.1288L9.96793 7.8621C9.95902 7.82928 9.94472 7.79813 9.9256 7.76991C9.91866 7.71298 9.89837 7.65845 9.86635 7.61067C9.84317 7.56304 9.81478 7.51807 9.7817 7.47657C9.74936 7.43619 9.71244 7.39963 9.67166 7.36761C9.63216 7.32945 9.58635 7.29827 9.53622 7.27542C9.49079 7.24808 9.44255 7.2256 9.39232 7.20837C9.33697 7.19237 9.28032 7.18115 9.22302 7.17484C9.18916 7.17484 9.16376 7.15808 9.1299 7.15808H5.74395C5.51945 7.15808 5.30414 7.24638 5.14539 7.40356C4.98664 7.56074 4.89746 7.77392 4.89746 7.9962C4.89746 8.21848 4.98664 8.43166 5.14539 8.58884C5.30414 8.74602 5.51945 8.83432 5.74395 8.83432H8.41039L8.57969 9.80654L10.4081 20.7021V20.7105L10.6028 21.8168C10.6869 22.3345 10.9331 22.8128 11.3068 23.1843C11.6805 23.5558 12.1627 23.8016 12.6852 23.8869C12.5763 24.1651 12.5189 24.4603 12.5159 24.7586C12.5129 25.1265 12.5915 25.4906 12.7462 25.8251C12.9009 26.1596 13.1278 26.4565 13.411 26.6947C13.6942 26.9329 14.0267 27.1067 14.3851 27.2038C14.7436 27.3009 15.1191 27.3189 15.4854 27.2566C15.8516 27.1943 16.1995 27.0532 16.5047 26.8432C16.8098 26.6333 17.0647 26.3595 17.2513 26.0414C17.438 25.7232 17.5518 25.3684 17.5848 25.002C17.6178 24.6355 17.5692 24.2663 17.4424 23.9205H20.2866C20.1474 24.3003 20.1026 24.7077 20.1561 25.1083C20.2096 25.5088 20.3598 25.8907 20.594 26.2216C20.8282 26.5525 21.1395 26.8226 21.5016 27.0091C21.8636 27.1956 22.2656 27.293 22.6737 27.293C23.0818 27.293 23.4839 27.1956 23.8459 27.0091C24.2079 26.8226 24.5192 26.5525 24.7534 26.2216C24.9876 25.8907 25.1378 25.5088 25.1913 25.1083C25.2448 24.7077 25.2001 24.3003 25.0608 23.9205H25.2132C25.4377 23.9205 25.653 23.8322 25.8117 23.675C25.9705 23.5178 26.0597 23.3046 26.0597 23.0824C26.0597 22.8601 25.9705 22.6469 25.8117 22.4897C25.653 22.3325 25.4377 22.2442 25.2132 22.2442H13.0999C12.8994 22.2447 12.7054 22.1739 12.5532 22.0447C12.4009 21.9155 12.3006 21.7365 12.2704 21.5402L12.245 21.4061H23.9858C24.5843 21.4047 25.1627 21.1921 25.6172 20.8066C26.0718 20.421 26.3727 19.8878 26.466 19.3024L27.7188 11.7594C27.7797 11.3976 27.7597 11.0269 27.6603 10.6736C27.5608 10.3202 27.3843 9.99281 27.1432 9.71435ZM22.6737 23.9205C22.8411 23.9205 23.0048 23.9696 23.144 24.0617C23.2832 24.1538 23.3917 24.2847 23.4558 24.4379C23.5198 24.591 23.5366 24.7595 23.5039 24.9221C23.4713 25.0847 23.3907 25.234 23.2723 25.3512C23.1539 25.4684 23.0031 25.5483 22.8389 25.5806C22.6747 25.6129 22.5045 25.5964 22.3498 25.5329C22.1951 25.4695 22.0629 25.3621 21.9699 25.2242C21.8769 25.0864 21.8272 24.9244 21.8272 24.7586C21.8279 24.5365 21.9173 24.3237 22.0759 24.1667C22.2345 24.0097 22.4494 23.9211 22.6737 23.9205ZM15.0553 23.9205C15.2227 23.9205 15.3864 23.9696 15.5256 24.0617C15.6648 24.1538 15.7733 24.2847 15.8374 24.4379C15.9014 24.591 15.9182 24.7595 15.8855 24.9221C15.8529 25.0847 15.7723 25.234 15.6539 25.3512C15.5355 25.4684 15.3847 25.5483 15.2205 25.5806C15.0563 25.6129 14.8861 25.5964 14.7314 25.5329C14.5767 25.4695 14.4445 25.3621 14.3515 25.2242C14.2585 25.0864 14.2088 24.9244 14.2088 24.7586C14.2095 24.5365 14.2989 24.3237 14.4575 24.1667C14.6161 24.0097 14.831 23.9211 15.0553 23.9205ZM20.2782 15.9583H19.0084V17.2155C19.0084 17.4378 18.9192 17.651 18.7605 17.8082C18.6017 17.9653 18.3864 18.0536 18.1619 18.0536C17.9374 18.0536 17.7221 17.9653 17.5634 17.8082C17.4046 17.651 17.3154 17.4378 17.3154 17.2155V15.9583H16.0457C15.8212 15.9583 15.6059 15.87 15.4472 15.7129C15.2884 15.5557 15.1992 15.3425 15.1992 15.1202C15.1992 14.8979 15.2884 14.6848 15.4472 14.5276C15.6059 14.3704 15.8212 14.2821 16.0457 14.2821H17.3154V13.0249C17.3154 12.8026 17.4046 12.5895 17.5634 12.4323C17.7221 12.2751 17.9374 12.1868 18.1619 12.1868C18.3864 12.1868 18.6017 12.2751 18.7605 12.4323C18.9192 12.5895 19.0084 12.8026 19.0084 13.0249V14.2821H20.2782C20.5027 14.2821 20.718 14.3704 20.8767 14.5276C21.0355 14.6848 21.1246 14.8979 21.1246 15.1202C21.1246 15.3425 21.0355 15.5557 20.8767 15.7129C20.718 15.87 20.5027 15.9583 20.2782 15.9583Z" fill="white"/>
</svg>
