<svg width="32" height="23" viewBox="0 0 32 23" fill="none" xmlns="http://www.w3.org/2000/svg">
<path d="M23.5766 12.9456V15.2916C23.5777 15.9907 23.3775 16.6744 23.0015 17.2563C20.7814 17.0812 18.3634 16.3058 16.6845 15.5591C16.6775 15.4708 16.6744 15.3816 16.6744 15.2916V12.9456C16.6744 12.6254 16.798 12.3182 17.0179 12.0917C17.2378 11.8652 17.5361 11.738 17.8471 11.738H19.4302V2.6485H19.2176C19.1263 2.6485 19.0358 2.62997 18.9514 2.59396C18.867 2.55796 18.7903 2.50518 18.7257 2.43865C18.6611 2.37212 18.6098 2.29314 18.5749 2.20622C18.5399 2.11929 18.5219 2.02612 18.5219 1.93204C18.5219 1.83795 18.5399 1.74478 18.5749 1.65786C18.6098 1.57093 18.6611 1.49195 18.7257 1.42542C18.7903 1.35889 18.867 1.30612 18.9514 1.27011C19.0358 1.23411 19.1263 1.21558 19.2176 1.21558H21.0334C21.2179 1.21558 21.3949 1.29106 21.5253 1.42542C21.6558 1.55979 21.7291 1.74202 21.7291 1.93204C21.7291 2.12205 21.6558 2.30429 21.5253 2.43865C21.3949 2.57301 21.2179 2.6485 21.0334 2.6485H20.8216V11.738H22.4039C22.5579 11.738 22.7104 11.7692 22.8527 11.8299C22.995 11.8906 23.1242 11.9796 23.2331 12.0917C23.342 12.2038 23.4284 12.337 23.4873 12.4835C23.5462 12.63 23.5766 12.787 23.5766 12.9456Z" fill="#071D49"/>
<path d="M30.1564 21.0576C30.1565 21.1529 30.1384 21.2473 30.103 21.3354C30.0677 21.4234 30.0158 21.5035 29.9504 21.5709C29.885 21.6383 29.8074 21.6918 29.7219 21.7283C29.6364 21.7648 29.5447 21.7836 29.4522 21.7836H2.55091C2.45837 21.7836 2.36673 21.7648 2.28124 21.7283C2.19575 21.6918 2.11809 21.6383 2.05269 21.5709C1.98729 21.5035 1.93543 21.4234 1.90009 21.3354C1.86474 21.2473 1.8466 21.1529 1.8467 21.0576V20.5218C1.8456 19.8429 2.04659 19.18 2.42259 18.6224C2.92931 17.8877 3.49397 17.1973 4.11083 16.5582C5.14639 15.4687 6.45502 14.6962 7.89128 14.3266C9.32755 13.957 10.8352 14.0047 12.2467 14.4645C13.55 14.8936 14.6971 15.5082 15.5536 15.9444C15.9401 16.1434 16.3962 16.3512 16.8955 16.5558C18.4323 17.1879 20.4057 17.7937 22.3251 18.0269C23.4923 18.1686 24.6387 18.1734 25.6552 17.9617C25.8563 17.8899 26.0615 17.8312 26.2697 17.7857C26.7411 17.6826 27.2288 17.6898 27.6971 17.8068C28.1653 17.9237 28.6021 18.1475 28.9752 18.4615C29.3482 18.7756 29.648 19.1719 29.8525 19.6212C30.0569 20.0705 30.1608 20.5614 30.1564 21.0576Z" fill="#071D49"/>
<path d="M26.2782 16.657C26.7453 16.657 27.1239 16.267 27.1239 15.7861C27.1239 15.3051 26.7453 14.9152 26.2782 14.9152C25.8112 14.9152 25.4326 15.3051 25.4326 15.7861C25.4326 16.267 25.8112 16.657 26.2782 16.657Z" fill="#071D49"/>
<path d="M28.7789 14.8204C29.0325 14.8204 29.2381 14.6087 29.2381 14.3476C29.2381 14.0864 29.0325 13.8747 28.7789 13.8747C28.5253 13.8747 28.3197 14.0864 28.3197 14.3476C28.3197 14.6087 28.5253 14.8204 28.7789 14.8204Z" fill="#071D49"/>
<path d="M24.9734 14.158C25.1254 14.158 25.2486 14.0312 25.2486 13.8746C25.2486 13.7181 25.1254 13.5912 24.9734 13.5912C24.8214 13.5912 24.6982 13.7181 24.6982 13.8746C24.6982 14.0312 24.8214 14.158 24.9734 14.158Z" fill="#071D49"/>
<path d="M28.1906 16.1204C28.3699 16.1204 28.5153 15.9707 28.5153 15.786C28.5153 15.6014 28.3699 15.4517 28.1906 15.4517C28.0113 15.4517 27.866 15.6014 27.866 15.786C27.866 15.9707 28.0113 16.1204 28.1906 16.1204Z" fill="#071D49"/>
</svg>
