<svg width="39" height="39" viewBox="0 0 39 39" fill="none" xmlns="http://www.w3.org/2000/svg">
<ellipse cx="19.5001" cy="19.0668" rx="19.5001" ry="19.0668" fill="#071D49"/>
<path fill-rule="evenodd" clip-rule="evenodd" d="M13.2011 11.4977H27.1274L27.7768 9.31004C27.8129 9.21492 27.7768 9.11981 27.7046 9.02469C27.6325 8.96128 27.5243 8.89787 27.416 8.89787H12.9125C12.8043 8.89787 12.696 8.92957 12.6239 9.02469C12.5517 9.0881 12.5156 9.21492 12.5517 9.31004L13.2011 11.4977ZM27.0913 26.3675H27.0192H13.2011L12.5517 28.5551C12.5156 28.6503 12.5517 28.7454 12.6239 28.8405C12.696 28.9039 12.8043 28.9673 12.9125 28.9673H27.3799C27.4882 28.9673 27.5964 28.9356 27.6686 28.8405C27.7407 28.7771 27.7407 28.6503 27.7407 28.5551L27.0913 26.3675ZM13.2372 12.1318H27.0913C27.9572 16.6657 27.9572 21.2312 27.0552 25.7651H27.0191H13.2372C12.3352 21.2312 12.3352 16.6657 13.2372 12.1318ZM14.969 21.4849H25.576V20.8508H14.969V21.4849ZM14.969 19.107H25.576V18.4729H14.969V19.107ZM14.969 16.7291H25.576V16.095H14.969V16.7291Z" fill="white"/>
</svg>
