<svg width="28" height="28" viewBox="0 0 28 28" fill="none" xmlns="http://www.w3.org/2000/svg">
<path fill-rule="evenodd" clip-rule="evenodd" d="M7.86254 6.45743H21.4317L22.0644 4.27743C22.0996 4.18264 22.0644 4.08786 21.9941 3.99308C21.9238 3.92989 21.8183 3.8667 21.7129 3.8667H7.58131C7.47585 3.8667 7.37039 3.89829 7.30009 3.99308C7.22978 4.05626 7.19463 4.18264 7.22978 4.27743L7.86254 6.45743ZM21.3963 21.2752H21.326H7.86237L7.22961 23.4552C7.19446 23.55 7.22961 23.6448 7.29992 23.7395C7.37022 23.8027 7.47568 23.8659 7.58114 23.8659H21.6776C21.783 23.8659 21.8885 23.8343 21.9588 23.7395C22.0291 23.6764 22.0291 23.55 22.0291 23.4552L21.3963 21.2752ZM7.89766 7.08928H21.3965C22.2402 11.6073 22.2402 16.1568 21.3613 20.6748H21.3262H7.89766C7.01883 16.1568 7.01883 11.6073 7.89766 7.08928ZM9.58501 16.4096H19.92V15.7777H9.58501V16.4096ZM9.58501 14.04H19.92V13.4081H9.58501V14.04ZM9.58501 11.6704H19.92V11.0386H9.58501V11.6704Z" fill="white"/>
</svg>
