<svg width="24" height="24" viewBox="0 0 24 24" fill="none" xmlns="http://www.w3.org/2000/svg">
<path fill-rule="evenodd" clip-rule="evenodd" d="M0.800003 12C0.800003 5.8223 5.82232 0.799988 12 0.799988C18.1777 0.799988 23.2 5.8223 23.2 12C23.2 18.1777 18.1777 23.2 12 23.2C5.82232 23.2 0.800003 18.1777 0.800003 12ZM2.16758 12C2.16758 17.4231 6.57684 21.8324 12 21.8324C17.4232 21.8324 21.8324 17.4231 21.8324 12C21.8324 6.57683 17.4232 2.16757 12 2.16757C6.57684 2.16757 2.16758 6.57683 2.16758 12ZM13.8391 11.3162H15.7726C16.1499 11.3162 16.4564 11.6227 16.4564 12.0236C16.4564 12.4008 16.1499 12.7074 15.7726 12.7074H13.8627C13.5798 13.4383 12.8724 13.9806 12.0236 13.9806C10.9389 13.9806 10.0665 13.1082 10.0665 12.0236C10.0665 11.717 10.1373 11.4577 10.2551 11.1983L7.1663 8.06231C6.88336 7.80294 6.90694 7.35494 7.1663 7.09557C7.42567 6.81262 7.87367 6.8362 8.13304 7.09557L11.1983 10.208C11.4577 10.1137 11.717 10.0429 12 10.0429C12.8488 10.0429 13.5562 10.5617 13.8391 11.3162ZM11.4105 12C11.4105 12.3301 11.6699 12.5895 12 12.5895C12.3301 12.5895 12.5895 12.3301 12.5895 12C12.5895 11.6699 12.3301 11.4105 12 11.4105C11.6699 11.4105 11.4105 11.6699 11.4105 12ZM12 5.56294C12.5079 5.56294 12.9196 5.15123 12.9196 4.64336C12.9196 4.1355 12.5079 3.72379 12 3.72379C11.4921 3.72379 11.0804 4.1355 11.0804 4.64336C11.0804 5.15123 11.4921 5.56294 12 5.56294ZM5.56296 12C5.56296 12.5079 5.15125 12.9196 4.64338 12.9196C4.13551 12.9196 3.7238 12.5079 3.7238 12C3.7238 11.4921 4.13551 11.0804 4.64338 11.0804C5.15125 11.0804 5.56296 11.4921 5.56296 12ZM12 20.2762C12.5079 20.2762 12.9196 19.8645 12.9196 19.3566C12.9196 18.8488 12.5079 18.437 12 18.437C11.4921 18.437 11.0804 18.8488 11.0804 19.3566C11.0804 19.8645 11.4921 20.2762 12 20.2762ZM20.2762 12C20.2762 12.5079 19.8645 12.9196 19.3566 12.9196C18.8488 12.9196 18.4371 12.5079 18.4371 12C18.4371 11.4921 18.8488 11.0804 19.3566 11.0804C19.8645 11.0804 20.2762 11.4921 20.2762 12Z" fill="#585858"/>
</svg>
