<svg width="15" height="15" viewBox="0 0 15 15" fill="none" xmlns="http://www.w3.org/2000/svg">
<path d="M7.5 13.9C11.3421 13.9 14.4667 10.9399 14.4667 7.3C14.4667 3.6601 11.3421 0.699997 7.5 0.699997C3.65788 0.699997 0.533334 3.6601 0.533334 7.3C0.533334 10.9399 3.65788 13.9 7.5 13.9ZM7.5 1.69C10.7656 1.69 13.4217 4.20625 13.4217 7.3C13.4217 10.3937 10.7656 12.91 7.5 12.91C4.23438 12.91 1.57833 10.3937 1.57833 7.3C1.57833 4.20625 4.23438 1.69 7.5 1.69Z" fill="#9EA2A2" stroke="#9EA2A2" stroke-width="0.3"/>
<path d="M5.16096 9.51594C5.26372 9.61329 5.39608 9.66114 5.53019 9.66114C5.6643 9.66114 5.79841 9.61329 5.89943 9.51594L7.50002 7.99959L9.10061 9.51594C9.20337 9.61329 9.33574 9.66114 9.46984 9.66114C9.60395 9.66114 9.73806 9.61329 9.83908 9.51594C10.0429 9.32289 10.0429 9.00939 9.83908 8.81634L8.23849 7.29999L9.83908 5.78364C10.0429 5.59059 10.0429 5.27708 9.83908 5.08403C9.6353 4.89098 9.30439 4.89098 9.10061 5.08403L7.50002 6.60038L5.89943 5.08403C5.69565 4.89098 5.36474 4.89098 5.16096 5.08403C4.95719 5.27708 4.95719 5.59059 5.16096 5.78364L6.76155 7.29999L5.16096 8.81634C4.95544 9.00939 4.95544 9.32289 5.16096 9.51594Z" fill="#9EA2A2" stroke="#9EA2A2" stroke-width="0.3"/>
</svg>
