<svg id="SvgjsSvg1001" width="288" height="288" xmlns="http://www.w3.org/2000/svg" version="1.1" xmlns:xlink="http://www.w3.org/1999/xlink" xmlns:svgjs="http://svgjs.com/svgjs"><defs id="SvgjsDefs1002"></defs><g id="SvgjsG1008" transform="matrix(1,0,0,1,0,0)"><svg xmlns="http://www.w3.org/2000/svg" width="288" height="288" viewBox="0 0 400 400"><path fill-rule="evenodd" d="M84.400 0.871 C -17.156 9.882,-30.893 49.692,62.891 63.204 C 156.981 76.759,259.209 51.752,227.854 22.850 C 209.903 6.304,141.423 -4.188,84.400 0.871 M0.003 91.127 C 0.006 114.853,-0.076 114.481,6.359 119.709 C 45.670 151.643,212.141 147.798,231.651 114.505 C 233.407 111.509,234.945 70.313,233.301 70.313 C 233.139 70.312,230.395 71.503,227.202 72.958 C 175.401 96.565,61.814 97.230,9.343 74.235 C 5.279 72.454,1.514 70.805,0.977 70.571 C 0.209 70.236,0.001 74.635,0.003 91.127 M0.003 166.127 C 0.006 189.853,-0.076 189.481,6.359 194.709 C 45.670 226.643,212.141 222.798,231.651 189.505 C 233.407 186.509,234.945 145.313,233.301 145.313 C 233.139 145.312,230.395 146.503,227.202 147.958 C 175.401 171.565,61.814 172.230,9.343 149.235 C 5.279 147.454,1.514 145.805,0.977 145.571 C 0.209 145.236,0.001 149.635,0.003 166.127 M269.531 216.896 C 185.743 222.867,154.637 253.953,213.065 273.327 C 270.189 292.268,378.161 283.320,397.438 258.047 C 408.139 244.017,388.947 229.252,350.000 221.552 C 330.329 217.663,290.836 215.378,269.531 216.896 M0.000 241.054 C 0.000 264.284,-0.001 264.277,5.547 269.027 C 25.952 286.492,98.737 296.801,154.470 290.120 L 158.549 289.631 158.841 266.886 C 159.001 254.376,159.410 242.947,159.750 241.489 L 160.367 238.837 155.769 239.336 C 104.023 244.955,38.663 237.793,6.335 222.962 C 3.160 221.505,0.435 220.313,0.281 220.313 C 0.126 220.313,0.000 229.646,0.000 241.054 M182.813 298.516 C 182.813 312.711,183.700 315.383,190.097 320.439 C 229.413 351.517,375.849 347.871,397.977 315.263 C 399.950 312.356,400.000 311.965,400.000 299.489 L 400.000 286.696 395.342 289.048 C 346.890 313.506,239.560 314.079,190.234 290.142 C 186.797 288.474,183.721 286.992,183.398 286.849 C 183.076 286.706,182.813 291.956,182.813 298.516 M0.000 316.054 C 0.000 339.284,-0.001 339.277,5.547 344.027 C 25.956 361.496,98.735 371.801,154.492 365.118 L 158.594 364.626 158.594 339.244 L 158.594 313.861 154.883 314.340 C 108.351 320.349,38.297 312.625,6.335 297.962 C 3.160 296.505,0.435 295.313,0.281 295.313 C 0.126 295.313,0.000 304.646,0.000 316.054 M182.813 357.056 C 182.813 373.769,184.965 377.361,199.219 384.440 C 251.187 410.248,383.443 402.408,398.854 372.606 C 399.927 370.531,400.666 345.313,399.654 345.313 C 399.464 345.313,398.145 345.997,396.724 346.833 C 354.302 371.806,237.159 372.214,188.108 347.559 C 185.650 346.324,183.453 345.313,183.225 345.313 C 182.998 345.313,182.813 350.597,182.813 357.056 " fill="#9ea2a2" class="color000 svgShape"></path></svg></g></svg>