<svg width="34" height="35" viewBox="0 0 34 35" fill="none" xmlns="http://www.w3.org/2000/svg">
<path d="M3.83906 28.4661C1.41773 25.5862 0.125567 21.9241 0.203262 18.162C0.226008 17.1814 0.527774 16.2276 1.07318 15.4124C1.61859 14.5972 2.38504 13.9545 3.28267 13.5595L3.6606 13.395C4.04881 13.2241 4.4832 13.1889 4.89387 13.2949C5.30454 13.4009 5.66761 13.642 5.92466 13.9795L8.47217 17.301C8.73219 17.6387 8.86002 18.0598 8.83167 18.4851C8.80332 18.9104 8.62074 19.3108 8.3182 19.611L6.60003 21.3295C6.82525 22.7202 7.42259 24.024 8.3287 25.1026L8.42318 25.2146C8.7293 25.5791 9.06651 25.9164 9.43099 26.2226L9.54296 26.3171C10.6215 27.2231 11.9249 27.8205 13.3152 28.0461L15.0334 26.3276C15.3336 26.025 15.7338 25.8424 16.1591 25.814C16.5843 25.7857 17.0053 25.9135 17.343 26.1736L20.6708 28.7216C21.0082 28.9787 21.2493 29.3419 21.3553 29.7526C21.4613 30.1634 21.426 30.5979 21.2552 30.9861L21.0907 31.3641C20.6968 32.2633 20.0546 33.0313 19.2395 33.5781C18.4245 34.125 17.4703 34.4278 16.4891 34.4512H16.1672C12.5162 34.4517 8.98216 33.164 6.18711 30.8146L5.98765 30.6501C5.27028 30.0471 4.60644 29.3831 4.00353 28.6656L3.83906 28.4661ZM30.4864 4.16187C32.4361 6.11143 33.6066 8.70611 33.778 11.4582C33.9495 14.2103 33.11 16.9302 31.4175 19.1068C29.7249 21.2833 27.2957 22.7666 24.5867 23.2777C21.8776 23.7889 19.0751 23.2927 16.7061 21.8826L12.9968 22.9606C12.8161 23.0133 12.6246 23.0164 12.4423 22.9697C12.26 22.923 12.0936 22.8281 11.9605 22.695C11.8275 22.5619 11.7326 22.3955 11.6859 22.2131C11.6392 22.0308 11.6424 21.8393 11.6951 21.6586L12.7728 17.9485C11.3632 15.5793 10.867 12.7768 11.3777 10.0675C11.8884 7.35828 13.3707 4.92881 15.5461 3.23568C17.7215 1.54255 20.4402 0.702309 23.1914 0.87286C25.9425 1.04341 28.5367 2.21301 30.4864 4.16187ZM19.0401 12.1595C19.0401 11.8741 18.9555 11.5952 18.7969 11.3579C18.6383 11.1207 18.413 10.9359 18.1493 10.8269C17.8857 10.7178 17.5956 10.6895 17.3159 10.7454C17.0361 10.8013 16.7792 10.939 16.5777 11.141C16.3762 11.3431 16.2392 11.6003 16.184 11.8803C16.1287 12.1602 16.1578 12.4503 16.2674 12.7137C16.3771 12.9771 16.5624 13.2021 16.8 13.3601C17.0375 13.5182 17.3166 13.6022 17.6019 13.6015C17.9837 13.6005 18.3495 13.4482 18.6191 13.1779C18.8887 12.9075 19.0401 12.5413 19.0401 12.1595ZM23.9392 12.1595C23.9392 11.8742 23.8546 11.5954 23.6962 11.3583C23.5378 11.1212 23.3126 10.9363 23.0492 10.8272C22.7858 10.7181 22.4959 10.6895 22.2162 10.7451C21.9365 10.8008 21.6796 10.9381 21.478 11.1398C21.2764 11.3415 21.1391 11.5984 21.0835 11.8781C21.0278 12.1579 21.0564 12.4478 21.1655 12.7113C21.2746 12.9748 21.4594 13.2 21.6965 13.3584C21.9336 13.5169 22.2123 13.6015 22.4975 13.6015C22.878 13.5987 23.242 13.4455 23.5101 13.1754C23.7783 12.9053 23.9287 12.5401 23.9287 12.1595H23.9392ZM28.8383 12.1595C28.8376 11.8751 28.7526 11.5973 28.5942 11.3612C28.4357 11.1251 28.2109 10.9413 27.948 10.8329C27.6851 10.7246 27.3961 10.6966 27.1173 10.7525C26.8385 10.8084 26.5826 10.9457 26.3818 11.147C26.181 11.3483 26.0444 11.6046 25.9892 11.8836C25.934 12.1625 25.9627 12.4516 26.0716 12.7143C26.1806 12.9769 26.3649 13.2014 26.6014 13.3593C26.8378 13.5172 27.1157 13.6015 27.4 13.6015C27.7781 13.595 28.1386 13.4403 28.4037 13.1705C28.6688 12.9008 28.8173 12.5377 28.8173 12.1595H28.8383Z" fill="#989696"/>
</svg>
