<svg width="22" height="23" viewBox="0 0 22 23" fill="none" xmlns="http://www.w3.org/2000/svg">
<path d="M22 11.6957C22 12.6406 22 13.5854 22 14.4627C22 15.0364 21.7058 15.5425 21.2481 15.8462C21.1501 15.9137 21.0193 15.9812 20.9212 16.0487C20.7251 19.6256 17.8811 22.3926 14.416 22.4264H13.8603C13.6642 22.7975 13.3046 23 12.9123 23H10.7875C10.1664 23 9.67608 22.4938 9.67608 21.8527V20.6379C9.67608 19.9968 10.1664 19.4906 10.7875 19.4906H12.9123C13.3046 19.4906 13.6642 19.7268 13.8603 20.0643H14.416C16.6389 20.0643 18.5022 18.3096 18.6657 16.015C18.4042 15.8125 18.208 15.5088 18.11 15.1714C18.0119 14.9014 17.9792 14.6315 17.9792 14.3615C17.9792 13.5516 17.9792 12.6743 17.9792 11.7632C17.9792 11.4933 18.0119 11.2233 18.11 10.9871C18.2407 10.4472 18.633 10.0423 19.156 9.87353V9.73856C19.156 9.40111 19.1233 9.06367 19.0579 8.72623C18.3715 4.5757 14.6122 1.7412 10.5587 2.34859C8.53195 2.61854 6.66865 3.76584 5.49183 5.4868C5.13224 5.99296 4.44577 6.12793 3.95542 5.79049C3.46508 5.41931 3.33432 4.71068 3.66122 4.20452C3.66122 4.17077 3.69391 4.17077 3.69391 4.13703C3.82467 3.93457 3.98811 3.7321 4.15156 3.56338C6.66865 0.593897 9.83952 -0.51966 13.5988 0.222711C15.6582 0.593897 17.4562 1.67371 18.8291 3.25968C20.5617 5.1831 21.477 7.74765 21.3789 10.346C21.7712 10.6834 22 11.1558 22 11.6957ZM12.2585 17.466H7.1263L5.42645 19.2207C5.13224 19.5244 4.67459 19.5244 4.41308 19.2207C4.28232 19.0857 4.18425 18.8832 4.18425 18.6808V17.466H1.8633C0.849926 17.466 0 16.6224 0 15.5425V9.60358C0 8.55751 0.817236 7.68016 1.8633 7.68016H12.2585C13.2719 7.68016 14.1218 8.52377 14.1218 9.60358V15.5425C14.1218 16.6224 13.2719 17.466 12.2585 17.466ZM4.11887 12.5731C4.11887 12.1006 3.75929 11.7295 3.30163 11.7295C2.84398 11.7295 2.4844 12.1006 2.4844 12.5731C2.4844 13.0455 2.84398 13.4167 3.30163 13.4167C3.75929 13.4167 4.11887 13.0455 4.11887 12.5731ZM6.60327 12.5731C6.60327 12.1006 6.24369 11.7295 5.78603 11.7295C5.32838 11.7295 4.9688 12.1006 4.9688 12.5731C4.9688 13.0455 5.32838 13.4167 5.78603 13.4167C6.24369 13.4167 6.63596 13.0455 6.60327 12.5731ZM9.12036 12.5731C9.12036 12.1006 8.76077 11.7295 8.30312 11.7295C7.84547 11.7295 7.48588 12.1006 7.48588 12.5731C7.48588 13.0455 7.84547 13.4167 8.30312 13.4167C8.76077 13.4167 9.12036 13.0455 9.12036 12.5731ZM11.6048 12.5731C11.6048 12.1006 11.2452 11.7295 10.7875 11.7295C10.3299 11.7295 9.97028 12.1006 9.97028 12.5731C9.97028 13.0455 10.3299 13.4167 10.7875 13.4167C11.2452 13.4167 11.6048 13.0455 11.6048 12.5731Z" fill="#071D49"/>
</svg>
