<svg width="147" height="109" viewBox="0 0 147 109" fill="none" xmlns="http://www.w3.org/2000/svg">
<path d="M4.55108 0C1.82043 0 0 2.28033 0 4.56067V30.1004V47.887V103.983C0 106.72 1.82043 108.544 4.55108 108.544H142.449C145.18 108.544 147 106.72 147 103.983V48.3431V30.1004V4.56067C147 1.82427 145.18 0 142.449 0H4.55108ZM9.10217 9.12134H137.898V25.5397H9.10217V9.12134ZM9.10217 35.1172H137.898V43.7824H9.10217V35.1172ZM9.10217 52.9038H137.898V99.8787H9.10217V52.9038ZM22.3003 65.6736C19.5697 65.6736 17.7492 67.954 17.7492 70.6904C17.7492 73.4268 20.0248 75.251 22.7554 75.251H55.0681C57.7988 75.251 59.6192 72.9707 59.6192 70.6904C59.6192 67.954 57.3437 66.1297 55.0681 66.1297H22.3003C22.7554 65.6736 22.3003 65.6736 22.3003 65.6736ZM22.7554 79.3556C20.0248 79.3556 18.2043 81.636 18.2043 83.9163C18.2043 86.1967 20.0248 88.477 22.7554 88.477H36.4087C39.1393 88.477 40.9598 86.1967 40.9598 83.9163C40.9598 81.636 39.1393 79.3556 36.4087 79.3556H22.7554Z" fill="#002C6A"/>
<path d="M112.412 60.2009C109.226 60.2009 106.495 61.113 103.765 62.4812C101.034 61.113 98.3033 60.2009 95.1176 60.2009C86.0154 60.2009 78.2786 67.954 78.2786 77.0753C78.2786 86.1967 86.0154 93.9498 95.1176 93.9498C98.3033 93.9498 101.034 93.0377 103.765 91.6695C106.495 93.0377 109.226 93.9498 112.412 93.9498C121.514 93.9498 129.251 86.1967 129.251 77.0753C129.251 67.954 121.969 60.2009 112.412 60.2009ZM96.4829 80.2678C96.4829 80.7239 96.4829 80.7239 96.938 81.1799C97.3931 82.0921 97.3931 83.0042 97.8482 83.4603C97.8482 83.4603 97.8482 83.4603 97.8482 83.9163C97.3931 83.9163 96.4829 84.3724 95.5727 84.3724C91.4767 84.3724 88.2909 81.1799 88.2909 77.0753C88.2909 72.9707 91.4767 69.7783 95.5727 69.7783C96.4829 69.7783 96.938 69.7783 97.8482 70.2343C97.8482 70.2343 97.8482 70.2343 97.8482 70.6904C97.3931 71.6025 97.3931 72.5147 96.938 72.9707C96.938 73.4268 96.938 73.4268 96.4829 73.8829C96.0278 75.2511 96.0278 76.1632 96.0278 77.5314C96.0278 78.8996 96.0278 79.3557 96.4829 80.2678ZM112.412 84.3724C110.591 84.3724 108.771 83.4603 107.406 82.5481C107.406 82.5481 107.406 82.5481 107.406 82.0921C106.495 81.1799 105.585 79.8117 105.585 78.4435C105.585 77.9875 105.585 77.5314 105.585 77.0753C105.585 75.2511 106.495 73.4268 107.861 72.0586C109.226 70.6904 111.046 70.2343 112.867 70.2343C116.963 70.2343 120.149 73.4268 120.149 77.5314C120.149 81.636 116.963 84.3724 112.412 84.3724Z" fill="#B1CF22"/>
</svg>
