<svg width="60" height="60" viewBox="0 0 60 60" fill="none" xmlns="http://www.w3.org/2000/svg">
<path d="M7.50698 33.2608V23.0157C6.54197 22.0505 5.97301 21.398 5.97301 21.398L7.50698 16.9495C7.50698 16.9495 18.2281 14 24.364 14C35.0962 14 36.6358 24.3691 36.6358 24.3691L33.5678 31.7833C33.5678 31.7833 32.0729 33.2122 24.7377 33.2608H38.1586V19.926C38.1593 19.5365 38.2394 19.151 38.3943 18.7915C38.5491 18.4319 38.7757 18.1054 39.0611 17.8305C39.3465 17.5556 39.6851 17.3378 40.0576 17.1894C40.4301 17.041 40.8292 16.965 41.2321 16.9657H47.368C49.0414 16.9657 49.9228 17.4672 50.4304 18.4377L55.0435 27.3402V31.7833V36.2318V39.1867C55.0435 39.5805 54.882 39.9582 54.5945 40.2372C54.307 40.5161 53.9168 40.6736 53.5095 40.675H48.9076C48.9076 42.2481 48.2611 43.7567 47.1104 44.8691C45.9597 45.9814 44.399 46.6063 42.7717 46.6063C41.1443 46.6063 39.5836 45.9814 38.4329 44.8691C37.2822 43.7567 36.6358 42.2481 36.6358 40.675H24.364C24.364 42.2481 23.7175 43.7567 22.5668 44.8691C21.4161 45.9814 19.8554 46.6063 18.2281 46.6063C16.6007 46.6063 15.04 45.9814 13.8893 44.8691C12.7386 43.7567 12.0922 42.2481 12.0922 40.675H7.49025C7.0829 40.6736 6.69274 40.5161 6.40523 40.2372C6.11771 39.9582 5.95627 39.5805 5.95628 39.1867V34.7436C5.95626 34.5475 5.99649 34.3534 6.07462 34.1724C6.15276 33.9914 6.26725 33.8272 6.41147 33.6893C6.55569 33.5514 6.72677 33.4425 6.91482 33.369C7.10286 33.2954 7.30414 33.2586 7.50698 33.2608ZM48.9076 21.4088C48.5338 20.6863 48.2326 19.926 47.3847 19.926H42.7717C42.3643 19.926 41.9736 20.082 41.685 20.36C41.3964 20.6379 41.2336 21.015 41.2321 21.4088V25.852C41.2336 26.2462 41.3963 26.6239 41.6847 26.9027C41.9731 27.1815 42.3638 27.3388 42.7717 27.3402H51.9644L48.9076 21.4088ZM42.7717 43.6353C43.3784 43.6342 43.9713 43.4592 44.4752 43.1325C44.9791 42.8057 45.3714 42.3418 45.6026 41.7995C45.8338 41.2572 45.8934 40.6608 45.774 40.0857C45.6545 39.5106 45.3613 38.9827 44.9315 38.5687C44.5017 38.1547 43.9545 37.8732 43.3591 37.7598C42.7638 37.6465 42.147 37.7063 41.5869 37.9317C41.0267 38.1572 40.5483 38.5381 40.2121 39.0264C39.8759 39.5147 39.697 40.0884 39.6981 40.675C39.6974 41.0648 39.7765 41.451 39.9308 41.8112C40.0851 42.1714 40.3117 42.4985 40.5974 42.7736C40.8831 43.0488 41.2223 43.2666 41.5954 43.4145C41.9686 43.5624 42.3684 43.6374 42.7717 43.6353V43.6353ZM12.0922 27.1892C13.007 30.376 13.5983 33.2176 13.6094 33.2608H24.2691C20.3979 33.2068 15.757 30.1765 12.0922 27.1892V27.1892ZM18.2281 43.6353C18.8356 43.6374 19.43 43.4652 19.9361 43.1403C20.4422 42.8155 20.8372 42.3528 21.071 41.8108C21.3047 41.2687 21.3667 40.6718 21.2492 40.0957C21.1316 39.5195 20.8397 38.9901 20.4106 38.5745C19.9814 38.1588 19.4342 37.8757 18.8384 37.761C18.2426 37.6463 17.625 37.7052 17.0639 37.9302C16.5027 38.1552 16.0233 38.5361 15.6864 39.0248C15.3495 39.5134 15.1702 40.0877 15.1713 40.675C15.1727 41.4587 15.4951 42.21 16.0679 42.7647C16.6407 43.3194 17.4173 43.6324 18.2281 43.6353V43.6353Z" fill="#989696"/>
</svg>
