<svg width="32" height="32" viewBox="0 0 32 32" fill="none" xmlns="http://www.w3.org/2000/svg">
<g clip-path="url(#clip0_1349_27486)">
<path fill-rule="evenodd" clip-rule="evenodd" d="M10.9214 7.12275C10.9214 5.7739 12.0222 4.68262 13.3757 4.68262H19.2351C20.5886 4.68262 21.6893 5.7739 21.6893 7.12275V7.59345H27.0414C27.2957 7.59345 27.5605 7.79638 27.5302 8.10783V9.06945C27.5302 9.33928 27.3114 9.56903 27.029 9.56903H24.6067V24.5754C24.6067 25.9243 23.5059 27.0156 22.1524 27.0156H10.4398C9.0863 27.0156 7.98553 25.9243 7.98553 24.5754V9.55675H5.56315C5.29567 9.55675 5.06201 9.3418 5.06201 9.05717V8.08689C5.06201 7.81705 5.28078 7.58731 5.56315 7.58731H10.9214V7.12275ZM13.3757 6.6582C13.116 6.6582 12.9064 6.86881 12.9064 7.12275V7.58731H19.7043V7.12275C19.7043 6.86881 19.4948 6.6582 19.2351 6.6582H13.3757ZM9.97673 9.56903V24.5816C9.97673 24.8355 10.1863 25.0461 10.446 25.0461H22.1648C22.4245 25.0461 22.634 24.8355 22.634 24.5816V9.56903H9.97673ZM12.3924 12.4593C12.3924 12.1895 12.6111 11.9597 12.8935 11.9597H13.8701C14.1375 11.9597 14.3712 12.1747 14.3712 12.4593V22.1621C14.3712 22.4319 14.1524 22.6617 13.8701 22.6617H12.8935C12.626 22.6617 12.3924 22.4467 12.3924 22.1621V12.4593ZM15.3159 12.4593C15.3159 12.1895 15.5347 11.9597 15.8171 11.9597H16.7936C17.0611 11.9597 17.2948 12.1747 17.2948 12.4593V22.1621C17.2948 22.4319 17.076 22.6617 16.7936 22.6617H15.8171C15.5496 22.6617 15.3159 22.4467 15.3159 22.1621V12.4593ZM18.2456 12.4593C18.2456 12.1895 18.4643 11.9597 18.7467 11.9597H19.7233C19.9908 11.9597 20.2244 12.1747 20.2244 12.4593V22.1621C20.2244 22.4319 20.0056 22.6617 19.7233 22.6617H18.7467C18.4792 22.6617 18.2456 22.4467 18.2456 22.1621V12.4593Z" fill="#00C389"/>
</g>
<defs>
<clipPath id="clip0_1349_27486">
<rect width="22.8875" height="22.8875" fill="white" transform="translate(4.95117 4.37158)"/>
</clipPath>
</defs>
</svg>
