<svg width="38" height="38" viewBox="0 0 38 38" fill="none" xmlns="http://www.w3.org/2000/svg">
<path d="M31.421 10.6753C31.112 10.0575 30.5559 9.74854 29.5055 9.74854H25.7365C25.4894 9.74854 25.2422 9.81032 24.9951 9.87211C24.7479 9.9339 24.5625 10.1193 24.3772 10.2428C24.1918 10.3664 24.0682 10.6136 23.9447 10.8607C23.8211 11.1079 23.8211 11.2932 23.8211 11.5404V19.7581H23.265H15.5416H15.2326H8.68316H4.91412C4.79054 19.7581 4.66697 19.7581 4.54339 19.8199C4.41982 19.8817 4.29624 19.9435 4.23445 20.0053C4.17267 20.067 4.04909 20.1906 4.04909 20.3142C3.9873 20.5613 3.9873 20.6231 3.9873 20.7467V23.4654C3.9873 23.7125 4.11088 23.9597 4.23445 24.145C4.41982 24.3304 4.66697 24.3922 4.91412 24.3922H7.75634C7.75634 25.3808 8.12707 26.3076 8.86852 26.9872C9.60997 27.6669 10.5368 28.0376 11.5254 28.0376C12.514 28.0376 13.5026 27.6669 14.1822 26.9872C14.9237 26.3076 15.2944 25.3808 15.2944 24.3922H22.8943C22.8943 25.3808 23.265 26.3076 24.0065 26.9872C24.7479 27.6669 25.6747 28.0376 26.6633 28.0376C27.6519 28.0376 28.6405 27.6669 29.3202 26.9872C30.0616 26.3076 30.4324 25.3808 30.4324 24.3922H33.2746C33.5217 24.3922 33.7689 24.2686 33.9542 24.145C34.1396 23.9597 34.2014 23.7125 34.2014 23.4654V21.6117V18.8931V16.1744L31.421 10.6753ZM13.3172 25.1336C13.1936 25.4426 12.9465 25.7515 12.6376 25.9369C12.3286 26.1222 11.9579 26.2458 11.5872 26.2458C11.0929 26.2458 10.5986 26.0604 10.2278 25.6897C9.85712 25.319 9.67175 24.8865 9.67175 24.3922C9.67175 24.0214 9.79533 23.6507 9.98069 23.3418C10.1661 23.0328 10.475 22.7857 10.8457 22.6621C11.2164 22.5385 11.5872 22.4768 11.9579 22.5385C12.3286 22.6003 12.6376 22.7857 12.9465 23.0328C13.1936 23.28 13.379 23.5889 13.4408 23.9597C13.5026 24.454 13.4408 24.8247 13.3172 25.1336ZM28.4552 25.1336C28.3316 25.4426 28.0844 25.7515 27.7755 25.9369C27.4666 26.1222 27.0958 26.2458 26.7251 26.2458C26.478 26.2458 26.2308 26.184 25.9837 26.1222C25.7365 26.0604 25.5511 25.8751 25.3658 25.7515C25.1804 25.5661 25.0568 25.3808 24.9333 25.1336C24.8097 24.8865 24.8097 24.7011 24.8097 24.454C24.8097 24.0832 24.9333 23.7125 25.1186 23.4654C25.304 23.1564 25.6129 22.9093 25.9837 22.7857C26.3544 22.6621 26.7251 22.6003 27.0958 22.6621C27.4666 22.7239 27.7755 22.9093 28.0844 23.1564C28.3316 23.4036 28.5169 23.7125 28.5787 24.0832C28.6405 24.454 28.5787 24.8247 28.4552 25.1336ZM26.7251 16.1744C26.478 16.1744 26.2308 16.0509 26.0454 15.9273C25.8601 15.8037 25.7365 15.4948 25.7365 15.2476V12.529C25.7365 12.2818 25.8601 12.0347 26.0454 11.9111C26.2308 11.7257 26.478 11.6639 26.7251 11.6639H29.5673C30.0616 11.6639 30.247 12.1582 30.4941 12.5908L32.4096 16.2362H26.7251V16.1744Z" fill="#00C389"/>
</svg>
