<svg width="60" height="60" viewBox="0 0 60 60" fill="none" xmlns="http://www.w3.org/2000/svg">
<path d="M27.7911 14.1911C27.7911 14.7092 27.0252 14.7092 27.0252 14.1911C27.0252 12.5095 27.5039 10.9745 28.2601 9.86978C29.9737 7.37674 32.8169 7.37674 34.5304 9.86978C35.7941 11.698 36.0908 14.367 35.4207 16.6254C35.2771 17.1143 34.5496 16.8894 34.6932 16.4006C35.2963 14.3866 35.0282 11.9522 33.9082 10.3195C32.501 8.27619 30.2992 8.27619 28.8919 10.3195C28.2123 11.2972 27.7911 12.6659 27.7911 14.1911ZM34.0901 21.7582C34.339 21.3182 35.0091 21.7093 34.7506 22.1492L28.7005 32.8449C28.4516 33.2848 27.7815 32.8938 28.04 32.4538L34.0901 21.7582ZM34.7985 29.0027C36.445 29.4524 36.9333 31.7499 35.3154 32.8058C34.8559 33.1089 34.2337 33.1675 33.7455 33.0307C32.0989 32.5809 31.6107 30.2932 33.2285 29.2275C33.6785 28.9245 34.3007 28.8658 34.7985 29.0027ZM35.3824 30.3812C35.3729 30.3616 35.3633 30.3519 35.3537 30.3323C35.057 29.7653 34.1954 29.5306 33.6593 29.863C33.3338 30.0683 33.1328 30.303 33.0371 30.6745C32.7403 31.7988 33.9273 32.7178 34.9038 32.141C35.5069 31.7792 35.7175 30.9971 35.3824 30.3812ZM29.0643 21.5822C30.8065 22.0613 31.132 24.4663 29.5525 25.3951C27.9825 26.3239 26.0966 24.8378 26.5657 23.0487C26.8529 21.9439 27.9729 21.2889 29.0643 21.5822ZM29.6386 22.9412C29.0834 21.9439 27.5996 22.1297 27.3028 23.254C27.0061 24.3783 28.1931 25.2973 29.1696 24.7205C29.7822 24.3685 29.9928 23.5669 29.6386 22.9412ZM23.981 34.5363C26.1158 34.6047 27.6283 35.8854 29.3227 37.3324C29.4759 37.4595 29.6386 37.5963 29.7918 37.7332H38.8V22.1004L34.5304 18.4928C33.7838 19.578 32.6924 20.3699 31.3905 20.3699C30.8831 20.3699 30.8831 19.5878 31.3905 19.5878C32.4531 19.5878 33.3434 18.8936 33.9369 17.9844L31.3905 15.8335L23.9714 22.2666V34.5363H23.981ZM14.9632 37.4008H11.8711C11.3638 37.4008 11 37.8896 11 38.4176V49.5043C11 50.0322 11.3733 50.5211 11.8711 50.5211H14.9632C15.4706 50.5211 15.8344 50.0322 15.8344 49.5043V38.4176C15.8344 37.8896 15.4706 37.4008 14.9632 37.4008ZM23.9523 41.595C23.5119 41.3408 23.8853 40.6662 24.3256 40.9204C26.4604 42.1327 28.3559 42.9833 29.9928 43.4623C31.6011 43.9316 32.97 44.0392 34.0901 43.785C35.4973 43.4721 36.0334 41.9078 34.3007 41.3799C32.1468 40.7053 30.3375 39.2193 28.8441 37.9483C25.8765 35.4259 23.5598 33.4608 16.6002 38.6229V49.2403C19.453 48.9568 22.3057 49.7878 25.1489 50.6091C29.3706 51.8409 33.5732 53.063 37.6034 50.4624C40.9922 48.2724 45.0895 44.0196 47.4061 40.7249C49.2442 38.1145 46.468 36.3058 43.8163 38.3198L37.096 43.4134C36.5025 43.8632 35.9568 44.1858 35.4782 44.3716C34.9708 44.5769 34.5304 44.6355 34.1762 44.5671C32.9509 44.8311 31.4862 44.7137 29.7918 44.2249C28.0878 43.7165 26.1445 42.8464 23.9523 41.595Z" fill="#989696"/>
</svg>
