<svg width="21" height="29" viewBox="0 0 21 29" fill="none" xmlns="http://www.w3.org/2000/svg">
<path d="M5.41372 10.7283C5.51305 10.8276 5.61239 10.8773 5.76139 10.8773H5.81106C5.96006 10.8773 6.10907 10.7779 6.15873 10.6289L7.7481 8.14554C7.89711 7.8972 7.84744 7.5992 7.5991 7.45019C7.35076 7.30119 7.05275 7.35086 6.90375 7.5992L5.66206 9.58591L4.91704 8.89056C4.71837 8.74156 4.37069 8.74156 4.22169 8.98989C4.07269 9.18857 4.07269 9.48657 4.27136 9.63558L5.41372 10.7283Z" fill="white"/>
<path d="M5.41372 16.8374C5.51305 16.9367 5.61239 16.9864 5.76139 16.9864H5.81106C5.96006 16.9864 6.10907 16.8871 6.15873 16.7381L7.7481 14.2547C7.89711 14.0063 7.84744 13.7083 7.5991 13.5593C7.35076 13.4103 7.05275 13.46 6.90375 13.7083L5.66206 15.695L4.91704 14.9997C4.71837 14.8507 4.37069 14.8507 4.22169 15.099C4.07269 15.2977 4.07269 15.5957 4.27136 15.7447L5.41372 16.8374Z" fill="white"/>
<path d="M5.41382 22.6982C5.51316 22.7975 5.6125 22.8472 5.7615 22.8472H5.81117C5.96017 22.8472 6.10917 22.7479 6.15884 22.5989L7.74821 20.1155C7.89721 19.8671 7.84755 19.5691 7.59921 19.4201C7.35087 19.2711 7.05286 19.3208 6.90386 19.5691L5.66216 21.5558L4.86748 20.8605C4.66881 20.7115 4.32113 20.7115 4.17213 20.9598C4.02313 21.1585 4.02313 21.4565 4.2218 21.6055L5.41382 22.6982Z" fill="white"/>
<path d="M17.8804 2.48339H12.9136C12.9136 1.09269 11.8209 0 10.4302 0C9.03954 0 7.94685 1.09269 7.94685 2.48339H2.98007C1.34103 2.48339 0 3.82442 0 5.46346V25.8272C0 27.4663 1.34103 28.8073 2.98007 28.8073H17.8804C19.5194 28.8073 20.8605 27.4663 20.8605 25.8272V5.46346C20.8605 3.82442 19.5194 2.48339 17.8804 2.48339ZM5.76146 5.36412C5.91047 6.0098 6.45681 6.45681 7.10249 6.45681H13.758C14.4037 6.45681 14.95 6.0098 15.099 5.36412H17.2844C17.5824 5.36412 17.8804 5.61246 17.8804 5.96013V25.3306C17.8804 25.6286 17.6321 25.9266 17.2844 25.9266H3.57608C3.27807 25.9266 2.98007 25.6782 2.98007 25.3306V5.96013C2.98007 5.66213 3.22841 5.36412 3.57608 5.36412H5.76146ZM8.49319 3.47674H8.54286H8.59253H8.64219C8.69186 3.47674 8.69186 3.42708 8.74153 3.42708C8.84087 3.37741 8.9402 3.27807 8.9402 3.12907C8.9402 3.0794 8.9402 3.0794 8.9402 3.02973C8.9402 3.02973 8.9402 3.02973 8.9402 2.98007V2.9304V2.88073C8.9402 2.73173 8.9402 2.63239 8.9402 2.48339C8.9402 1.63904 9.58588 0.993356 10.4302 0.993356C11.2746 0.993356 11.9203 1.63904 11.9203 2.48339C11.9203 2.58272 11.9203 2.73173 11.8706 2.83106V2.88073V2.9304C11.8706 2.9304 11.8706 2.9304 11.8706 2.98007C11.8706 3.02973 11.8706 3.02973 11.8706 3.0794C11.8706 3.12907 11.8706 3.12907 11.9203 3.17874C11.9699 3.27807 12.0693 3.37741 12.2183 3.42708H12.2679C12.3176 3.42708 12.3673 3.42708 12.4169 3.42708H14.205V5.01645C14.205 5.21512 14.056 5.41379 13.8076 5.41379H7.10249C6.90382 5.41379 6.70515 5.26478 6.70515 5.01645V3.47674H8.49319ZM19.8671 25.8272C19.8671 26.9199 18.9731 27.814 17.8804 27.814H2.98007C1.88738 27.814 0.993356 26.9199 0.993356 25.8272V5.46346C0.993356 4.37076 1.88738 3.47674 2.98007 3.47674H5.71179V4.37076H3.57608C2.68206 4.37076 1.98671 5.06611 1.98671 5.96013V25.3306C1.98671 26.2246 2.68206 26.9199 3.57608 26.9199H17.3341C18.2281 26.9199 18.9234 26.2246 18.9234 25.3306V5.96013C18.9234 5.06611 18.2281 4.37076 17.3341 4.37076H15.1983V3.47674H17.8804C18.9731 3.47674 19.8671 4.37076 19.8671 5.46346V25.8272Z" fill="white"/>
<path d="M8.94016 15.8937H16.3903C16.6883 15.8937 16.887 15.695 16.887 15.397C16.887 15.099 16.6883 14.9004 16.3903 14.9004H8.94016C8.64215 14.9004 8.44348 15.099 8.44348 15.397C8.44348 15.695 8.64215 15.8937 8.94016 15.8937Z" fill="white"/>
<path d="M8.94016 9.93357H16.3903C16.6883 9.93357 16.887 9.7349 16.887 9.43689C16.887 9.13889 16.6883 8.94022 16.3903 8.94022H8.94016C8.64215 8.94022 8.44348 9.13889 8.44348 9.43689C8.44348 9.7349 8.64215 9.93357 8.94016 9.93357Z" fill="white"/>
<path d="M16.3904 10.9269H12.9137C12.6157 10.9269 12.417 11.1256 12.417 11.4236C12.417 11.7216 12.6157 11.9203 12.9137 11.9203H16.3904C16.6884 11.9203 16.8871 11.7216 16.8871 11.4236C16.8871 11.1256 16.6884 10.9269 16.3904 10.9269Z" fill="white"/>
<path d="M16.3904 16.8871H12.9137C12.6157 16.8871 12.417 17.0857 12.417 17.3837C12.417 17.6818 12.6157 17.8804 12.9137 17.8804H16.3904C16.6884 17.8804 16.8871 17.6818 16.8871 17.3837C16.8871 17.0857 16.6884 16.8871 16.3904 16.8871Z" fill="white"/>
<path d="M16.3904 22.8472H12.9137C12.6157 22.8472 12.417 23.0459 12.417 23.3439C12.417 23.6419 12.6157 23.8406 12.9137 23.8406H16.3904C16.6884 23.8406 16.8871 23.6419 16.8871 23.3439C16.8871 23.0459 16.6884 22.8472 16.3904 22.8472Z" fill="white"/>
<path d="M8.94016 21.8538H16.3903C16.6883 21.8538 16.887 21.6552 16.887 21.3572C16.887 21.0592 16.6883 20.8605 16.3903 20.8605H8.94016C8.64215 20.8605 8.44348 21.0592 8.44348 21.3572C8.44348 21.6552 8.64215 21.8538 8.94016 21.8538Z" fill="white"/>
</svg>
