<svg width="21" height="29" viewBox="0 0 21 29" fill="none" xmlns="http://www.w3.org/2000/svg">
<path d="M5.41369 10.7283C5.51303 10.8276 5.61237 10.8773 5.76137 10.8773H5.81104C5.96004 10.8773 6.10904 10.7779 6.15871 10.6289L7.74808 8.14554C7.89708 7.8972 7.84742 7.5992 7.59908 7.45019C7.35074 7.30119 7.05273 7.35086 6.90373 7.5992L5.66203 9.58591L4.91702 8.89056C4.71834 8.74156 4.37067 8.74156 4.22167 8.98989C4.07266 9.18857 4.07266 9.48657 4.27134 9.63558L5.41369 10.7283Z" fill="#C4C4C4"/>
<path d="M5.41369 16.8374C5.51303 16.9367 5.61237 16.9864 5.76137 16.9864H5.81104C5.96004 16.9864 6.10904 16.8871 6.15871 16.7381L7.74808 14.2547C7.89708 14.0063 7.84742 13.7083 7.59908 13.5593C7.35074 13.4103 7.05273 13.46 6.90373 13.7083L5.66203 15.695L4.91702 14.9997C4.71834 14.8507 4.37067 14.8507 4.22167 15.099C4.07266 15.2977 4.07266 15.5957 4.27134 15.7447L5.41369 16.8374Z" fill="#C4C4C4"/>
<path d="M5.41372 22.6982C5.51305 22.7975 5.61239 22.8472 5.76139 22.8472H5.81106C5.96006 22.8472 6.10907 22.7479 6.15873 22.5989L7.7481 20.1155C7.89711 19.8671 7.84744 19.5691 7.5991 19.4201C7.35076 19.2711 7.05275 19.3208 6.90375 19.5691L5.66206 21.5558L4.86737 20.8605C4.6687 20.7115 4.32103 20.7115 4.17202 20.9598C4.02302 21.1585 4.02302 21.4565 4.22169 21.6055L5.41372 22.6982Z" fill="#C4C4C4"/>
<path d="M17.8803 2.48339H12.9136C12.9136 1.09269 11.8209 0 10.4302 0C9.03948 0 7.94678 1.09269 7.94678 2.48339H2.98001C1.34097 2.48339 -6.10352e-05 3.82442 -6.10352e-05 5.46346V25.8272C-6.10352e-05 27.4663 1.34097 28.8073 2.98001 28.8073H17.8803C19.5194 28.8073 20.8604 27.4663 20.8604 25.8272V5.46346C20.8604 3.82442 19.5194 2.48339 17.8803 2.48339ZM5.7614 5.36412C5.91041 6.0098 6.45675 6.45681 7.10243 6.45681H13.7579C14.4036 6.45681 14.9499 6.0098 15.0989 5.36412H17.2843C17.5823 5.36412 17.8803 5.61246 17.8803 5.96013V25.3306C17.8803 25.6286 17.632 25.9266 17.2843 25.9266H3.57602C3.27801 25.9266 2.98001 25.6782 2.98001 25.3306V5.96013C2.98001 5.66213 3.22835 5.36412 3.57602 5.36412H5.7614ZM8.49313 3.47674H8.5428H8.59246H8.64213C8.6918 3.47674 8.6918 3.42708 8.74147 3.42708C8.8408 3.37741 8.94014 3.27807 8.94014 3.12907C8.94014 3.0794 8.94014 3.0794 8.94014 3.02973C8.94014 3.02973 8.94014 3.02973 8.94014 2.98007V2.9304V2.88073C8.94014 2.73173 8.94014 2.63239 8.94014 2.48339C8.94014 1.63904 9.58582 0.993356 10.4302 0.993356C11.2745 0.993356 11.9202 1.63904 11.9202 2.48339C11.9202 2.58272 11.9202 2.73173 11.8705 2.83106V2.88073V2.9304C11.8705 2.9304 11.8705 2.9304 11.8705 2.98007C11.8705 3.02973 11.8705 3.02973 11.8705 3.0794C11.8705 3.12907 11.8705 3.12907 11.9202 3.17874C11.9699 3.27807 12.0692 3.37741 12.2182 3.42708H12.2679C12.3175 3.42708 12.3672 3.42708 12.4169 3.42708H14.2049V5.01645C14.2049 5.21512 14.0559 5.41379 13.8076 5.41379H7.10243C6.90376 5.41379 6.70509 5.26479 6.70509 5.01645V3.47674H8.49313ZM19.8671 25.8272C19.8671 26.9199 18.973 27.814 17.8803 27.814H2.98001C1.88731 27.814 0.993295 26.9199 0.993295 25.8272V5.46346C0.993295 4.37076 1.88731 3.47674 2.98001 3.47674H5.71173V4.37076H3.57602C2.682 4.37076 1.98665 5.06611 1.98665 5.96013V25.3306C1.98665 26.2246 2.682 26.9199 3.57602 26.9199H17.334C18.228 26.9199 18.9234 26.2246 18.9234 25.3306V5.96013C18.9234 5.06611 18.228 4.37076 17.334 4.37076H15.1983V3.47674H17.8803C18.973 3.47674 19.8671 4.37076 19.8671 5.46346V25.8272Z" fill="#C4C4C4"/>
<path d="M8.94013 15.8937H16.3903C16.6883 15.8937 16.887 15.695 16.887 15.397C16.887 15.099 16.6883 14.9004 16.3903 14.9004H8.94013C8.64212 14.9004 8.44345 15.099 8.44345 15.397C8.44345 15.695 8.64212 15.8937 8.94013 15.8937Z" fill="#C4C4C4"/>
<path d="M8.94013 9.93357H16.3903C16.6883 9.93357 16.887 9.7349 16.887 9.43689C16.887 9.13889 16.6883 8.94022 16.3903 8.94022H8.94013C8.64212 8.94022 8.44345 9.13889 8.44345 9.43689C8.44345 9.7349 8.64212 9.93357 8.94013 9.93357Z" fill="#C4C4C4"/>
<path d="M16.3903 10.9269H12.9136C12.6156 10.9269 12.4169 11.1256 12.4169 11.4236C12.4169 11.7216 12.6156 11.9203 12.9136 11.9203H16.3903C16.6883 11.9203 16.887 11.7216 16.887 11.4236C16.887 11.1256 16.6883 10.9269 16.3903 10.9269Z" fill="#C4C4C4"/>
<path d="M16.3903 16.8871H12.9136C12.6156 16.8871 12.4169 17.0857 12.4169 17.3837C12.4169 17.6818 12.6156 17.8804 12.9136 17.8804H16.3903C16.6883 17.8804 16.887 17.6818 16.887 17.3837C16.887 17.0857 16.6883 16.8871 16.3903 16.8871Z" fill="#C4C4C4"/>
<path d="M16.3903 22.8472H12.9136C12.6156 22.8472 12.4169 23.0459 12.4169 23.3439C12.4169 23.6419 12.6156 23.8406 12.9136 23.8406H16.3903C16.6883 23.8406 16.887 23.6419 16.887 23.3439C16.887 23.0459 16.6883 22.8472 16.3903 22.8472Z" fill="#C4C4C4"/>
<path d="M8.94013 21.8538H16.3903C16.6883 21.8538 16.887 21.6552 16.887 21.3572C16.887 21.0592 16.6883 20.8605 16.3903 20.8605H8.94013C8.64212 20.8605 8.44345 21.0592 8.44345 21.3572C8.44345 21.6552 8.64212 21.8538 8.94013 21.8538Z" fill="#C4C4C4"/>
</svg>
