<svg width="28" height="27" viewBox="0 0 28 27" fill="none" xmlns="http://www.w3.org/2000/svg">
<path d="M11.5309 15.9325C11.6389 15.9325 11.7469 15.8785 11.8279 15.7975C11.9089 15.7165 11.9629 15.6085 11.9629 15.5005C11.9629 15.3925 11.9089 15.2845 11.8279 15.2035L11.3689 14.7445L11.8279 14.2855C11.9089 14.2045 11.9629 14.0965 11.9629 13.9885C11.9629 13.8805 11.9089 13.7725 11.8279 13.6915C11.7469 13.6105 11.6389 13.5565 11.5309 13.5565C11.4229 13.5565 11.3149 13.6105 11.2339 13.6915L10.7749 14.1505L10.3159 13.6915C10.2349 13.6105 10.1269 13.5565 10.0189 13.5565C9.91091 13.5565 9.80291 13.6105 9.72191 13.6915C9.64091 13.7725 9.58691 13.8805 9.58691 13.9885C9.58691 14.0965 9.64091 14.2045 9.72191 14.2855L10.1809 14.7445L9.72191 15.2035C9.64091 15.2845 9.58691 15.3925 9.58691 15.5005C9.58691 15.6085 9.64091 15.7165 9.72191 15.7975C9.80291 15.8785 9.91091 15.9325 10.0189 15.9325C10.1269 15.9325 10.2349 15.8785 10.3159 15.7975L10.7749 15.3385L11.2339 15.7975C11.3149 15.9055 11.4229 15.9325 11.5309 15.9325Z" fill="#071D49"/>
<path d="M13.3406 19.0115C13.2596 18.9845 13.1786 18.9575 13.0976 18.9845C13.0166 19.0115 12.9356 19.0385 12.8816 19.0925C12.8006 19.1735 12.7466 19.2815 12.7466 19.3895C12.7466 19.4975 12.8006 19.6055 12.8816 19.6865C12.9356 19.7405 13.0166 19.7945 13.0976 19.7945C13.1786 19.8215 13.2596 19.7945 13.3406 19.7675C13.4216 19.7405 13.5026 19.6865 13.5296 19.6055C13.5836 19.5245 13.6106 19.4435 13.6106 19.3625C13.6106 19.2815 13.5836 19.2005 13.5296 19.1195C13.4756 19.0925 13.4216 19.0385 13.3406 19.0115Z" fill="#071D49"/>
<path d="M22.2791 14.5827L27.005 9.88383L24.0615 6.91328C22.9543 7.88546 21.2799 7.83145 20.2267 6.77826C19.1736 5.72506 19.1195 4.05075 20.0917 2.94355L17.1212 0L12.4223 4.72588L13.7996 6.10313L12.8274 7.07531L11.4501 5.69806L0 17.1212L2.97055 20.0917C4.07776 19.3356 5.59004 19.4436 6.56222 20.4158C7.5344 21.388 7.64242 22.9002 6.88628 24.0075L9.85683 26.978L21.3069 15.5279L19.9027 14.1236L20.8749 13.1514L22.2791 14.5827ZM15.2308 7.5344L16.6351 8.93866L15.6629 9.91084L14.2586 8.50658L15.2308 7.5344ZM17.2292 17.0132C17.1752 17.2022 17.0402 17.3912 16.9051 17.5533C16.7431 17.7153 16.5811 17.8233 16.365 17.8773C16.176 17.9313 15.96 17.9583 15.7439 17.9313C15.5279 17.9043 15.3388 17.8233 15.1768 17.6883C15.0148 17.5533 14.8798 17.3912 14.7987 17.2022L13.7455 18.2554C13.9076 18.3364 14.0696 18.4444 14.2046 18.6065C14.3397 18.7415 14.4207 18.9305 14.4747 19.1195C14.5287 19.3086 14.5287 19.4976 14.5017 19.6867C14.4747 19.8757 14.3937 20.0647 14.2856 20.1997C14.1776 20.3618 14.0426 20.4968 13.8536 20.5778C13.6915 20.6858 13.5025 20.7398 13.3135 20.7398C13.1244 20.7669 12.9354 20.7398 12.7464 20.6588C12.5573 20.6048 12.3953 20.4968 12.2603 20.3618C12.1523 20.2538 12.0712 20.1187 11.9902 19.9837C11.7742 20.1457 11.5041 20.2268 11.2341 20.2268C10.964 20.2268 10.694 20.1457 10.4779 19.9837L9.99185 19.6596L5.29298 16.311L4.8609 16.014L3.88872 16.9862C3.80771 17.0672 3.69969 17.1212 3.59167 17.1212C3.48365 17.1212 3.37563 17.0672 3.29461 16.9862C3.2136 16.9051 3.15959 16.7971 3.15959 16.6891C3.15959 16.5811 3.2136 16.4731 3.29461 16.392L4.53684 15.1498L4.56385 15.1228C4.59085 15.0958 4.61786 15.0958 4.64486 15.0688C4.67187 15.0688 4.69887 15.0418 4.72588 15.0418C4.75288 15.0418 4.77989 15.0148 4.80689 15.0148C4.8339 15.0148 4.8609 15.0148 4.88791 15.0148C4.91491 15.0148 4.94192 15.0148 4.96892 15.0418C4.99593 15.0418 5.02293 15.0688 5.04994 15.0688C5.07694 15.0688 5.07694 15.0688 5.10395 15.0958L5.50902 15.3929L11.045 9.85683C11.1801 9.7218 11.3421 9.61378 11.5041 9.55977C11.6932 9.50576 11.8822 9.47876 12.0442 9.47876C12.2333 9.50576 12.4223 9.55977 12.5843 9.64079C12.7464 9.7218 12.8814 9.85683 13.0164 10.0189L15.3388 13.2595C15.5279 13.5025 15.6089 13.8266 15.5819 14.1236C15.5549 14.4207 15.4199 14.7177 15.2038 14.9338L10.883 19.2546L10.937 19.2816C11.018 19.3356 11.1261 19.3626 11.2341 19.3626C11.3421 19.3626 11.4231 19.3086 11.5041 19.2276L15.96 14.7717C16.041 14.6907 16.149 14.6367 16.257 14.6367C16.365 14.6367 16.4731 14.6907 16.5541 14.7717C16.6351 14.8528 16.6891 14.9608 16.6891 15.0688C16.6891 15.1768 16.6351 15.2848 16.5541 15.3658L16.5001 15.4199C16.6891 15.5009 16.8511 15.6359 16.9861 15.7979C17.1212 15.96 17.2022 16.149 17.2292 16.365C17.3102 16.6081 17.2832 16.8241 17.2292 17.0132ZM18.4984 12.7464L17.0942 11.3421L18.0663 10.3699L19.4706 11.7742L18.4984 12.7464Z" fill="#071D49"/>
<path d="M16.1218 16.203C16.0408 16.176 15.9598 16.149 15.8788 16.176C15.7978 16.203 15.7168 16.23 15.6628 16.284C15.5818 16.365 15.5278 16.473 15.5278 16.581C15.5278 16.689 15.5818 16.797 15.6628 16.878C15.7168 16.932 15.7978 16.986 15.8788 16.986C15.9598 17.013 16.0408 16.986 16.1218 16.959C16.2028 16.932 16.2838 16.878 16.3108 16.797C16.3378 16.716 16.3918 16.635 16.3918 16.554C16.3918 16.473 16.3648 16.392 16.3108 16.311C16.2838 16.311 16.2028 16.257 16.1218 16.203Z" fill="#071D49"/>
</svg>
