<svg width="19" height="19" viewBox="0 0 19 19" fill="none" xmlns="http://www.w3.org/2000/svg">
<path fill-rule="evenodd" clip-rule="evenodd" d="M16.1369 1.59668L17.3472 2.80704C17.9843 3.44408 17.9843 4.46333 17.4109 5.03666L8.49248 13.9551C8.42878 14.0825 8.30137 14.1462 8.17396 14.1462L4.9888 14.7832H4.8614C4.67029 14.7832 4.54288 14.7195 4.35177 14.5921C4.16066 14.4647 4.09696 14.2099 4.16066 14.0188L4.79769 10.8336C4.8614 10.7062 4.9251 10.5788 4.9888 10.5151L13.9073 1.59668C14.5443 1.02335 15.4998 1.02335 16.1369 1.59668ZM5.62584 13.3181L7.72804 12.9359L8.36507 12.2988L6.77249 10.5788L6.07176 11.2796L5.62584 13.3181ZM7.66434 9.68699L9.25692 11.407L14.7991 5.8648L13.1428 4.20852L7.66434 9.68699ZM15.6272 4.97295L16.4554 4.14481C16.5828 4.01741 16.5828 3.8263 16.4554 3.69889L15.1813 2.55223C15.0539 2.42483 14.8628 2.42483 14.7354 2.55223L13.971 3.31667L15.6272 4.97295ZM13.9073 11.5981C13.9073 11.2159 14.1621 10.9611 14.5443 10.9611C14.9265 10.9611 15.1813 11.2159 15.1813 11.5981V15.7388C15.1813 16.9492 14.1621 17.9684 12.9517 17.9684H3.39624C2.18588 17.9684 1.16663 16.9492 1.16663 15.7388V6.18332C1.16663 4.97296 2.18588 3.9537 3.39624 3.9537H7.53695C7.91917 3.9537 8.17398 4.20852 8.17398 4.59074C8.17398 4.97296 7.91917 5.22777 7.53695 5.22777H3.39624C2.88661 5.22777 2.44069 5.67369 2.44069 6.18332V15.7388C2.44069 16.2484 2.88661 16.6943 3.39624 16.6943H12.9517C13.4613 16.6943 13.9073 16.2484 13.9073 15.7388V11.5981Z" fill="#071D49"/>
<path d="M17.3472 2.80704L17.1704 2.98382L17.1704 2.98382L17.3472 2.80704ZM16.1369 1.59668L16.3139 1.41966L16.3041 1.41086L16.1369 1.59668ZM17.4109 5.03666L17.2342 4.85988L17.2342 4.85988L17.4109 5.03666ZM8.49248 13.9551L8.3157 13.7783L8.28702 13.807L8.26887 13.8433L8.49248 13.9551ZM8.17396 14.1462V13.8962H8.14921L8.12494 13.9011L8.17396 14.1462ZM4.9888 14.7832V15.0332H5.01356L5.03783 15.0284L4.9888 14.7832ZM4.16066 14.0188L4.39783 14.0979L4.40276 14.0831L4.40581 14.0678L4.16066 14.0188ZM4.79769 10.8336L4.57409 10.7218L4.55912 10.7518L4.55255 10.7846L4.79769 10.8336ZM4.9888 10.5151L5.16558 10.6919L5.16558 10.6919L4.9888 10.5151ZM13.9073 1.59668L13.7398 1.4106L13.7305 1.41991L13.9073 1.59668ZM7.72804 12.9359L7.77276 13.1818L7.8496 13.1679L7.90482 13.1126L7.72804 12.9359ZM5.62584 13.3181L5.38161 13.2647L5.30144 13.6312L5.67056 13.564L5.62584 13.3181ZM8.36507 12.2988L8.54185 12.4756L8.71196 12.3055L8.54851 12.129L8.36507 12.2988ZM6.77249 10.5788L6.95593 10.409L6.77942 10.2184L6.59572 10.4021L6.77249 10.5788ZM6.07176 11.2796L5.89498 11.1028L5.84319 11.1546L5.82753 11.2261L6.07176 11.2796ZM9.25692 11.407L9.07348 11.5768L9.24999 11.7675L9.4337 11.5838L9.25692 11.407ZM7.66434 9.68699L7.48756 9.51021L7.31745 9.68032L7.4809 9.85684L7.66434 9.68699ZM14.7991 5.8648L14.9759 6.04158L15.1527 5.8648L14.9759 5.68802L14.7991 5.8648ZM13.1428 4.20852L13.3196 4.03174L13.1428 3.85496L12.966 4.03174L13.1428 4.20852ZM16.4554 4.14481L16.2786 3.96803L16.2786 3.96804L16.4554 4.14481ZM15.6272 4.97295L15.4505 5.14973L15.6272 5.32651L15.804 5.14973L15.6272 4.97295ZM16.4554 3.69889L16.6324 3.52187L16.6226 3.51307L16.4554 3.69889ZM15.1813 2.55223L15.0043 2.72925L15.0141 2.73806L15.1813 2.55223ZM14.7354 2.55223L14.9122 2.72901L14.9122 2.72901L14.7354 2.55223ZM13.971 3.31667L13.7942 3.13989L13.6174 3.31667L13.7942 3.49345L13.971 3.31667ZM17.524 2.63027L16.3136 1.41991L15.9601 1.77346L17.1704 2.98382L17.524 2.63027ZM17.5877 5.21343C18.2651 4.536 18.2521 3.35833 17.524 2.63027L17.1704 2.98382C17.7164 3.52982 17.7034 4.39065 17.2342 4.85988L17.5877 5.21343ZM8.66926 14.1319L17.5877 5.21343L17.2342 4.85988L8.3157 13.7783L8.66926 14.1319ZM8.17396 14.3962C8.3822 14.3962 8.60417 14.2907 8.71609 14.0669L8.26887 13.8433C8.25338 13.8743 8.22054 13.8962 8.17396 13.8962V14.3962ZM5.03783 15.0284L8.22299 14.3914L8.12494 13.9011L4.93978 14.5381L5.03783 15.0284ZM4.8614 15.0332H4.9888V14.5332H4.8614V15.0332ZM4.2131 14.8002C4.41666 14.9359 4.59514 15.0332 4.8614 15.0332V14.5332C4.74543 14.5332 4.66911 14.5032 4.49045 14.3841L4.2131 14.8002ZM3.92349 13.9398C3.82847 14.2248 3.91724 14.6029 4.2131 14.8002L4.49045 14.3841C4.40408 14.3265 4.36545 14.195 4.39783 14.0979L3.92349 13.9398ZM4.55255 10.7846L3.91552 13.9698L4.40581 14.0678L5.04284 10.8827L4.55255 10.7846ZM4.81203 10.3384C4.75565 10.3947 4.71042 10.4666 4.67619 10.5265C4.64024 10.5894 4.60518 10.6597 4.57409 10.7218L5.0213 10.9455C5.05391 10.8802 5.08256 10.8231 5.11031 10.7745C5.13979 10.723 5.15826 10.6992 5.16558 10.6919L4.81203 10.3384ZM13.7305 1.41991L4.81203 10.3384L5.16558 10.6919L14.084 1.77346L13.7305 1.41991ZM16.3041 1.41086C15.572 0.751963 14.4721 0.751963 13.74 1.41086L14.0745 1.78251C14.6165 1.29475 15.4277 1.29475 15.9696 1.78251L16.3041 1.41086ZM7.68332 12.6899L5.58112 13.0721L5.67056 13.564L7.77276 13.1818L7.68332 12.6899ZM8.1883 12.122L7.55127 12.7591L7.90482 13.1126L8.54185 12.4756L8.1883 12.122ZM6.58905 10.7487L8.18163 12.4687L8.54851 12.129L6.95593 10.409L6.58905 10.7487ZM6.24854 11.4563L6.94927 10.7556L6.59572 10.4021L5.89498 11.1028L6.24854 11.4563ZM5.87006 13.3715L6.31598 11.333L5.82753 11.2261L5.38161 13.2647L5.87006 13.3715ZM9.44036 11.2371L7.84778 9.51714L7.4809 9.85684L9.07348 11.5768L9.44036 11.2371ZM14.6223 5.68802L9.08014 11.2302L9.4337 11.5838L14.9759 6.04158L14.6223 5.68802ZM12.966 4.38529L14.6223 6.04158L14.9759 5.68802L13.3196 4.03174L12.966 4.38529ZM7.84112 9.86377L13.3196 4.38529L12.966 4.03174L7.48756 9.51021L7.84112 9.86377ZM16.2786 3.96804L15.4505 4.79618L15.804 5.14973L16.6322 4.32159L16.2786 3.96804ZM16.2786 3.87567C16.2969 3.89398 16.3009 3.91061 16.3009 3.92185C16.3009 3.93309 16.2969 3.94972 16.2786 3.96803L16.6322 4.32159C16.8572 4.09655 16.8572 3.74715 16.6322 3.52211L16.2786 3.87567ZM15.0141 2.73806L16.2881 3.88471L16.6226 3.51307L15.3486 2.36641L15.0141 2.73806ZM14.9122 2.72901C14.9305 2.71069 14.9471 2.70668 14.9584 2.70668C14.9696 2.70668 14.9862 2.71069 15.0045 2.72901L15.3581 2.37546C15.1331 2.15042 14.7837 2.15042 14.5586 2.37546L14.9122 2.72901ZM14.1477 3.49345L14.9122 2.72901L14.5586 2.37546L13.7942 3.13989L14.1477 3.49345ZM15.804 4.79618L14.1477 3.13989L13.7942 3.49345L15.4505 5.14973L15.804 4.79618ZM14.5443 10.7111C14.2964 10.7111 14.0703 10.7948 13.9057 10.9595C13.741 11.1241 13.6573 11.3502 13.6573 11.5981H14.1573C14.1573 11.4638 14.2009 11.3713 14.2592 11.313C14.3175 11.2547 14.41 11.2111 14.5443 11.2111V10.7111ZM15.4313 11.5981C15.4313 11.3502 15.3476 11.1241 15.1829 10.9595C15.0182 10.7948 14.7922 10.7111 14.5443 10.7111V11.2111C14.6786 11.2111 14.7711 11.2547 14.8294 11.313C14.8877 11.3713 14.9313 11.4638 14.9313 11.5981H15.4313ZM15.4313 15.7388V11.5981H14.9313V15.7388H15.4313ZM12.9517 18.2184C14.3002 18.2184 15.4313 17.0872 15.4313 15.7388H14.9313C14.9313 16.8111 14.024 17.7184 12.9517 17.7184V18.2184ZM3.39624 18.2184H12.9517V17.7184H3.39624V18.2184ZM0.916626 15.7388C0.916626 17.0872 2.04781 18.2184 3.39624 18.2184V17.7184C2.32395 17.7184 1.41663 16.8111 1.41663 15.7388H0.916626ZM0.916626 6.18332V15.7388H1.41663V6.18332H0.916626ZM3.39624 3.7037C2.04781 3.7037 0.916626 4.83488 0.916626 6.18332H1.41663C1.41663 5.11103 2.32395 4.2037 3.39624 4.2037V3.7037ZM7.53695 3.7037H3.39624V4.2037H7.53695V3.7037ZM8.42398 4.59074C8.42398 4.34281 8.34025 4.11679 8.17557 3.95211C8.0109 3.78744 7.78487 3.7037 7.53695 3.7037V4.2037C7.67124 4.2037 7.76373 4.24738 7.82202 4.30566C7.8803 4.36395 7.92398 4.45644 7.92398 4.59074H8.42398ZM7.53695 5.47777C7.78487 5.47777 8.0109 5.39404 8.17557 5.22936C8.34025 5.06469 8.42398 4.83866 8.42398 4.59074H7.92398C7.92398 4.72503 7.8803 4.81752 7.82202 4.87581C7.76373 4.93409 7.67124 4.97777 7.53695 4.97777V5.47777ZM3.39624 5.47777H7.53695V4.97777H3.39624V5.47777ZM2.69069 6.18332C2.69069 5.81176 3.02468 5.47777 3.39624 5.47777V4.97777C2.74854 4.97777 2.19069 5.53562 2.19069 6.18332H2.69069ZM2.69069 15.7388V6.18332H2.19069V15.7388H2.69069ZM3.39624 16.4443C3.02468 16.4443 2.69069 16.1104 2.69069 15.7388H2.19069C2.19069 16.3865 2.74854 16.9443 3.39624 16.9443V16.4443ZM12.9517 16.4443H3.39624V16.9443H12.9517V16.4443ZM13.6573 15.7388C13.6573 16.1104 13.3233 16.4443 12.9517 16.4443V16.9443C13.5994 16.9443 14.1573 16.3865 14.1573 15.7388H13.6573ZM13.6573 11.5981V15.7388H14.1573V11.5981H13.6573Z" fill="#071D49"/>
</svg>
