<svg width="60" height="60" viewBox="0 0 60 60" fill="none" xmlns="http://www.w3.org/2000/svg">
<path fill-rule="evenodd" clip-rule="evenodd" d="M26.5836 44.5346H45.1402C45.8202 44.5346 46.4451 44.7742 46.9353 45.1738V45.1631C47.5846 45.6891 48 46.4943 48 47.396C48 48.9801 46.7185 50.2658 45.1402 50.2658H26.5885C25.5233 52.4748 23.2674 54 20.6594 54C17.0268 54 14.0772 51.0411 14.0772 47.396C14.0772 44.7795 15.5974 42.5162 17.7996 41.4474V14.8734L13.837 10.8977C12.721 9.77806 12.721 7.95944 13.837 6.83976C14.953 5.72008 16.7656 5.72008 17.8816 6.83976L22.682 11.6555C23.218 12.1937 23.5197 12.9235 23.5197 13.6847V17.7123H23.5114V41.4523C24.8501 42.1008 25.9373 43.1911 26.5836 44.5346ZM20.6594 42.8125C18.1379 42.8125 16.091 44.8662 16.091 47.396C16.091 49.9263 18.1379 51.9801 20.6594 51.9801C23.1814 51.9801 25.2284 49.9263 25.2284 47.396C25.2284 44.8662 23.1814 42.8125 20.6594 42.8125ZM20.6594 44.5268C22.2383 44.5268 23.5197 45.8125 23.5197 47.396C23.5197 48.9801 22.2383 50.2658 20.6594 50.2658C19.0811 50.2658 17.7996 48.9801 17.7996 47.396C17.7996 45.8125 19.0811 44.5268 20.6594 44.5268ZM39.2878 21.8903H42.7105C43.5204 21.8903 44.2971 22.2131 44.8697 22.7876C45.4424 23.3621 45.7641 24.1414 45.7641 24.954V42.863C45.56 42.8346 45.3516 42.8204 45.1402 42.8204H27.5727C26.9556 41.8834 26.154 41.0791 25.2201 40.46V21.8903H31.3845V27.9643C31.3845 28.915 31.9449 29.776 32.8124 30.1586C33.6585 30.5313 34.6407 30.3809 35.3364 29.777C36.0316 30.3809 37.0138 30.5313 37.8598 30.1586C38.7278 29.776 39.2878 28.915 39.2878 27.9643V21.8903ZM37.5791 21.8903V27.9643C37.5791 28.2351 37.42 28.48 37.1725 28.5893C36.9254 28.698 36.6374 28.65 36.4387 28.4668L35.3364 27.451L34.234 28.4668C34.0349 28.65 33.7468 28.698 33.4998 28.5893C33.2528 28.48 33.0931 28.2351 33.0931 27.9643V21.8903H37.5791Z" fill="#989696"/>
</svg>
