<svg width="20" height="25" viewBox="0 0 20 25" fill="none" xmlns="http://www.w3.org/2000/svg">
<path d="M14.42 3.26824e-09H1.83C1.3481 -2.87772e-05 0.885637 0.190027 0.543015 0.528904C0.200392 0.867782 0.00526667 1.32813 0 1.81V23.2C0.00787201 23.6801 0.204145 24.1379 0.546487 24.4747C0.888829 24.8114 1.34981 25.0001 1.83 25H17.67C18.1553 25 18.6208 24.8072 18.964 24.464C19.3072 24.1208 19.5 23.6553 19.5 23.17V4.87L14.42 3.26824e-09ZM17.05 6.1H13.38V2.57H14.63V4.84H17.05V6.1Z" fill="#9EA2A2"/>
<path d="M12.5 13.45C12.89 13.45 13.24 13.45 13.59 13.51C14.0851 13.5597 14.5438 13.7922 14.8766 14.162C15.2095 14.5319 15.3925 15.0125 15.39 15.51C15.39 16.47 15.39 17.43 15.39 18.39C15.39 18.9204 15.1793 19.4291 14.8042 19.8042C14.4292 20.1793 13.9205 20.39 13.39 20.39C12.15 20.39 10.91 20.39 9.68003 20.39C9.19265 20.3295 8.71104 20.2291 8.24003 20.09C8.12768 20.082 8.01496 20.0991 7.91003 20.14C7.65288 20.2536 7.38483 20.3407 7.11003 20.4C6.50003 20.4 5.89003 20.4 5.28003 20.4C5.11615 20.4073 4.95258 20.3801 4.79991 20.3201C4.64724 20.2601 4.50889 20.1687 4.39385 20.0517C4.2788 19.9348 4.18963 19.795 4.13212 19.6414C4.07461 19.4877 4.05005 19.3237 4.06003 19.16C4.06003 17.44 4.06003 15.72 4.06003 14.01C4.05005 13.8463 4.07461 13.6823 4.13212 13.5286C4.18963 13.375 4.2788 13.2352 4.39385 13.1183C4.50889 13.0013 4.64724 12.9099 4.79991 12.8499C4.95258 12.7899 5.11615 12.7627 5.28003 12.77H7.15003C7.28728 12.7556 7.42583 12.7798 7.55003 12.84C7.84003 13.03 8.02003 12.84 8.23003 12.71C8.81986 12.2284 9.32368 11.6502 9.72003 11C9.89948 10.7034 10.1688 10.4717 10.4889 10.3387C10.809 10.2056 11.1632 10.178 11.5 10.26C11.8331 10.3047 12.143 10.4552 12.3843 10.6892C12.6255 10.9232 12.7852 11.2284 12.84 11.56C12.8831 11.8936 12.8662 12.2323 12.79 12.56C12.7181 12.8642 12.6211 13.1619 12.5 13.45ZM8.39003 16.45C8.39003 17.14 8.39003 17.82 8.39003 18.45C8.39003 18.65 8.45003 18.77 8.63003 18.81C9.07807 18.9393 9.53644 19.0296 10 19.08C11.07 19.08 12.15 19.08 13.23 19.08C13.3513 19.0948 13.4744 19.0817 13.5899 19.0415C13.7053 19.0014 13.81 18.9353 13.8959 18.8484C13.9818 18.7615 14.0467 18.6561 14.0856 18.5402C14.1244 18.4244 14.1362 18.3011 14.12 18.18V15.78C14.12 14.99 13.85 14.72 13.07 14.72H11.25C11.1146 14.7258 10.9814 14.6839 10.8737 14.6017C10.7659 14.5195 10.6903 14.4021 10.66 14.27C10.6103 14.1505 10.6052 14.0171 10.6456 13.8941C10.6859 13.7712 10.7691 13.6668 10.88 13.6C10.982 13.5333 11.0679 13.4449 11.1319 13.3412C11.1958 13.2375 11.2362 13.121 11.25 13L11.52 12.21C11.63 11.86 11.57 11.63 11.33 11.52C11.09 11.41 10.87 11.52 10.67 11.81C10.1439 12.6791 9.43818 13.4258 8.60003 14C8.52623 14.0407 8.46602 14.1023 8.42691 14.1769C8.38779 14.2516 8.37149 14.3361 8.38003 14.42C8.39003 15.1 8.39003 15.76 8.39003 16.42V16.45ZM5.39003 19.13H7.08003V14.13H5.39003V19.13Z" fill="white"/>
</svg>
