<svg width="37" height="39" viewBox="0 0 37 39" fill="none" xmlns="http://www.w3.org/2000/svg">
<path fill-rule="evenodd" clip-rule="evenodd" d="M18.7214 2.92924C19.2132 2.92924 19.6119 2.4414 19.6119 1.83962C19.6119 1.23784 19.2132 0.75 18.7214 0.75C18.2296 0.75 17.8309 1.23784 17.8309 1.83962C17.8309 2.4414 18.2296 2.92924 18.7214 2.92924ZM18.5235 8.79641C18.5235 9.40175 18.1201 9.88603 17.633 9.88603C17.1459 9.88603 16.7501 9.40175 16.7425 8.79641C16.7425 8.19107 17.1459 7.70679 17.633 7.70679C18.1277 7.70679 18.5235 8.20038 18.5235 8.79641ZM20.3578 10.9757C20.8496 10.9757 21.2483 10.4878 21.2483 9.88604C21.2483 9.28426 20.8496 8.79642 20.3578 8.79642C19.8659 8.79642 19.4673 9.28426 19.4673 9.88604C19.4673 10.4878 19.8659 10.9757 20.3578 10.9757ZM17.633 13.397C18.1201 13.397 18.5235 12.9128 18.5235 12.3074C18.5235 11.7021 18.1277 11.2178 17.633 11.2178C17.1459 11.2178 16.7425 11.7021 16.7425 12.3074C16.7425 12.9128 17.1459 13.397 17.633 13.397ZM35.0095 36.2231H36.075C36.5393 36.2231 36.9123 36.6795 36.897 37.2476C36.897 37.8157 36.5241 38.272 36.0598 38.272H29.2325C28.7682 38.272 28.3953 37.8157 28.3953 37.2476C28.3953 36.8285 28.6008 36.4653 28.8976 36.307H26.5229C26.8197 36.4653 27.0252 36.8285 27.0252 37.2476C27.0252 37.8157 26.6523 38.272 26.188 38.272H24.6125C24.1482 38.272 23.7752 37.8157 23.7752 37.2476C23.7752 36.8285 23.9807 36.4653 24.2776 36.307H22.5803C22.8771 36.4653 23.0826 36.8285 23.0826 37.2476C23.0826 37.8157 22.7097 38.272 22.2454 38.272H1.33724C0.872952 38.272 0.5 37.8157 0.5 37.2476C0.5 36.6795 0.872952 36.2231 1.33724 36.2231H2.43326L15.2506 17.4389C15.4409 17.1315 16.6359 15.3434 18.7214 15.3434C20.8068 15.3434 22.0018 17.1222 22.1921 17.4389L35.0095 36.2231ZM10.212 31.6039C10.212 32.2093 10.6154 32.6935 11.1025 32.6935C11.5972 32.6935 11.993 32.2093 11.993 31.6039C11.993 30.9986 11.5896 30.5143 11.1025 30.5143C10.6078 30.5143 10.212 31.0079 10.212 31.6039ZM13.6294 27.1057C13.6294 27.7111 14.0328 28.1954 14.5199 28.1954C15.0071 28.1954 15.4028 27.7111 15.4105 27.1057C15.4105 26.5004 15.0147 26.0161 14.5199 26.0161C14.0252 26.0161 13.6294 26.5097 13.6294 27.1057ZM18.8812 20.5587C18.8812 19.9534 18.4778 19.4691 17.9907 19.4691C17.4959 19.4691 17.1002 19.9534 17.1002 20.5587C17.1002 21.1641 17.4959 21.6483 17.9907 21.6483C18.4854 21.6483 18.8812 21.1547 18.8812 20.5587ZM16.5141 21.9184C16.0194 21.9184 15.6236 22.412 15.6236 23.008C15.6236 23.6134 16.0194 24.0976 16.5141 24.0976C17.0088 24.0976 17.4046 23.6041 17.4046 23.008C17.4046 22.4027 17.0012 21.9184 16.5141 21.9184ZM16.5065 27.1057C16.5065 27.7111 16.9099 28.1954 17.397 28.1954C17.8841 28.1954 18.2875 27.7111 18.2875 27.1057C18.2875 26.5004 17.8841 26.0161 17.397 26.0161C16.9023 26.0161 16.5065 26.5097 16.5065 27.1057ZM18.8812 23.008C18.3865 23.008 17.9907 23.5016 17.9907 24.0976C17.9907 24.6937 18.3865 25.1873 18.8812 25.1873C19.3759 25.1873 19.7717 24.703 19.7717 24.0976C19.7717 23.4923 19.3759 23.008 18.8812 23.008ZM19.3911 27.1057C19.3911 27.7111 19.7945 28.1954 20.2817 28.1954C20.7688 28.1954 21.1646 27.7111 21.1722 27.1057C21.1722 26.5004 20.7764 26.0161 20.2817 26.0161C19.7869 26.0161 19.3911 26.5097 19.3911 27.1057ZM20.7916 24.0883C20.7916 24.6937 21.195 25.178 21.6821 25.178C22.1693 25.178 22.5727 24.6937 22.5727 24.0883C22.5727 23.483 22.1769 22.9987 21.6821 22.9987C21.1874 22.9987 20.7916 23.483 20.7916 24.0883ZM23.4023 27.5248C23.4023 28.1302 23.8057 28.6144 24.2928 28.6144C24.7875 28.6144 25.1833 28.1302 25.1833 27.5248C25.1833 26.9195 24.7875 26.4352 24.2928 26.4352C23.7981 26.4352 23.4023 26.9288 23.4023 27.5248Z" fill="#ffffff"/>
</svg>
