<svg id="Capa_1" data-name="Capa 1" xmlns="http://www.w3.org/2000/svg" viewBox="0 0 141.16 99.94"><defs><style>.cls-1{fill:#9ea2a2;}</style></defs><path class="cls-1" d="M109.07,26.48a3.5,3.5,0,0,1-3.5,3.5H19.93a3.5,3.5,0,0,1-3.5-3.5H3.5V92.26H113v-28h-6.65L118.5,52.08l3.5-3.5V26.48ZM24.78,76.93a5.12,5.12,0,1,1,0,10.23H16.85A5.12,5.12,0,0,1,11.73,82a5.12,5.12,0,0,1,5.12-5.11Z"/><path class="cls-1" d="M125.48,26.12c0-.11,0-.22,0-.33l-.09-.35-.09-.27c-.06-.12-.11-.24-.18-.36a2.61,2.61,0,0,0-.17-.28l-.17-.24-.08-.09A3.47,3.47,0,0,0,122,23H105.57a3.5,3.5,0,0,1,0,7H118.5v22.1l3.5-3.5,3.5,3.5V26.47C125.5,26.35,125.49,26.24,125.48,26.12ZM7,88.76V30H19.93a3.5,3.5,0,0,1,0-7H3.5A3.47,3.47,0,0,0,.85,24.2l-.07.09a2.5,2.5,0,0,0-.18.24,2.61,2.61,0,0,0-.17.28,3,3,0,0,0-.18.36l-.09.27a2,2,0,0,0-.09.35c0,.11,0,.22,0,.33s0,.24,0,.36V92.26a3.5,3.5,0,0,0,3.5,3.5H113v-7Z"/><path class="cls-1" d="M62.75,3.5V6.74a3.5,3.5,0,0,0-3.5,3.5V23H19.93a3.5,3.5,0,0,0-3.5,3.5H3.5l3-3.5L23.31,3.5Z"/><path class="cls-1" d="M62.75,0H23.31a3.52,3.52,0,0,0-2.65,1.21L.85,24.2l-.07.09a2.5,2.5,0,0,0-.18.24,2.61,2.61,0,0,0-.17.28,3,3,0,0,0-.18.36l-.09.27a2,2,0,0,0-.09.35c0,.11,0,.22,0,.33s0,.24,0,.36a3.59,3.59,0,0,0,.32,1.46A3.48,3.48,0,0,0,3.5,30H19.93a3.5,3.5,0,0,1,0-7H11.14L24.92,7H59.25v3.24a3.5,3.5,0,1,1,7,0V3.5A3.5,3.5,0,0,0,62.75,0Z"/><path class="cls-1" d="M122,26.48H109.07a3.5,3.5,0,0,0-3.5-3.5H66.25V10.24a3.5,3.5,0,0,0-3.5-3.5V3.5h39.43L119,23Z"/><path class="cls-1" d="M125.48,26.12c0-.11,0-.22,0-.33l-.09-.35-.09-.27c-.06-.12-.11-.24-.18-.36a2.61,2.61,0,0,0-.17-.28l-.17-.24-.08-.09-19.82-23A3.49,3.49,0,0,0,102.18,0H62.75a3.5,3.5,0,0,0-3.5,3.5v6.74a3.5,3.5,0,1,1,7,0V7h34.33l13.78,16h-8.79a3.5,3.5,0,0,1,0,7H122a3.5,3.5,0,0,0,3.5-3.49v0C125.5,26.35,125.49,26.24,125.48,26.12Z"/><path class="cls-1" d="M140.13,61.77,125.5,47.14l-1-1a3.62,3.62,0,0,0-5,0l-1,1L103.87,61.77a3.5,3.5,0,0,0,2.47,6h3.15v28.7a3.5,3.5,0,0,0,3.5,3.5h18a3.5,3.5,0,0,0,3.5-3.5V67.74h3.15a3.5,3.5,0,0,0,2.47-6ZM131,64.24v32.2H113V64.24h-6.65L118.5,52.08l3.5-3.5,15.66,15.66Z"/></svg>