<svg id="Capa_1" data-name="Capa 1" xmlns="http://www.w3.org/2000/svg" viewBox="0 0 132.15 106.72"><defs><style>.cls-1{fill:#121c4d;}.cls-2{fill:#fff;}</style></defs><path class="cls-1" d="M29.9,76.43H0v12H29.9a6,6,0,1,0,0-12Zm-1.5,9.23a5.1,5.1,0,0,1-3.62,1.5H16.85A5.12,5.12,0,0,1,11.73,82a5.12,5.12,0,0,1,5.12-5.11h7.93a5.11,5.11,0,0,1,3.62,8.73Z"/><path class="cls-1" d="M25.93,63a6,6,0,0,1-6,6H0V57H19.93A6,6,0,0,1,25.93,63Z"/><path class="cls-1" d="M13.87,43.65a6,6,0,0,1-6,6H0v-12H7.87A6,6,0,0,1,13.87,43.65Z"/><path class="cls-1" d="M109.07,26.48a3.5,3.5,0,0,1-3.5,3.5H19.93a3.5,3.5,0,0,1-3.5-3.5H3.5V92.26H91.8a18.32,18.32,0,0,1-1.29-3.5,19.09,19.09,0,0,1-.64-4.93,19.39,19.39,0,0,1,28.63-17,18.91,18.91,0,0,1,3.5,2.44V26.48Zm-95.84,52a5.07,5.07,0,0,1,3.62-1.5h7.93a5.12,5.12,0,1,1,0,10.23H16.85A5.12,5.12,0,0,1,11.73,82,5.06,5.06,0,0,1,13.23,78.43ZM115,74.38a8.21,8.21,0,0,0-5.81-1.87,9.6,9.6,0,0,0-4.76,1.08,5.77,5.77,0,0,0-2.59,2.54l0,0a2.27,2.27,0,0,0,2.14,3.12h2.15a3.55,3.55,0,0,1-.07-.67,2.66,2.66,0,0,1,.7-1.9,2.76,2.76,0,0,1,2.13-.76,3,3,0,0,1,2.17.81,2.78,2.78,0,0,1,.87,2.14,2.59,2.59,0,0,1-1,2.19,3.91,3.91,0,0,1-2.42.77,5,5,0,0,1-1.67-.29l.47,5.88h2.29l.52-2.33.72,0a6.2,6.2,0,0,0,4.42-1.68A5.83,5.83,0,0,0,116.94,79,6.1,6.1,0,0,0,115,74.38Zm-4.74,16.19a2.67,2.67,0,0,0-4.55,1.69H111A2.66,2.66,0,0,0,110.21,90.57Z"/><path class="cls-1" d="M111,92.26a2.67,2.67,0,0,0-5.32,0,1.27,1.27,0,0,0,0,.2v0a2.67,2.67,0,0,0,5.34,0v0A1.27,1.27,0,0,0,111,92.26Zm-19.18,0a18.32,18.32,0,0,1-1.29-3.5H7V30H19.93a3.5,3.5,0,0,1,0-7H3.5A3.47,3.47,0,0,0,.85,24.2l-.07.09a2.5,2.5,0,0,0-.18.24,2.61,2.61,0,0,0-.17.28,3,3,0,0,0-.18.36l-.09.27a2,2,0,0,0-.09.35c0,.11,0,.22,0,.33s0,.24,0,.36V92.26a3.5,3.5,0,0,0,3.5,3.5H94A18.82,18.82,0,0,1,91.8,92.26Zm33.68-66.14c0-.11,0-.22,0-.33l-.09-.35-.09-.27c-.06-.12-.11-.24-.18-.36a2.61,2.61,0,0,0-.17-.28l-.17-.24-.08-.09A3.47,3.47,0,0,0,122,23H105.57a3.5,3.5,0,0,1,0,7H118.5v36.8a18.91,18.91,0,0,1,3.5,2.44,19.2,19.2,0,0,1,3.5,4V26.47C125.5,26.35,125.49,26.24,125.48,26.12ZM111,92.26a2.67,2.67,0,0,0-5.32,0,1.27,1.27,0,0,0,0,.2v0a2.67,2.67,0,0,0,5.34,0v0A1.27,1.27,0,0,0,111,92.26Z"/><path class="cls-1" d="M62.75,3.5V6.74a3.5,3.5,0,0,0-3.5,3.5V23H19.93a3.5,3.5,0,0,0-3.5,3.5H3.5l3-3.5L23.31,3.5Z"/><path class="cls-1" d="M62.75,0H23.31a3.52,3.52,0,0,0-2.65,1.21L.85,24.2l-.07.09a2.5,2.5,0,0,0-.18.24,2.61,2.61,0,0,0-.17.28,3,3,0,0,0-.18.36l-.09.27a2,2,0,0,0-.09.35c0,.11,0,.22,0,.33s0,.24,0,.36a3.59,3.59,0,0,0,.32,1.46A3.48,3.48,0,0,0,3.5,30H19.93a3.5,3.5,0,0,1,0-7H11.14L24.92,7H59.25v3.24a3.5,3.5,0,1,1,7,0V3.5A3.5,3.5,0,0,0,62.75,0Z"/><path class="cls-1" d="M122,26.48H109.07a3.5,3.5,0,0,0-3.5-3.5H66.25V10.24a3.5,3.5,0,0,0-3.5-3.5V3.5h39.43L119,23Z"/><path class="cls-1" d="M125.48,26.12c0-.11,0-.22,0-.33l-.09-.35-.09-.27c-.06-.12-.11-.24-.18-.36a2.61,2.61,0,0,0-.17-.28l-.17-.24-.08-.09-19.82-23A3.49,3.49,0,0,0,102.18,0H62.75a3.5,3.5,0,0,0-3.5,3.5v6.74a3.5,3.5,0,1,1,7,0V7h34.33l13.78,16h-8.79a3.5,3.5,0,0,1,0,7H122a3.5,3.5,0,0,0,3.5-3.49v0C125.5,26.35,125.49,26.24,125.48,26.12Z"/><path class="cls-1" d="M125.5,67.71a23,23,0,0,0-3.5-2.88,21.68,21.68,0,0,0-3.5-1.94A22.89,22.89,0,0,0,86.37,83.83a22.3,22.3,0,0,0,.54,4.93A21.5,21.5,0,0,0,88,92.26a22.47,22.47,0,0,0,1.76,3.5A22.88,22.88,0,1,0,125.5,67.71Zm-16.24,35.51A19.36,19.36,0,0,1,94,95.76a18.82,18.82,0,0,1-2.18-3.5,18.32,18.32,0,0,1-1.29-3.5,19.09,19.09,0,0,1-.64-4.93,19.39,19.39,0,0,1,28.63-17,18.91,18.91,0,0,1,3.5,2.44,19.39,19.39,0,0,1-12.74,34Z"/><path class="cls-2" d="M111,92.46v0a2.67,2.67,0,0,1-2.67,2.67,2.66,2.66,0,0,1-2.67-2.67v0a1.27,1.27,0,0,1,0-.2,2.67,2.67,0,0,1,5.32,0A1.27,1.27,0,0,1,111,92.46Z"/><path class="cls-2" d="M116.94,79a5.83,5.83,0,0,1-1.77,4.43,6.2,6.2,0,0,1-4.42,1.68l-.72,0-.52,2.33h-2.29l-.47-5.88a5,5,0,0,0,1.67.29,3.91,3.91,0,0,0,2.42-.77,2.59,2.59,0,0,0,1-2.19,2.78,2.78,0,0,0-.87-2.14,3,3,0,0,0-2.17-.81,2.76,2.76,0,0,0-2.13.76,2.66,2.66,0,0,0-.7,1.9,3.55,3.55,0,0,0,.07.67h-2.15a2.27,2.27,0,0,1-2.14-3.12l0,0a5.77,5.77,0,0,1,2.59-2.54,9.6,9.6,0,0,1,4.76-1.08A8.21,8.21,0,0,1,115,74.38,6.1,6.1,0,0,1,116.94,79Z"/><path class="cls-1" d="M111,92.26a2.67,2.67,0,0,0-5.32,0,1.27,1.27,0,0,0,0,.2v0a2.67,2.67,0,0,0,5.34,0v0A1.27,1.27,0,0,0,111,92.26Zm4-17.88a8.21,8.21,0,0,0-5.81-1.87,9.6,9.6,0,0,0-4.76,1.08,5.77,5.77,0,0,0-2.59,2.54l0,0a2.27,2.27,0,0,0,2.14,3.12h2.15a3.55,3.55,0,0,1-.07-.67,2.66,2.66,0,0,1,.7-1.9,2.76,2.76,0,0,1,2.13-.76,3,3,0,0,1,2.17.81,2.78,2.78,0,0,1,.87,2.14,2.59,2.59,0,0,1-1,2.19,3.91,3.91,0,0,1-2.42.77,5,5,0,0,1-1.67-.29l.47,5.88h2.29l.52-2.33.72,0a6.2,6.2,0,0,0,4.42-1.68A5.83,5.83,0,0,0,116.94,79,6.1,6.1,0,0,0,115,74.38Z"/></svg>