<svg width="37" height="32" viewBox="0 0 37 32" fill="none" xmlns="http://www.w3.org/2000/svg">
<path d="M24.8259 13.8798H22.7777V15.8962C22.7775 16.2517 22.6338 16.5926 22.3783 16.8438C22.1174 17.0885 21.7708 17.2251 21.4105 17.2251C21.0502 17.2251 20.7036 17.0885 20.4427 16.8438C20.1872 16.5926 20.0436 16.2517 20.0434 15.8962V13.8798H17.9952C17.634 13.8795 17.2877 13.7381 17.0325 13.4866C16.9055 13.3645 16.8047 13.2187 16.7358 13.0577C16.6669 12.8967 16.6314 12.7237 16.6314 12.549C16.6314 12.3743 16.6669 12.2013 16.7358 12.0403C16.8047 11.8793 16.9055 11.7335 17.0325 11.6114C17.2877 11.3599 17.634 11.2184 17.9952 11.2182H20.0434V9.2018C20.073 8.86495 20.2298 8.55131 20.483 8.32278C20.7361 8.09425 21.067 7.96742 21.4105 7.96742C21.754 7.96742 22.085 8.09425 22.3381 8.32278C22.5912 8.55131 22.7481 8.86495 22.7777 9.2018V11.2182H24.8259C25.0148 11.2119 25.203 11.2435 25.379 11.3111C25.5551 11.3787 25.7153 11.4809 25.85 11.6114C25.977 11.7335 26.0778 11.8793 26.1467 12.0403C26.2156 12.2013 26.2511 12.3743 26.2511 12.549C26.2511 12.7237 26.2156 12.8967 26.1467 13.0577C26.0778 13.2187 25.977 13.3645 25.85 13.4866C25.7153 13.6171 25.5551 13.7193 25.379 13.7869C25.203 13.8545 25.0148 13.8861 24.8259 13.8798ZM16.3976 26.5325C16.6664 26.5345 16.9291 26.6114 17.1554 26.7543C17.3787 26.9038 17.553 27.1139 17.6572 27.3592C17.7337 27.5437 17.7671 27.7427 17.755 27.9416C17.7429 28.1405 17.6856 28.3342 17.5873 28.5084C17.489 28.6826 17.3522 28.8328 17.1871 28.948C17.0219 29.0632 16.8326 29.1404 16.6331 29.1739C16.3689 29.2219 16.0962 29.1943 15.8474 29.0942C15.5987 28.9941 15.3845 28.8258 15.2301 28.6093C15.0775 28.3894 14.9955 28.1296 14.9946 27.8633C15.0034 27.5105 15.1501 27.1747 15.4042 26.9257C15.5377 26.7937 15.6978 26.6906 15.8741 26.6229C16.0505 26.5552 16.2392 26.5244 16.4283 26.5325H16.3976ZM28.6868 26.5325C28.9556 26.5345 29.2183 26.6114 29.4446 26.7543C29.6679 26.9038 29.8422 27.1139 29.9464 27.3592C30.0528 27.6022 30.0814 27.8714 30.0283 28.1308C29.9752 28.3902 29.8431 28.6275 29.6494 28.811C29.4576 28.9954 29.2158 29.1214 28.9531 29.1739C28.6888 29.2219 28.4161 29.1943 28.1674 29.0942C27.9187 28.9941 27.7044 28.8258 27.55 28.6093C27.4152 28.4072 27.3384 28.173 27.3278 27.9315C27.3171 27.69 27.373 27.4501 27.4895 27.2373C27.606 27.0245 27.7788 26.8466 27.9895 26.7225C28.2003 26.5985 28.4412 26.5328 28.6868 26.5325ZM35.8555 3.95924C35.4805 3.5263 35.0115 3.18176 34.4832 2.95106C33.9494 2.71166 33.3697 2.5879 32.7832 2.58813H8.44028L8.18425 1.04564C8.16888 0.991722 8.14466 0.940616 8.11255 0.894386C8.10206 0.804482 8.07054 0.718203 8.02042 0.642341C7.97978 0.569556 7.93534 0.498867 7.88728 0.4306C7.83091 0.3684 7.76925 0.311078 7.70295 0.259226C7.64005 0.197691 7.5674 0.146593 7.48787 0.107974L7.25234 0.00718043C7.16386 -0.00239348 7.07456 -0.00239348 6.98607 0.00718043C6.92462 0.00718043 6.88363 0.00718043 6.83243 0.00718043H1.36376C1.00261 0.00742212 0.656348 0.148867 0.401102 0.400387C0.274142 0.522464 0.173203 0.668265 0.104323 0.829283C0.0354431 0.9903 0 1.16328 0 1.33799C0 1.5127 0.0354431 1.68562 0.104323 1.84663C0.173203 2.00765 0.274142 2.15351 0.401102 2.27559C0.656348 2.52711 1.00261 2.66856 1.36376 2.6688H5.66494L5.94146 4.21129L8.89088 21.5319L9.20835 23.2962C9.34357 24.1193 9.74174 24.8786 10.3451 25.4638C10.9496 26.0553 11.7264 26.4465 12.5674 26.5829C12.3927 27.0231 12.3024 27.4914 12.3012 27.9641C12.2939 28.5487 12.4199 29.1274 12.6698 29.6578C12.9162 30.1931 13.2841 30.6657 13.7451 31.0391C14.2006 31.4206 14.7354 31.6994 15.312 31.8557C15.8901 32.0122 16.4961 32.0418 17.0871 31.9425C17.6782 31.8432 18.2398 31.6174 18.7325 31.281C19.2282 30.9494 19.6413 30.5117 19.9409 30.0006C20.2369 29.4964 20.4218 28.9365 20.4837 28.3573C20.5335 27.7726 20.4532 27.1842 20.2482 26.6333H24.8464C24.6196 27.2366 24.5458 27.8853 24.6314 28.5231C24.7171 29.1609 24.9596 29.7684 25.338 30.293C25.7486 30.7947 26.2753 31.1923 26.8741 31.4524C27.4603 31.749 28.1096 31.9045 28.7687 31.9061C29.4274 31.9018 30.0761 31.7465 30.6633 31.4524C31.543 31.0113 32.228 30.268 32.5884 29.3632C32.9489 28.4584 32.9599 27.4548 32.6193 26.5426H32.8651C33.2262 26.5423 33.5725 26.4009 33.8277 26.1494C33.9573 26.0287 34.0605 25.8834 34.131 25.7222C34.2015 25.561 34.2379 25.3873 34.2379 25.2118C34.2379 25.0362 34.2015 24.8625 34.131 24.7013C34.0605 24.5401 33.9573 24.3948 33.8277 24.2741C33.5725 24.0226 33.2262 23.8812 32.8651 23.8809H13.274C12.9472 23.883 12.6306 23.7684 12.383 23.5583C12.1394 23.3556 11.9792 23.0725 11.9324 22.7619V22.5501H30.8886C31.8486 22.5426 32.7756 22.2034 33.5075 21.5916C34.2393 20.9798 34.7296 20.1344 34.8928 19.203L36.941 7.21571C37.0436 6.64161 37.012 6.05203 36.8488 5.4917C36.6645 4.92056 36.3531 4.39704 35.9374 3.95924H35.8555Z" fill="#9EA2A2"/>
</svg>
