<svg id="SvgjsSvg1001" width="288" height="288" xmlns="http://www.w3.org/2000/svg" version="1.1" xmlns:xlink="http://www.w3.org/1999/xlink" xmlns:svgjs="http://svgjs.com/svgjs"><defs id="SvgjsDefs1002"></defs><g id="SvgjsG1008" transform="matrix(1,0,0,1,0,0)"><svg xmlns="http://www.w3.org/2000/svg" width="288" height="288" viewBox="0 0 400 400"><path fill-rule="evenodd" d="M66.221 1.183 C 59.157 3.777,53.671 9.303,51.204 16.309 C 49.022 22.504,49.415 378.847,51.610 384.714 C 53.560 389.924,58.341 395.064,63.684 397.693 L 67.578 399.609 198.976 399.811 L 330.374 400.013 334.749 398.377 C 340.581 396.195,346.192 390.588,348.370 384.767 C 349.998 380.415,350.000 380.258,350.000 252.741 L 350.000 125.072 297.852 124.805 C 259.238 124.607,244.957 124.287,242.827 123.575 C 235.884 121.252,228.748 114.116,226.425 107.173 C 225.713 105.043,225.393 90.762,225.195 52.148 L 224.928 0.000 147.034 0.055 C 83.045 0.100,68.619 0.302,66.221 1.183 M250.000 50.000 L 250.000 100.000 300.193 100.000 L 350.386 100.000 300.391 50.000 C 272.893 22.500,250.306 -0.000,250.198 -0.000 C 250.089 -0.000,250.000 22.500,250.000 50.000 M156.288 52.542 C 160.870 55.630,161.977 58.539,162.358 68.493 C 162.645 75.996,162.890 77.345,163.965 77.353 C 168.571 77.388,183.510 86.044,185.994 90.117 C 193.222 101.972,178.818 113.202,167.189 104.779 C 151.342 93.299,125.391 101.973,125.391 118.750 C 125.391 130.771,133.453 136.491,152.734 138.151 C 188.619 141.239,209.100 171.185,194.745 199.576 C 190.137 208.690,175.109 220.192,165.136 222.237 L 162.693 222.738 162.356 231.547 C 161.873 244.183,158.351 249.219,150.000 249.219 C 141.649 249.219,138.127 244.183,137.644 231.547 L 137.307 222.738 134.864 222.213 C 131.277 221.441,123.283 217.694,119.131 214.837 C 103.532 204.105,116.998 184.824,132.918 195.095 C 148.939 205.432,173.369 198.733,174.822 183.605 C 176.009 171.252,167.583 163.848,150.600 162.319 C 111.410 158.790,90.308 129.987,105.255 100.424 C 109.863 91.310,124.891 79.808,134.864 77.763 L 137.307 77.262 137.644 68.453 C 138.223 53.330,146.709 46.087,156.288 52.542 M292.966 176.995 C 301.357 181.925,301.357 193.075,292.966 198.005 C 290.349 199.542,289.070 199.609,262.500 199.609 C 235.930 199.609,234.651 199.542,232.034 198.005 C 222.215 192.237,224.278 178.474,235.371 175.735 C 241.514 174.218,290.046 175.280,292.966 176.995 M292.966 226.995 C 301.357 231.925,301.357 243.075,292.966 248.005 C 290.349 249.542,289.070 249.609,262.500 249.609 C 235.930 249.609,234.651 249.542,232.034 248.005 C 222.215 242.237,224.278 228.474,235.371 225.735 C 241.514 224.218,290.046 225.280,292.966 226.995 M292.966 276.995 C 301.357 281.925,301.357 293.075,292.966 298.005 C 288.660 300.534,111.340 300.534,107.034 298.005 C 97.217 292.238,99.290 278.419,110.371 275.750 C 117.087 274.133,290.102 275.313,292.966 276.995 M292.966 326.995 C 301.357 331.925,301.357 343.075,292.966 348.005 C 288.660 350.534,111.340 350.534,107.034 348.005 C 97.217 342.238,99.290 328.419,110.371 325.750 C 117.087 324.133,290.102 325.313,292.966 326.995 " fill="#9ea2a2" class="color000 svgShape"></path></svg></g></svg>