<?xml version="1.0" encoding="utf-8"?>
<!-- Generator: Adobe Illustrator 25.4.1, SVG Export Plug-In . SVG Version: 6.00 Build 0)  -->
<svg version="1.1" id="Capa_1" xmlns="http://www.w3.org/2000/svg" xmlns:xlink="http://www.w3.org/1999/xlink" x="0px" y="0px"
	 viewBox="0 0 32.1 31.2" style="enable-background:new 0 0 32.1 31.2;" xml:space="preserve">
<style type="text/css">
	.st0{fill:none;}
	.st1{fill:#585858;}
	.st2{fill-rule:evenodd;clip-rule:evenodd;fill:#585858;}
	.st3{fill:#FFFFFF;}
</style>
<path class="st0" d="M-1.2-3.7"/>
<path class="st1" d="M31.1-42.1v-7h-10l-1,1v14h7l1-1l-2-3h2l1,2l1-2h2l-2,3l3,4h-2l-2-2v1l1,1h-1v5h8l1-1v-15H31.1z"/>
<g>
	<path class="st2" d="M27.9,10.8c-0.1-0.4-0.3-0.8-0.6-1.2c-0.1-0.1-0.1-0.2-0.2-0.2c-0.2-0.2-0.5-0.4-0.8-0.5
		c-0.2-0.1-0.4-0.2-0.6-0.2c-0.1,0-0.2,0-0.3,0c-0.1,0-0.2,0-0.3,0h-6.1v7.3c0,0.9,0.7,1.6,1.6,1.6h6.7l0.6-3.5l0.2-1.6l0.1-0.3
		C28,11.7,28,11.2,27.9,10.8z M16.8,16.3V8.6H6.4L6.2,7.4c0,0,0-0.1,0-0.1c0-0.1,0-0.1-0.1-0.2C6.1,7,6,6.9,6,6.9
		c0,0-0.1-0.1-0.1-0.1c-0.1,0-0.1-0.1-0.2-0.1c-0.1,0-0.1-0.1-0.2-0.1c-0.1,0-0.1,0-0.2,0c0,0,0,0-0.1,0c0,0,0,0-0.1,0H1
		c-0.3,0-0.5,0.1-0.7,0.3S0,7.3,0,7.5s0.1,0.5,0.3,0.7C0.5,8.5,0.8,8.6,1,8.6h3.3l0.2,1.2l2.2,13.3v0L7,24.5
		c0.1,0.6,0.4,1.2,0.9,1.7c0.5,0.5,1,0.8,1.7,0.9c-0.1,0.3-0.2,0.7-0.2,1.1c0,0.5,0.1,0.9,0.3,1.3c0.2,0.4,0.5,0.8,0.8,1.1
		c0.3,0.3,0.8,0.5,1.2,0.6c0.4,0.1,0.9,0.1,1.4,0.1c0.4-0.1,0.9-0.2,1.2-0.5c0.4-0.3,0.7-0.6,0.9-1c0.2-0.4,0.4-0.8,0.4-1.3
		c0-0.5,0-0.9-0.2-1.3h3.5c-0.2,0.5-0.2,1-0.2,1.5c0.1,0.5,0.2,1,0.5,1.4c0.3,0.4,0.7,0.7,1.1,1c0.4,0.2,0.9,0.4,1.4,0.4
		s1-0.1,1.4-0.4c0.4-0.2,0.8-0.6,1.1-1c0.3-0.4,0.5-0.9,0.5-1.4c0.1-0.5,0-1-0.2-1.5h0.2c0.3,0,0.5-0.1,0.7-0.3
		c0.2-0.2,0.3-0.5,0.3-0.7c0-0.3-0.1-0.5-0.3-0.7c-0.2-0.2-0.5-0.3-0.7-0.3H10c-0.2,0-0.5-0.1-0.7-0.2c-0.2-0.2-0.3-0.4-0.3-0.6
		L9,24h14.4c0.7,0,1.4-0.3,2-0.7c0.6-0.5,0.9-1.1,1-1.8l0.4-2.4h-7.3C18,19,16.8,17.8,16.8,16.3z M21,27.3c0.2-0.2,0.5-0.3,0.7-0.3
		c0.2,0,0.4,0.1,0.6,0.2c0.2,0.1,0.3,0.3,0.4,0.5c0.1,0.2,0.1,0.4,0.1,0.6c0,0.2-0.1,0.4-0.3,0.5c-0.2,0.1-0.3,0.2-0.5,0.3
		c-0.2,0-0.4,0-0.6-0.1c-0.2-0.1-0.3-0.2-0.5-0.4c-0.1-0.2-0.2-0.4-0.2-0.6C20.7,27.8,20.9,27.5,21,27.3z M11.7,27.3
		c0.2-0.2,0.5-0.3,0.7-0.3c0.2,0,0.4,0.1,0.6,0.2s0.3,0.3,0.4,0.5c0.1,0.2,0.1,0.4,0.1,0.6c0,0.2-0.1,0.4-0.3,0.5
		c-0.1,0.1-0.3,0.2-0.5,0.3c-0.2,0-0.4,0-0.6-0.1c-0.2-0.1-0.4-0.2-0.5-0.4c-0.1-0.2-0.2-0.4-0.2-0.6C11.4,27.8,11.5,27.5,11.7,27.3
		z"/>
	<path class="st3" d="M32.1,4.6v11.3c0,0.9-0.7,1.6-1.6,1.6H20.4c-0.9,0-1.6-0.7-1.6-1.6V1.6c0-0.9,0.7-1.6,1.6-1.6H27l0.6,0
		L32.1,4.6z"/>
	<path class="st1" d="M27.6,0L27,0h-6.6c-0.9,0-1.6,0.7-1.6,1.6v14.3c0,0.9,0.7,1.6,1.6,1.6h10.2c0.9,0,1.6-0.7,1.6-1.6V4.6L27.6,0z
		 M27,14l-1.6-2.3l-0.8,1.2h0.8l0.7,1.1h-4.2l2.6-3.8l-1.2-1.7l-1-1.4h1.9l1,1.4l0.2,0.3l0.1-0.2l1-1.5h1.9L27,9.4l-0.6,0.9l1.5,2.2
		L29,14H27z M27,5.2V1.4l3.7,3.8H27z"/>
</g>
</svg>
