<svg id="SvgjsSvg1001" width="288" height="288" xmlns="http://www.w3.org/2000/svg" version="1.1" xmlns:xlink="http://www.w3.org/1999/xlink" xmlns:svgjs="http://svgjs.com/svgjs"><defs id="SvgjsDefs1002"></defs><g id="SvgjsG1008" transform="matrix(1,0,0,1,0,0)"><svg xmlns="http://www.w3.org/2000/svg" width="288" height="288" viewBox="0 0 400 400"><path fill-rule="evenodd" d="M86.296 18.656 C 74.973 23.799,74.522 39.975,85.551 45.315 C 90.619 47.768,309.381 47.768,314.449 45.315 C 325.478 39.975,325.027 23.799,313.704 18.656 C 308.788 16.423,91.212 16.423,86.296 18.656 M47.266 77.007 C 35.458 83.164,35.795 99.228,47.837 104.260 C 52.246 106.102,347.754 106.102,352.163 104.260 C 363.044 99.713,364.641 86.228,355.201 78.598 L 352.199 76.172 200.904 75.978 C 64.925 75.804,49.372 75.908,47.266 77.007 M48.438 134.092 C 33.355 136.417,24.909 140.484,15.611 149.901 C 7.972 157.636,3.946 164.508,1.541 173.914 C -0.830 183.183,-0.858 333.114,1.509 342.370 C 6.206 360.733,19.784 374.850,38.281 380.600 L 44.141 382.422 200.000 382.422 L 355.859 382.422 361.719 380.600 C 380.216 374.850,393.794 360.733,398.491 342.370 C 400.858 333.114,400.830 183.183,398.459 173.914 C 393.778 155.609,377.821 139.905,358.984 135.063 C 355.315 134.120,54.363 133.179,48.438 134.092 M214.642 190.342 C 258.760 199.112,283.029 250.787,261.674 290.488 C 227.237 354.509,131.222 331.090,130.911 258.594 C 130.718 213.459,169.970 181.463,214.642 190.342 " fill="#9ea2a2" class="color000 svgShape"></path></svg></g></svg>