<svg width="18" height="16" viewBox="0 0 18 16" fill="none" xmlns="http://www.w3.org/2000/svg">
<path fill-rule="evenodd" clip-rule="evenodd" d="M1.73333 0H6.06667C7.02 0 7.8 0.72 7.8 1.6V5.6C7.8 6.48 7.02 7.2 6.06667 7.2H1.73333C0.78 7.2 0 6.48 0 5.6V1.6C0 0.72 0.78 0 1.73333 0ZM1.73333 8.8H6.06667C7.02 8.8 7.8 9.52 7.8 10.4V14.4C7.8 15.28 7.02 16 6.06667 16H1.73333C0.78 16 0 15.28 0 14.4V10.4C0 9.52 0.78 8.8 1.73333 8.8ZM11.2667 8.8H15.6C16.5533 8.8 17.3333 9.52 17.3333 10.4V14.4C17.3333 15.28 16.5533 16 15.6 16H11.2667C10.3133 16 9.53333 15.28 9.53333 14.4V10.4C9.53333 9.52 10.3133 8.8 11.2667 8.8ZM17.3333 3.6C17.3333 5.58822 15.5873 7.2 13.4333 7.2C11.2794 7.2 9.53335 5.58822 9.53335 3.6C9.53335 1.61177 11.2794 0 13.4333 0C15.5873 0 17.3333 1.61177 17.3333 3.6Z" fill="#9EA2A2"/>
</svg>
