<?xml version="1.0" encoding="utf-8"?>
<!-- Generator: Adobe Illustrator 25.4.1, SVG Export Plug-In . SVG Version: 6.00 Build 0)  -->
<svg version="1.1" id="Capa_1" xmlns="http://www.w3.org/2000/svg" xmlns:xlink="http://www.w3.org/1999/xlink" x="0px" y="0px"
	 viewBox="0 0 60 60" style="enable-background:new 0 0 60 60;" xml:space="preserve">
<style type="text/css">
	.st0{fill:#071D49;}
</style>
<path class="st0" d="M46.5,38.2v-11c0-7.3-4.9-13.5-11.5-15.4v-1.3C35,8,32.9,6,30.5,6S26,8,26,10.5v1.3
	c-6.7,1.9-11.5,8.1-11.5,15.4v11c-2.5,0.3-4.5,2.4-4.5,5c0,2.8,2.3,5.1,5.1,5.1h10.2c0,2.8,2.3,5.1,5.1,5.1s5.1-2.3,5.1-5.1h10.2
	c2.8,0,5.1-2.3,5.1-5.1C51,40.6,49,38.5,46.5,38.2z M28,10.6c0-1.3,1.2-2.3,2.5-2.3s2.5,1,2.5,2.3v0.7c-0.8-0.2-1.6-0.3-2.5-0.3
	s-1.7,0.1-2.6,0.3v-0.7H28z M30.5,51.2c-1.6,0-3-1.3-3-3h5.9C33.5,49.9,32.1,51.2,30.5,51.2z"/>
</svg>
