<svg width="19" height="27" viewBox="0 0 19 27" fill="none" xmlns="http://www.w3.org/2000/svg">
<path d="M10.9683 0H2.19366C1.61208 0.000696644 1.05452 0.232037 0.643278 0.643278C0.232037 1.05452 0.000696644 1.61208 0 2.19366V17.988C0.000696644 18.5696 0.232037 19.1272 0.643278 19.5384C1.05452 19.9496 1.61208 20.181 2.19366 20.1817H6.14225V21.3369C6.14387 22.659 6.66982 23.9265 7.60472 24.8615C8.53963 25.7964 9.80716 26.3223 11.1293 26.3239H17.988C18.1044 26.3239 18.216 26.2777 18.2982 26.1954C18.3805 26.1131 18.4267 26.0016 18.4267 25.8852V14.701C18.4253 13.6054 18.0526 12.5426 17.3694 11.6861L13.162 6.42655V2.19366C13.1613 1.61208 12.9299 1.05452 12.5187 0.643278C12.1074 0.232037 11.5499 0.000696644 10.9683 0ZM10.9683 0.877464C11.3174 0.877464 11.6522 1.01613 11.899 1.26297C12.1458 1.5098 12.2845 1.84458 12.2845 2.19366V13.7007L10.5296 11.8361V0.877464H10.9683ZM9.65211 10.9038L8.90143 10.1062C8.7384 9.93624 8.54704 9.79595 8.33591 9.69159V0.877464H9.65211V10.9038ZM0.877464 17.988V2.19366C0.877464 1.84458 1.01613 1.5098 1.26297 1.26297C1.5098 1.01613 1.84458 0.877464 2.19366 0.877464H7.45845V9.46872H7.4545C7.18228 9.45971 6.9112 9.50793 6.65878 9.61026C6.40637 9.71258 6.17823 9.86674 5.98913 10.0628C5.63185 10.424 5.42215 10.9054 5.40105 11.413C5.37996 11.9207 5.54898 12.4179 5.87506 12.8075L7.45845 14.6787V19.3042H2.19366C1.84458 19.3042 1.5098 19.1655 1.26297 18.9187C1.01613 18.6719 0.877464 18.3371 0.877464 17.988ZM9.69598 19.3042H8.33591V15.7158L9.65211 17.2711V18.6268C9.65344 18.8533 9.66809 19.0795 9.69598 19.3042ZM16.6837 12.2345C17.2431 12.935 17.5483 13.8046 17.5493 14.701V25.4465H11.1293C10.0398 25.4452 8.99522 25.0118 8.2248 24.2414C7.45438 23.471 7.02099 22.4264 7.01971 21.3369V20.1817H9.86928C10.1163 21.0699 10.5688 21.8876 11.1901 22.5688C11.8115 23.2499 12.5843 23.7753 13.4463 24.1026L13.7534 23.2804C12.8081 22.9223 11.9937 22.2857 11.4181 21.4548C10.8424 20.6238 10.5326 19.6377 10.5296 18.6268V17.1106C10.5297 17.0068 10.493 16.9064 10.426 16.8271L6.545 12.2406C6.35988 12.0195 6.2639 11.7373 6.27583 11.4492C6.28776 11.1611 6.40674 10.8877 6.6095 10.6827C6.71737 10.5716 6.84722 10.4843 6.99076 10.4263C7.13429 10.3683 7.28835 10.3408 7.44309 10.3457C7.59728 10.3475 7.74951 10.3804 7.8906 10.4426C8.03169 10.5048 8.1587 10.595 8.26396 10.7077L14.1601 16.9728L14.7998 16.3708L13.162 14.633V7.83268L16.6837 12.2345Z" fill="white"/>
<path d="M3.07121 2.19365H2.19374V7.89717H3.07121V2.19365Z" fill="white"/>
<path d="M5.2649 2.19365H4.38744V5.70351H5.2649V2.19365Z" fill="white"/>
<path d="M5.26487 14.4782H2.63247C2.51611 14.4782 2.40452 14.5244 2.32224 14.6067C2.23996 14.6889 2.19374 14.8005 2.19374 14.9169V17.5493C2.19374 17.6656 2.23996 17.7772 2.32224 17.8595C2.40452 17.9418 2.51611 17.988 2.63247 17.988H5.26487C5.38122 17.988 5.49282 17.9418 5.5751 17.8595C5.65737 17.7772 5.7036 17.6656 5.7036 17.5493V14.9169C5.7036 14.8005 5.65737 14.6889 5.5751 14.6067C5.49282 14.5244 5.38122 14.4782 5.26487 14.4782ZM4.82613 17.1106H3.07121V15.3556H4.82613V17.1106Z" fill="white"/>
</svg>
