<svg width="24" height="21" viewBox="0 0 24 21" fill="none" xmlns="http://www.w3.org/2000/svg">
<path d="M23.9709 4.83839C24.0851 4.05074 23.8568 3.2631 23.4002 2.7005C22.8294 2.13789 22.1446 1.68781 21.4597 1.68781H5.59321L5.36492 0.787644C5.36492 0.787644 5.36492 0.675124 5.25077 0.675124C5.25077 0.562603 5.25077 0.562603 5.13662 0.450082C5.13662 0.337562 5.02248 0.337562 5.02248 0.225041C5.02248 0.225041 4.90833 0.112521 4.79418 0.112521C4.68003 0.112521 4.68004 0 4.56589 0H4.45174H0.913178C0.342442 0 0 0.337562 0 0.900165C0 1.46277 0.342442 1.80033 0.913178 1.80033H3.76686L3.99515 2.81302L5.93565 14.1776L6.16395 15.3028C6.39224 16.428 7.19127 17.3282 8.33275 17.4407C8.2186 17.6657 8.10445 18.0033 8.10445 18.3409C8.10445 19.8036 9.24592 20.9288 10.7298 20.9288C12.2137 20.9288 13.3552 19.8036 13.3552 18.3409C13.3552 18.0033 13.2411 17.7783 13.1269 17.4407H16.0948C15.524 18.791 16.323 20.3662 17.6928 20.8163C19.0626 21.3789 20.6606 20.5913 21.1172 19.241C21.3455 18.6784 21.3455 18.0033 21.1172 17.4407H21.3455C21.9163 17.4407 22.2587 17.1031 22.2587 16.5405C22.2587 15.9779 21.9163 15.6404 21.3455 15.6404H8.67519C8.2186 15.6404 7.87616 15.3028 7.76201 14.9652V14.7402H20.0899C21.4597 14.7402 22.487 13.7275 22.7153 12.6023L23.9709 4.83839ZM18.7201 17.5532C19.2909 17.5532 19.6333 17.8908 19.6333 18.4534C19.6333 19.016 19.2909 19.3536 18.7201 19.3536C18.1494 19.3536 17.807 19.016 17.807 18.4534C17.807 17.8908 18.2636 17.5532 18.7201 17.5532ZM10.7298 17.5532C11.3006 17.5532 11.643 17.8908 11.643 18.4534C11.643 19.016 11.3006 19.3536 10.7298 19.3536C10.1591 19.3536 9.81666 19.016 9.81666 18.4534C9.81666 17.8908 10.2732 17.5532 10.7298 17.5532Z" fill="#585858"/>
</svg>
