<?xml version="1.0" encoding="utf-8"?>
<!-- Generator: Adobe Illustrator 25.4.1, SVG Export Plug-In . SVG Version: 6.00 Build 0)  -->
<svg version="1.1" id="Capa_1" xmlns="http://www.w3.org/2000/svg" xmlns:xlink="http://www.w3.org/1999/xlink" x="0px" y="0px"
	 viewBox="0 0 28 25" style="enable-background:new 0 0 28 25;" xml:space="preserve">
<style type="text/css">
	.st0{fill:#585858;}
</style>
<g>
	<path class="st0" d="M25.6,15.4h-4.4L21,16.3c-0.1,0.2-0.1,0.5-0.2,0.7H21c-0.5,1.2,0.2,2.6,1.4,3c1.2,0.4,2.6-0.2,3-1.4
		c0.2-0.5,0.2-1.1,0-1.6h0.2c0.5,0,0.8-0.3,0.8-0.8C26.3,15.7,26.1,15.4,25.6,15.4z M23.3,18.5c-0.5,0-0.8-0.3-0.8-0.8
		c0-0.5,0.3-0.8,0.8-0.8c0.5,0,0.8,0.3,0.8,0.8C24.1,18.2,23.7,18.5,23.3,18.5z"/>
	<path class="st0" d="M27.4,3.8C26.9,3.3,26.3,3,25.7,3H11.8l-0.2-0.9c0,0,0-0.1-0.1-0.1c0-0.1,0-0.1-0.1-0.2c0-0.1-0.1-0.1-0.1-0.2
		l-0.1-0.1c0,0-0.1-0.1-0.2-0.1c-0.1,0-0.1-0.1-0.2-0.1c-0.1,0-0.1,0-0.2,0h-0.1H7.6c-0.5,0-0.8,0.3-0.8,0.8S7.2,3,7.6,3h2.5
		l0.2,0.9l0.2,1.3h8.2c1,0,1.9,0.5,2.6,1.2c0.7,0.8,0.9,1.8,0.8,2.8l-0.9,5.4h3.2c1.2,0,2.1-0.9,2.3-1.9l1.2-7
		C28.1,5,27.9,4.3,27.4,3.8z"/>
	<path class="st0" d="M21,9.1c0.1-0.7-0.1-1.4-0.5-1.9c-0.5-0.5-1.1-0.9-1.7-0.9H4.9L4.7,5.5c0,0,0-0.1-0.1-0.1c0-0.1,0-0.1-0.1-0.2
		c0-0.1-0.1-0.1-0.1-0.2L4.4,5c0,0-0.1-0.1-0.2-0.1c-0.1,0-0.1-0.1-0.2-0.1C4,4.8,4,4.8,4,4.8H3.9H0.8C0.3,4.8,0,5.1,0,5.6
		c0,0.5,0.3,0.8,0.8,0.8h2.5l0.2,0.9l1.7,10.1l0.2,1c0.2,1,0.9,1.8,1.9,1.9c-0.1,0.2-0.2,0.5-0.2,0.8c0,1.3,1,2.3,2.3,2.3
		s2.3-1,2.3-2.3c0-0.3-0.1-0.5-0.2-0.8h2.6c-0.5,1.2,0.2,2.6,1.4,3c1.2,0.5,2.6-0.2,3-1.4c0.2-0.5,0.2-1.1,0-1.6h0.2
		c0.5,0,0.8-0.3,0.8-0.8s-0.3-0.8-0.8-0.8H7.6c-0.4,0-0.7-0.3-0.8-0.6v-0.2h10.8c1.2,0,2.1-0.9,2.3-1.9L21,9.1z M16.4,20.4
		c0.5,0,0.8,0.3,0.8,0.8c0,0.5-0.3,0.8-0.8,0.8c-0.5,0-0.8-0.3-0.8-0.8C15.6,20.7,16,20.4,16.4,20.4z M9.4,20.4
		c0.5,0,0.8,0.3,0.8,0.8c0,0.5-0.3,0.8-0.8,0.8c-0.5,0-0.8-0.3-0.8-0.8C8.6,20.7,9,20.4,9.4,20.4z"/>
</g>
</svg>
