<svg width="60" height="60" viewBox="0 0 60 60" fill="none" xmlns="http://www.w3.org/2000/svg">
<path d="M30 7C25.7565 7 21.6869 8.68571 18.6863 11.6863C15.6857 14.6869 14 18.7565 14 23C14 31.8436 30 53.5455 30 53.5455C30 53.5455 46 31.8436 46 23C46 18.7565 44.3143 14.6869 41.3137 11.6863C38.3131 8.68571 34.2435 7 30 7ZM30 30.2727C28.5616 30.2727 27.1555 29.8462 25.9595 29.0471C24.7635 28.2479 23.8313 27.1121 23.2809 25.7832C22.7304 24.4542 22.5864 22.9919 22.867 21.5812C23.1476 20.1704 23.8403 18.8745 24.8574 17.8574C25.8745 16.8403 27.1704 16.1476 28.5812 15.867C29.9919 15.5864 31.4542 15.7304 32.7832 16.2809C34.1121 16.8313 35.2479 17.7635 36.0471 18.9595C36.8462 20.1555 37.2727 21.5616 37.2727 23C37.2727 23.9551 37.0846 24.9008 36.7191 25.7832C36.3536 26.6655 35.8179 27.4673 35.1426 28.1426C34.4673 28.8179 33.6655 29.3536 32.7832 29.7191C31.9008 30.0846 30.9551 30.2727 30 30.2727V30.2727Z" fill="white"/>
</svg>
