<svg width="30" height="30" viewBox="0 0 30 30" fill="none" xmlns="http://www.w3.org/2000/svg">
<path d="M15 0C12.0333 0 9.13319 0.879735 6.66645 2.52796C4.19972 4.17618 2.27713 6.51886 1.14181 9.25975C0.00649941 12.0006 -0.290551 15.0166 0.288228 17.9264C0.867006 20.8361 2.29562 23.5088 4.3934 25.6066C6.49119 27.7044 9.16394 29.133 12.0737 29.7118C14.9834 30.2906 17.9994 29.9935 20.7403 28.8582C23.4812 27.7229 25.8238 25.8003 27.4721 23.3336C29.1203 20.8668 30 17.9667 30 15C30 11.0218 28.4197 7.20644 25.6066 4.3934C22.7936 1.58035 18.9783 0 15 0ZM15 28C12.4288 28 9.91543 27.2376 7.77759 25.8091C5.63975 24.3806 3.97351 22.3503 2.98957 19.9749C2.00563 17.5994 1.74819 14.9856 2.2498 12.4638C2.75141 9.94207 3.98954 7.62569 5.80762 5.80761C7.6257 3.98953 9.94208 2.7514 12.4638 2.24979C14.9856 1.74818 17.5995 2.00563 19.9749 2.98957C22.3503 3.97351 24.3807 5.63975 25.8091 7.77759C27.2376 9.91543 28 12.4288 28 15C28 18.4478 26.6304 21.7544 24.1924 24.1924C21.7544 26.6304 18.4478 28 15 28Z" fill="#C4D600"/>
<path d="M15 18C15.2652 18 15.5196 17.8946 15.7071 17.7071C15.8946 17.5196 16 17.2652 16 17V7C16 6.73478 15.8946 6.48043 15.7071 6.29289C15.5196 6.10536 15.2652 6 15 6C14.7348 6 14.4804 6.10536 14.2929 6.29289C14.1054 6.48043 14 6.73478 14 7V17C14 17.2652 14.1054 17.5196 14.2929 17.7071C14.4804 17.8946 14.7348 18 15 18Z" fill="#C4D600"/>
<path d="M15 21C14.8022 21 14.6089 21.0586 14.4444 21.1685C14.28 21.2784 14.1518 21.4346 14.0761 21.6173C14.0004 21.8 13.9806 22.0011 14.0192 22.1951C14.0578 22.3891 14.153 22.5673 14.2929 22.7071C14.4327 22.847 14.6109 22.9422 14.8049 22.9808C14.9989 23.0194 15.2 22.9996 15.3827 22.9239C15.5654 22.8482 15.7216 22.72 15.8315 22.5556C15.9414 22.3911 16 22.1978 16 22C16 21.7348 15.8946 21.4804 15.7071 21.2929C15.5196 21.1054 15.2652 21 15 21Z" fill="#C4D600"/>
</svg>
