<svg width="20" height="24" viewBox="0 0 20 24" fill="none" xmlns="http://www.w3.org/2000/svg">
<path d="M19.1429 3.14002L10.3571 0.055088C10.1429 -0.0183627 9.85714 -0.0183627 9.57143 0.055088L0.857143 3.14002C0.357143 3.28692 0 3.80107 0 4.38868V11.293C0 19.6664 9.07143 23.7062 9.5 23.9265C9.71429 24 9.85714 24 10 24C10.1429 24 10.3571 23.9265 10.5 23.9265C10.8571 23.7062 20 19.6664 20 11.293V4.38868C19.9286 3.80107 19.6429 3.28692 19.1429 3.14002ZM15 10.0444L10.4286 15.9939C10.1429 16.3611 9.71429 16.5815 9.28571 16.6549C9.21429 16.6549 9.21429 16.6549 9.07143 16.6549C8.64286 16.6549 8.28571 16.508 8 16.2142L5.07143 13.6435C4.35714 13.0559 4.28571 11.9541 4.85714 11.2196C5.42857 10.4851 6.5 10.4116 7.21429 10.9992L8.78571 12.3948C8.78571 12.3948 8.78571 12.3948 8.85714 12.3948L12.3571 7.84086C12.9286 7.10635 14 6.95945 14.7143 7.54706C15.4286 8.20811 15.5714 9.30987 15 10.0444Z" fill="#9EA2A2"/>
</svg>
