<svg width="38" height="38" viewBox="0 0 38 38" fill="none" xmlns="http://www.w3.org/2000/svg">
<path fill-rule="evenodd" clip-rule="evenodd" d="M19.2611 5.36527C19.6663 5.36527 19.9947 4.96338 19.9947 4.46761C19.9947 3.97184 19.6663 3.56995 19.2611 3.56995C18.8559 3.56995 18.5275 3.97184 18.5275 4.46761C18.5275 4.96338 18.8559 5.36527 19.2611 5.36527ZM19.0982 10.1988C19.0982 10.6975 18.7659 11.0965 18.3646 11.0965C17.9632 11.0965 17.6372 10.6975 17.6309 10.1988C17.6309 9.70009 17.9632 9.30113 18.3646 9.30113C18.7721 9.30113 19.0982 9.70777 19.0982 10.1988ZM20.6093 11.9942C21.0145 11.9942 21.3429 11.5923 21.3429 11.0965C21.3429 10.6007 21.0145 10.1988 20.6093 10.1988C20.2041 10.1988 19.8756 10.6007 19.8756 11.0965C19.8756 11.5923 20.2041 11.9942 20.6093 11.9942ZM18.3646 13.989C18.7659 13.989 19.0982 13.59 19.0982 13.0913C19.0982 12.5926 18.7721 12.1937 18.3646 12.1937C17.9632 12.1937 17.6309 12.5926 17.6309 13.0913C17.6309 13.59 17.9632 13.989 18.3646 13.989ZM32.6798 32.7939H33.5577C33.9401 32.7939 34.2474 33.1699 34.2349 33.6379C34.2349 34.1059 33.9276 34.4818 33.5451 34.4818H27.9206C27.5381 34.4818 27.2308 34.1059 27.2308 33.6379C27.2308 33.2926 27.4001 32.9934 27.6447 32.863H25.6883C25.9328 32.9934 26.1021 33.2926 26.1021 33.6379C26.1021 34.1059 25.7949 34.4818 25.4124 34.4818H24.1144C23.7319 34.4818 23.4247 34.1059 23.4247 33.6379C23.4247 33.2926 23.594 32.9934 23.8385 32.863H22.4402C22.6848 32.9934 22.8541 33.2926 22.8541 33.6379C22.8541 34.1059 22.5468 34.4818 22.1643 34.4818H4.9395C4.55701 34.4818 4.24976 34.1059 4.24976 33.6379C4.24976 33.1699 4.55701 32.7939 4.9395 32.7939H5.84244L16.4018 17.3188C16.5586 17.0656 17.543 15.5925 19.2611 15.5925C20.9792 15.5925 21.9637 17.0579 22.1204 17.3188L32.6798 32.7939ZM12.2508 28.9884C12.2508 29.4871 12.5831 29.8861 12.9844 29.8861C13.392 29.8861 13.7181 29.4871 13.7181 28.9884C13.7181 28.4897 13.3857 28.0908 12.9844 28.0908C12.5769 28.0908 12.2508 28.4974 12.2508 28.9884ZM15.0662 25.2827C15.0662 25.7814 15.3985 26.1803 15.7999 26.1803C16.2012 26.1803 16.5272 25.7814 16.5335 25.2827C16.5335 24.784 16.2074 24.385 15.7999 24.385C15.3923 24.385 15.0662 24.7917 15.0662 25.2827ZM19.3928 19.889C19.3928 19.3903 19.0605 18.9914 18.6592 18.9914C18.2516 18.9914 17.9255 19.3903 17.9255 19.889C17.9255 20.3877 18.2516 20.7867 18.6592 20.7867C19.0667 20.7867 19.3928 20.3801 19.3928 19.889ZM17.4427 21.0092C17.0351 21.0092 16.7091 21.4158 16.7091 21.9069C16.7091 22.4056 17.0351 22.8045 17.4427 22.8045C17.8503 22.8045 18.1763 22.3979 18.1763 21.9069C18.1763 21.4081 17.844 21.0092 17.4427 21.0092ZM17.4364 25.2827C17.4364 25.7814 17.7688 26.1803 18.1701 26.1803C18.5714 26.1803 18.9037 25.7814 18.9037 25.2827C18.9037 24.784 18.5714 24.385 18.1701 24.385C17.7625 24.385 17.4364 24.7917 17.4364 25.2827ZM19.3928 21.9069C18.9852 21.9069 18.6592 22.3135 18.6592 22.8045C18.6592 23.2955 18.9852 23.7022 19.3928 23.7022C19.8004 23.7022 20.1264 23.3032 20.1264 22.8045C20.1264 22.3058 19.8004 21.9069 19.3928 21.9069ZM19.8129 25.2827C19.8129 25.7814 20.1452 26.1803 20.5466 26.1803C20.9479 26.1803 21.2739 25.7814 21.2802 25.2827C21.2802 24.784 20.9541 24.385 20.5466 24.385C20.139 24.385 19.8129 24.7917 19.8129 25.2827ZM20.9667 22.7968C20.9667 23.2955 21.299 23.6945 21.7003 23.6945C22.1016 23.6945 22.434 23.2955 22.434 22.7968C22.434 22.2981 22.1079 21.8992 21.7003 21.8992C21.2927 21.8992 20.9667 22.2981 20.9667 22.7968ZM23.1174 25.6279C23.1174 26.1266 23.4498 26.5256 23.8511 26.5256C24.2586 26.5256 24.5847 26.1266 24.5847 25.6279C24.5847 25.1292 24.2586 24.7303 23.8511 24.7303C23.4435 24.7303 23.1174 25.1369 23.1174 25.6279Z" fill="#00C389"/>
</svg>
