<svg width="29" height="24" viewBox="0 0 29 24" fill="none" xmlns="http://www.w3.org/2000/svg">
<path d="M6.29474 0.0496674C6.24507 0.0496674 6.24507 0.0496674 6.1954 0.0496674C4.15902 0.0496674 2.27165 1.04302 1.12929 2.73173C-0.0627383 4.42043 -0.311077 6.55615 0.384272 8.49319C0.582943 9.03954 0.880947 9.53621 1.27829 9.98322L6.24507 15.7944L11.2118 9.98322C11.6092 9.53621 11.9072 9.03954 12.1059 8.49319C12.8012 6.60581 12.5529 4.4701 11.3609 2.7814C10.2682 1.04302 8.33112 0.0496674 6.29474 0.0496674ZM11.1125 8.09585C10.9138 8.54286 10.6655 8.9402 10.3675 9.28787L6.24507 14.1056L2.17231 9.23821C1.8743 8.89053 1.62596 8.49319 1.47696 8.09585C0.880948 6.50648 1.07962 4.71844 2.07298 3.32774C3.01666 1.93704 4.60603 1.09269 6.34441 1.09269C6.34441 1.09269 6.34441 1.09269 6.39407 1.09269C8.08278 1.09269 9.67215 1.93704 10.6158 3.32774C11.5099 4.71844 11.7085 6.50648 11.1125 8.09585Z" fill="white"/>
<path d="M6.29476 3.22839C4.65573 3.22839 3.3147 4.56942 3.3147 6.20846C3.3147 7.8475 4.65573 9.18853 6.29476 9.18853C7.9338 9.18853 9.27483 7.8475 9.27483 6.20846C9.27483 4.56942 7.9338 3.22839 6.29476 3.22839ZM6.29476 8.1455C5.25174 8.1455 4.35772 7.30115 4.35772 6.20846C4.35772 5.11577 5.20207 4.27142 6.29476 4.27142C7.38746 4.27142 8.23181 5.11577 8.23181 6.20846C8.23181 7.30115 7.33779 8.1455 6.29476 8.1455Z" fill="white"/>
<path d="M22.9335 18.1784C22.2878 17.8804 21.5925 17.8307 20.8971 18.0294C20.1024 18.2777 19.5064 18.9234 19.2084 19.7181L19.1091 20.0161H8.9272L8.82787 19.7181C8.48019 18.6254 7.43717 17.9301 6.29481 17.9301C4.85444 17.9301 3.66241 19.1221 3.66241 20.6121C3.66241 21.3075 3.96042 22.0028 4.4571 22.4995C4.95378 22.9962 5.64913 23.2445 6.34448 23.2445C7.48683 23.2445 8.48019 22.4995 8.82787 21.4565L8.9272 21.1585H19.1588L19.2581 21.4565C19.4568 22.1022 19.9534 22.6485 20.5991 22.9962C21.2448 23.2942 21.9402 23.3439 22.6355 23.1452C24.0262 22.6982 24.7712 21.2081 24.3242 19.8174C24.0262 19.0228 23.5792 18.4764 22.9335 18.1784ZM6.29481 22.1518C5.40079 22.1518 4.70544 21.4565 4.70544 20.5625C4.70544 19.6684 5.40079 18.9731 6.29481 18.9731C7.18883 18.9731 7.88418 19.6684 7.88418 20.5625C7.83451 21.4068 7.13916 22.1022 6.29481 22.1518ZM21.7912 22.1022C20.9468 22.1022 20.2018 21.4068 20.2018 20.5128C20.2018 19.6684 20.8971 18.9731 21.7415 18.9234C22.5858 18.9234 23.3309 19.6188 23.3309 20.5128C23.3309 21.4068 22.6355 22.1022 21.7912 22.1022Z" fill="white"/>
<path d="M27.6519 8.44352C28.397 6.50648 28.0989 4.37077 26.9069 2.68206C25.7149 0.943688 23.7282 0 21.7415 0C20.4998 0 19.3077 0.347674 18.2151 1.09269C17.5694 1.5397 17.0727 2.03638 16.6257 2.68206C15.4337 4.37077 15.1853 6.50648 15.8807 8.44352C16.0793 8.98987 16.3774 9.48655 16.7747 9.93356L21.7415 15.7447L26.7082 9.93356C27.1056 9.48655 27.4036 8.98987 27.6519 8.44352ZM26.6089 8.09585C26.4102 8.54286 26.2116 8.89053 25.8639 9.23821L21.7415 14.056L17.619 9.23821C17.321 8.89053 17.0727 8.49319 16.9237 8.09585C16.3277 6.50648 16.5264 4.71844 17.5197 3.32774C18.3144 2.18538 19.5064 1.44037 20.8474 1.19203C22.1885 0.943688 23.5792 1.24169 24.7215 2.03638C25.2182 2.38405 25.6652 2.83106 26.0129 3.32774C27.0063 4.71844 27.2546 6.50648 26.6089 8.09585Z" fill="white"/>
<path d="M21.7912 3.22839C20.1521 3.22839 18.8111 4.56942 18.8111 6.20846C18.8111 7.8475 20.1521 9.18853 21.7912 9.18853C23.4302 9.18853 24.7712 7.8475 24.7712 6.20846C24.7712 4.56942 23.4302 3.22839 21.7912 3.22839ZM21.7912 8.1455C20.7481 8.1455 19.8541 7.30115 19.8541 6.20846C19.8541 5.11577 20.6985 4.27142 21.7912 4.27142C22.8342 4.27142 23.7282 5.11577 23.7282 6.20846C23.7282 7.30115 22.8342 8.1455 21.7912 8.1455Z" fill="white"/>
</svg>
