<svg width="29" height="24" viewBox="0 0 29 24" fill="none" xmlns="http://www.w3.org/2000/svg">
<path d="M6.29474 0.0496674C6.24507 0.0496674 6.24507 0.0496674 6.1954 0.0496674C4.15902 0.0496674 2.27165 1.04302 1.12929 2.73173C-0.0627383 4.42043 -0.311077 6.55615 0.384272 8.49319C0.582943 9.03954 0.880947 9.53621 1.27829 9.98322L6.24507 15.7944L11.2118 9.98322C11.6092 9.53621 11.9072 9.03954 12.1059 8.49319C12.8012 6.60581 12.5529 4.4701 11.3609 2.7814C10.2682 1.04302 8.33112 0.0496674 6.29474 0.0496674ZM11.1125 8.09585C10.9138 8.54286 10.6655 8.9402 10.3675 9.28787L6.24507 14.1056L2.17231 9.23821C1.8743 8.89053 1.62596 8.49319 1.47696 8.09585C0.880948 6.50648 1.07962 4.71844 2.07298 3.32774C3.01666 1.93704 4.60603 1.09269 6.34441 1.09269C6.34441 1.09269 6.34441 1.09269 6.39407 1.09269C8.08278 1.09269 9.67215 1.93704 10.6158 3.32774C11.5099 4.71844 11.7085 6.50648 11.1125 8.09585Z" fill="#AEADAD"/>
<path d="M6.29476 3.22839C4.65573 3.22839 3.3147 4.56942 3.3147 6.20846C3.3147 7.8475 4.65573 9.18853 6.29476 9.18853C7.9338 9.18853 9.27483 7.8475 9.27483 6.20846C9.27483 4.56942 7.9338 3.22839 6.29476 3.22839ZM6.29476 8.1455C5.25174 8.1455 4.35772 7.30115 4.35772 6.20846C4.35772 5.11577 5.20207 4.27142 6.29476 4.27142C7.38746 4.27142 8.23181 5.11577 8.23181 6.20846C8.23181 7.30115 7.33779 8.1455 6.29476 8.1455Z" fill="#AEADAD"/>
<path d="M22.9336 18.1784C22.2879 17.8804 21.5925 17.8307 20.8972 18.0294C20.1025 18.2777 19.5065 18.9234 19.2085 19.7181L19.1092 20.0161H8.92726L8.82793 19.7181C8.48025 18.6254 7.43723 17.9301 6.29487 17.9301C4.8545 17.9301 3.66248 19.1221 3.66248 20.6121C3.66248 21.3075 3.96048 22.0028 4.45716 22.4995C4.95384 22.9962 5.64919 23.2445 6.34454 23.2445C7.4869 23.2445 8.48025 22.4995 8.82793 21.4565L8.92726 21.1585H19.1588L19.2582 21.4565C19.4568 22.1022 19.9535 22.6485 20.5992 22.9962C21.2449 23.2942 21.9402 23.3439 22.6356 23.1452C24.0263 22.6982 24.7713 21.2081 24.3243 19.8174C24.0263 19.0228 23.5793 18.4764 22.9336 18.1784ZM6.29487 22.1518C5.40085 22.1518 4.7055 21.4565 4.7055 20.5625C4.7055 19.6684 5.40085 18.9731 6.29487 18.9731C7.18889 18.9731 7.88424 19.6684 7.88424 20.5625C7.83457 21.4068 7.13922 22.1022 6.29487 22.1518ZM21.7912 22.1022C20.9469 22.1022 20.2018 21.4068 20.2018 20.5128C20.2018 19.6684 20.8972 18.9731 21.7416 18.9234C22.5859 18.9234 23.3309 19.6188 23.3309 20.5128C23.3309 21.4068 22.6356 22.1022 21.7912 22.1022Z" fill="#AEADAD"/>
<path d="M27.6519 8.44352C28.3969 6.50648 28.0989 4.37077 26.9069 2.68206C25.7148 0.943688 23.7281 0 21.7414 0C20.4997 0 19.3077 0.347674 18.215 1.09269C17.5693 1.5397 17.0726 2.03638 16.6256 2.68206C15.4336 4.37077 15.1853 6.50648 15.8806 8.44352C16.0793 8.98987 16.3773 9.48655 16.7746 9.93356L21.7414 15.7447L26.7082 9.93356C27.1055 9.48655 27.4035 8.98987 27.6519 8.44352ZM26.6089 8.09585C26.4102 8.54286 26.2115 8.89053 25.8638 9.23821L21.7414 14.056L17.619 9.23821C17.321 8.89053 17.0726 8.49319 16.9236 8.09585C16.3276 6.50648 16.5263 4.71844 17.5196 3.32774C18.3143 2.18538 19.5064 1.44037 20.8474 1.19203C22.1884 0.943688 23.5791 1.24169 24.7215 2.03638C25.2182 2.38405 25.6652 2.83106 26.0128 3.32774C27.0062 4.71844 27.2545 6.50648 26.6089 8.09585Z" fill="#AEADAD"/>
<path d="M21.7912 3.22839C20.1522 3.22839 18.8112 4.56942 18.8112 6.20846C18.8112 7.8475 20.1522 9.18853 21.7912 9.18853C23.4303 9.18853 24.7713 7.8475 24.7713 6.20846C24.7713 4.56942 23.4303 3.22839 21.7912 3.22839ZM21.7912 8.1455C20.7482 8.1455 19.8542 7.30115 19.8542 6.20846C19.8542 5.11577 20.6985 4.27142 21.7912 4.27142C22.8342 4.27142 23.7283 5.11577 23.7283 6.20846C23.7283 7.30115 22.8342 8.1455 21.7912 8.1455Z" fill="#AEADAD"/>
</svg>
