<svg width="28" height="37" viewBox="0 0 28 37" fill="none" xmlns="http://www.w3.org/2000/svg">
<path fill-rule="evenodd" clip-rule="evenodd" d="M1.35941 4.85383H25.9646L27.112 0.909746C27.1758 0.738264 27.112 0.566781 26.9845 0.395299C26.857 0.280978 26.6658 0.166656 26.4746 0.166656H0.849459C0.658227 0.166656 0.466995 0.223817 0.339507 0.395299C0.212019 0.509621 0.148275 0.738264 0.212019 0.909746L1.35941 4.85383ZM25.901 31.662H25.7735H1.35951L0.21212 35.6061C0.148376 35.7776 0.21212 35.9491 0.339608 36.1206C0.467096 36.2349 0.658328 36.3492 0.84956 36.3492H26.4109C26.6022 36.3492 26.7934 36.2921 26.9209 36.1206C27.0484 36.0063 27.0484 35.7776 27.0484 35.6061L25.901 31.662ZM1.42309 5.99691H25.9008C27.4307 14.1709 27.4307 22.402 25.8371 30.576H25.7733H1.42309C-0.170507 22.402 -0.170507 14.1709 1.42309 5.99691ZM4.48281 22.8593H23.2236V21.7161H4.48281V22.8593ZM4.48281 18.5723H23.2236V17.4291H4.48281V18.5723ZM4.48281 14.2852H23.2236V13.142H4.48281V14.2852Z" fill="white"/>
</svg>
