<svg width="42" height="43" viewBox="0 0 42 43" fill="none" xmlns="http://www.w3.org/2000/svg">
<path d="M35.113 26.2184L33.8585 25.173C33.0918 24.5458 32.6737 23.5701 32.7434 22.5944C32.7434 22.3853 32.7434 22.1414 32.7434 21.9323C32.7434 21.7232 32.7434 21.4793 32.7434 21.2702C32.7085 20.2945 33.1267 19.3188 33.8585 18.6915L35.113 17.6461C35.7054 17.1583 35.8796 16.3219 35.4963 15.6598L33.6842 12.5236C33.3009 11.8615 32.4995 11.5828 31.8025 11.8615L30.2344 12.4191C29.2935 12.7676 28.283 12.663 27.4467 12.1055C27.0633 11.8615 26.68 11.6176 26.2967 11.4434C25.4255 10.9904 24.7983 10.154 24.6241 9.17833L24.3453 7.61022C24.1711 6.80874 23.509 6.25119 22.7423 6.25119H19.1531C18.3865 6.25119 17.7244 6.80874 17.585 7.57537L17.3062 9.14348C17.1668 10.1192 16.5744 10.9555 15.7033 11.4085C15.2851 11.6176 14.9018 11.8267 14.5533 12.0706C13.717 12.5933 12.6716 12.7327 11.7656 12.3842L10.1975 11.8267C9.50053 11.5828 8.69905 11.8615 8.31573 12.4888L6.5037 15.625C6.12038 16.2871 6.29462 17.1234 6.88701 17.6113L8.1415 18.6567C8.90813 19.2839 9.32629 20.2596 9.2566 21.2353C9.2566 21.4444 9.2566 21.6883 9.2566 21.8974C9.2566 22.1065 9.2566 22.3504 9.2566 22.5595C9.29144 23.5352 8.87328 24.5109 8.1415 25.1382L6.88701 26.1836C6.29462 26.7063 6.12038 27.5426 6.5037 28.2047L8.31573 31.3409C8.69905 32.003 9.50053 32.2818 10.1975 32.003L11.7656 31.4455C12.7064 31.097 13.717 31.2015 14.5533 31.7591C14.9366 32.003 15.32 32.2469 15.7033 32.4212C16.5744 32.8742 17.2017 33.7105 17.3759 34.6862L17.6547 36.2543C17.7941 37.021 18.4562 37.5785 19.2228 37.5785H22.812C23.5787 37.5785 24.2407 37.021 24.3801 36.2543L24.6589 34.6862C24.8331 33.7105 25.4255 32.8742 26.3316 32.4212C26.7497 32.2121 27.133 32.003 27.4815 31.7591C28.3178 31.2364 29.3632 31.097 30.2693 31.4455L31.8374 32.003C32.5343 32.2121 33.2661 31.9333 33.6494 31.3409L35.4614 28.2047C35.8447 27.5426 35.7054 26.7063 35.113 26.2184ZM21 26.6366C18.3865 26.6366 16.2957 24.5109 16.2957 21.9323C16.2957 19.3536 18.3865 17.2279 21 17.2279C23.6135 17.2279 25.7043 19.3188 25.7043 21.9323C25.7043 23.1868 25.2165 24.3716 24.3104 25.2776C23.4044 26.1836 22.2196 26.6366 21 26.6366Z" fill="#121C4D"/>
</svg>
