<svg width="60" height="60" viewBox="0 0 60 60" fill="none" xmlns="http://www.w3.org/2000/svg">
<path d="M24.8943 32.3476C24.8943 33.505 25.7794 34.3901 26.9368 34.3901V30.3051C25.7794 30.3051 24.8943 31.1902 24.8943 32.3476Z" fill="#121C4D"/>
<path d="M28.2986 39.8367C29.456 39.8367 30.3411 38.9516 30.3411 37.7942C30.3411 36.6368 29.456 35.7517 28.2986 35.7517V39.8367Z" fill="#121C4D"/>
<path d="M35.7875 43.2408C34.2897 43.2408 33.0642 42.0153 33.0642 40.5175C33.0642 39.0197 34.2897 37.7942 35.7875 37.7942C37.2853 37.7942 38.5108 39.0197 38.5108 40.5175C38.5108 42.0153 37.2853 43.2408 35.7875 43.2408ZM35.7875 39.1558C35.0386 39.1558 34.4259 39.7686 34.4259 40.5175C34.4259 41.2664 35.0386 41.8791 35.7875 41.8791C36.5364 41.8791 37.1492 41.2664 37.1492 40.5175C37.1492 39.7686 36.5364 39.1558 35.7875 39.1558Z" fill="#121C4D"/>
<path d="M43.2768 49.3682C41.779 49.3682 40.5535 48.1427 40.5535 46.6449C40.5535 45.1471 41.779 43.9216 43.2768 43.9216C44.7746 43.9216 46.0001 45.1471 46.0001 46.6449C46.0001 48.1427 44.7746 49.3682 43.2768 49.3682ZM43.2768 45.2833C42.5279 45.2833 41.9151 45.896 41.9151 46.6449C41.9151 47.3938 42.5279 48.0066 43.2768 48.0066C44.0257 48.0066 44.6384 47.3938 44.6384 46.6449C44.6384 45.896 44.0257 45.2833 43.2768 45.2833Z" fill="#121C4D"/>
<path d="M31.7027 22.816H23.5328C22.7839 22.816 22.1711 22.2033 22.1711 21.4544C22.1711 20.7055 22.7839 20.0927 23.5328 20.0927H31.7027C32.4516 20.0927 33.0644 20.7055 33.0644 21.4544C33.0644 22.2033 32.4516 22.816 31.7027 22.816Z" fill="#121C4D"/>
<path d="M32.7919 12.059C31.9749 12.876 31.0899 13.9653 30.3409 15.3269L32.7238 9.88034H22.5115C22.5115 9.88034 24.5539 14.0334 24.8943 15.3269C24.8943 15.3269 23.8731 13.693 22.5115 12.059L18.9031 13.8291L19.7201 14.51C21.6264 16.0759 22.9199 17.5056 23.6689 18.7311H31.7026C32.4515 17.4375 33.677 16.0759 35.6514 14.51L36.4684 13.8291L32.7919 12.059Z" fill="#121C4D"/>
<path d="M33.8132 48.0066L36.196 44.6024C36.0599 44.6024 35.9237 44.6024 35.7195 44.6024C33.4727 44.6024 31.6345 42.7642 31.6345 40.5175C31.6345 38.2708 33.4727 36.4325 35.7195 36.4325C37.2173 36.4325 38.5109 37.2495 39.2598 38.475L38.9194 35.0028C38.5789 30.9178 36.6045 27.1052 33.4727 24.5862L33.0643 24.1777H22.171L21.6945 24.5181C18.5627 27.1052 16.5883 30.9178 16.2479 34.9347L15.4309 43.9216C14.2054 44.0578 13.3203 45.079 13.3203 46.3045C13.3203 47.5981 14.4096 48.6874 15.7032 48.6874H33.3366L33.8132 48.0066ZM28.2985 41.1983V42.56H26.9368V41.1983C25.0305 41.1983 23.5327 39.7005 23.5327 37.7942H24.8943C24.8943 38.9516 25.7794 39.8367 26.9368 39.8367V35.7517C25.0305 35.7517 23.5327 34.2539 23.5327 32.3476C23.5327 30.4413 25.0305 28.9435 26.9368 28.9435V27.5818H28.2985V28.9435C30.2048 28.9435 31.7026 30.4413 31.7026 32.3476H30.341C30.341 31.1902 29.4559 30.3051 28.2985 30.3051V34.3901C30.2048 34.3901 31.7026 35.8879 31.7026 37.7942C31.7026 39.7005 30.2048 41.1983 28.2985 41.1983Z" fill="#121C4D"/>
<path d="M33.8699 50.339L34.9856 51.1197L44.5093 37.5077L43.3936 36.727L33.8699 50.339Z" fill="#121C4D"/>
</svg>
