<svg width="22" height="22" viewBox="0 0 22 22" fill="none" xmlns="http://www.w3.org/2000/svg">
<path d="M11 0C4.92419 0 0 4.92419 0 11C0 17.0758 4.92419 22 11 22C17.0758 22 22 17.0758 22 11C21.9603 4.92419 17.0361 0 11 0ZM17.5921 11.7942H12.9458L16.2419 15.0903L15.0903 16.2419L11.7942 12.9458V17.5921H10.1661V12.9458L6.87004 16.2419L5.71841 15.0903L9.01444 11.7942H4.36823V10.1661H9.01444L5.71841 6.87004L6.87004 5.71841L10.1661 9.01444V4.36823H11.7942V9.01444L15.0903 5.71841L16.2419 6.87004L12.9458 10.1661H17.5921V11.7942Z" fill="#9EA2A2"/>
</svg>
