<svg width="78" height="99" viewBox="0 0 78 99" fill="none" xmlns="http://www.w3.org/2000/svg">
<path d="M57.1032 1.29422e-08H7.2468C5.33847 -0.000113958 3.50712 0.752505 2.15034 2.09446C0.793553 3.43642 0.020856 5.25939 0 7.1676V91.872C0.0311732 93.7733 0.808413 95.5862 2.16409 96.9196C3.51976 98.2531 5.34524 99.0003 7.2468 99H69.9732C71.8952 99 73.7384 98.2365 75.0975 96.8775C76.4565 95.5184 77.22 93.6752 77.22 91.7532V19.2852L57.1032 1.29422e-08ZM67.518 24.156H52.9848V10.1772H57.9348V19.1664H67.518V24.156Z" fill="#9EA2A2"/>
<path d="M49.5002 53.262C51.0446 53.262 52.4306 53.262 53.8166 53.4996C55.777 53.6966 57.5935 54.6172 58.9116 56.0817C60.2296 57.5461 60.9545 59.4493 60.9446 61.4195C60.9446 65.2211 60.9446 69.0227 60.9446 72.8243C60.9446 74.9249 60.1102 76.9394 58.6249 78.4246C57.1396 79.9099 55.1251 80.7443 53.0246 80.7443C48.1142 80.7443 43.2038 80.7443 38.333 80.7443C36.403 80.5046 34.4958 80.1073 32.6306 79.5564C32.1857 79.5247 31.7393 79.5923 31.3238 79.7543C30.3055 80.2042 29.244 80.5492 28.1558 80.7839C25.7402 80.7839 23.3246 80.7839 20.909 80.7839C20.2601 80.8129 19.6123 80.7051 19.0077 80.4675C18.4031 80.2299 17.8553 79.8678 17.3997 79.4048C16.9441 78.9417 16.591 78.3881 16.3633 77.7797C16.1356 77.1714 16.0383 76.5219 16.0778 75.8735C16.0778 69.0623 16.0778 62.2512 16.0778 55.4796C16.0383 54.8312 16.1356 54.1817 16.3633 53.5734C16.591 52.965 16.9441 52.4114 17.3997 51.9483C17.8553 51.4853 18.4031 51.1232 19.0077 50.8856C19.6123 50.648 20.2601 50.5402 20.909 50.5692H28.3142C28.8577 50.512 29.4064 50.6081 29.8982 50.8464C31.0466 51.5988 31.7594 50.8463 32.591 50.3315C34.9267 48.4244 36.9218 46.1347 38.4914 43.56C39.202 42.3854 40.2686 41.4681 41.5362 40.9411C42.8038 40.4141 44.2063 40.305 45.5402 40.6296C46.8592 40.8067 48.0865 41.4024 49.0417 42.3291C49.9969 43.2558 50.6296 44.4645 50.8466 45.7775C51.0173 47.0988 50.9503 48.4399 50.6486 49.7375C50.3639 50.9421 49.9798 52.1209 49.5002 53.262ZM33.2246 65.142C33.2246 67.8744 33.2246 70.5672 33.2246 73.062C33.2246 73.854 33.4622 74.3291 34.175 74.4875C35.9492 74.9994 37.7644 75.3572 39.6002 75.5567C43.8374 75.5567 48.1142 75.5567 52.391 75.5567C52.8714 75.6155 53.3588 75.5633 53.8159 75.4044C54.273 75.2454 54.6876 74.9838 55.0279 74.6397C55.3682 74.2956 55.6251 73.8781 55.7789 73.4193C55.9328 72.9604 55.9795 72.4724 55.9154 71.9927V62.4888C55.9154 59.3604 54.8462 58.2911 51.7574 58.2911H44.5502C44.0139 58.3139 43.4865 58.1482 43.0597 57.8227C42.6329 57.4971 42.3336 57.0324 42.2138 56.5092C42.0169 56.0359 41.9966 55.5077 42.1565 55.0207C42.3164 54.5337 42.6459 54.1204 43.085 53.856C43.4886 53.5917 43.8291 53.2419 44.0824 52.8312C44.3356 52.4206 44.4953 51.9592 44.5502 51.4799L45.6194 48.3515C46.055 46.9655 45.8174 46.0548 44.867 45.6192C43.9166 45.1836 43.0454 45.6191 42.2534 46.7675C40.1701 50.2093 37.3753 53.1662 34.0562 55.4399C33.7639 55.6013 33.5255 55.8449 33.3706 56.1406C33.2157 56.4363 33.1512 56.771 33.185 57.1031C33.2246 59.7959 33.2246 62.4095 33.2246 65.0231V65.142ZM21.3446 75.7547H28.037V55.9547H21.3446V75.7547Z" fill="white"/>
</svg>
