<svg width="77" height="99" viewBox="0 0 77 99" fill="none" xmlns="http://www.w3.org/2000/svg">
<path d="M56.9405 1.29054e-08H7.22615C5.32326 -0.000113633 3.49713 0.750361 2.14421 2.08849C0.791292 3.42663 0.0207966 5.2444 0 7.14718V91.6103C0.0310843 93.5062 0.80611 95.3139 2.15792 96.6435C3.50973 97.9732 5.33001 98.7182 7.22615 98.718H69.7738C71.6903 98.718 73.5283 97.9566 74.8835 96.6015C76.2387 95.2463 77 93.4083 77 91.4918V19.2303L56.9405 1.29054e-08ZM67.3256 24.0872H52.8338V10.1482H57.7697V19.1118H67.3256V24.0872Z" fill="#121C4D"/>
<path d="M49.359 53.1101C50.899 53.1101 52.2811 53.1101 53.6632 53.347C55.618 53.5434 57.4293 54.4615 58.7436 55.9218C60.0579 57.3821 60.7807 59.2798 60.7708 61.2444C60.7708 65.0352 60.7708 68.826 60.7708 72.6167C60.7708 74.7113 59.9388 76.72 58.4577 78.2011C56.9767 79.6821 54.9679 80.5142 52.8734 80.5142C47.977 80.5142 43.0806 80.5142 38.2237 80.5142C36.2991 80.2751 34.3974 79.8789 32.5375 79.3296C32.0939 79.298 31.6488 79.3654 31.2344 79.527C30.219 79.9756 29.1606 80.3196 28.0755 80.5537C25.6667 80.5537 23.258 80.5537 20.8493 80.5537C20.2022 80.5826 19.5563 80.475 18.9534 80.2381C18.3506 80.0012 17.8043 79.6402 17.35 79.1784C16.8958 78.7167 16.5436 78.1646 16.3166 77.558C16.0895 76.9514 15.9925 76.3038 16.0319 75.6573C16.0319 68.8655 16.0319 62.0737 16.0319 55.3214C15.9925 54.6748 16.0895 54.0272 16.3166 53.4206C16.5436 52.814 16.8958 52.2619 17.35 51.8002C17.8043 51.3385 18.3506 50.9774 18.9534 50.7405C19.5563 50.5036 20.2022 50.3961 20.8493 50.425H28.2334C28.7754 50.368 29.3225 50.4637 29.8129 50.7014C30.958 51.4516 31.6688 50.7014 32.498 50.188C34.8271 48.2863 36.8165 46.0031 38.3816 43.4357C39.0902 42.2646 40.1537 41.3498 41.4177 40.8243C42.6817 40.2988 44.0803 40.19 45.4103 40.5137C46.7256 40.6903 47.9494 41.2843 48.9019 42.2084C49.8544 43.1324 50.4852 44.3377 50.7016 45.647C50.8719 46.9645 50.805 48.3018 50.5042 49.5957C50.2203 50.7968 49.8373 51.9723 49.359 53.1101ZM33.1298 64.9562C33.1298 67.6809 33.1298 70.366 33.1298 72.8537C33.1298 73.6434 33.3667 74.1173 34.0775 74.2752C35.8467 74.7857 37.6567 75.1424 39.4873 75.3414C43.7124 75.3414 47.977 75.3414 52.2416 75.3414C52.7206 75.3999 53.2067 75.3479 53.6625 75.1894C54.1182 75.0309 54.5317 74.7701 54.871 74.4269C55.2103 74.0838 55.4665 73.6675 55.6199 73.21C55.7733 72.7524 55.8199 72.2658 55.756 71.7875V62.3106C55.756 59.1911 54.6898 58.125 51.6098 58.125H44.4231C43.8884 58.1477 43.3625 57.9824 42.9369 57.6578C42.5113 57.3332 42.2129 56.8698 42.0934 56.348C41.8971 55.8761 41.8768 55.3494 42.0363 54.8638C42.1957 54.3782 42.5243 53.9661 42.9621 53.7024C43.3646 53.4389 43.7041 53.09 43.9567 52.6806C44.2092 52.2711 44.3684 51.8111 44.4231 51.3332L45.4893 48.2137C45.9237 46.8316 45.6867 45.9234 44.739 45.4891C43.7914 45.0547 42.9226 45.4891 42.1329 46.6342C40.0555 50.0662 37.2687 53.0146 33.959 55.2819C33.6676 55.4427 33.4299 55.6857 33.2755 55.9806C33.121 56.2754 33.0566 56.6092 33.0903 56.9403C33.1298 59.6255 33.1298 62.2316 33.1298 64.8378V64.9562ZM21.2837 75.5388H27.957V55.7952H21.2837V75.5388Z" fill="white"/>
</svg>
