<svg width="23" height="23" viewBox="0 0 23 23" fill="none" xmlns="http://www.w3.org/2000/svg">
<path fill-rule="evenodd" clip-rule="evenodd" d="M5.85939 2.44014C5.85939 1.09128 6.96017 0 8.31366 0H14.1731C15.5265 0 16.6273 1.09128 16.6273 2.44014V2.91083H21.9794C22.2337 2.91083 22.4985 3.11376 22.4682 3.42521V4.38683C22.4682 4.65667 22.2494 4.88641 21.967 4.88641H19.5447V19.8928C19.5447 21.2417 18.4439 22.333 17.0904 22.333H5.37778C4.02429 22.333 2.92352 21.2417 2.92352 19.8928V4.87413H0.501136C0.233658 4.87413 0 4.65918 0 4.37455V3.40427C0 3.13443 0.218769 2.90469 0.501136 2.90469H5.85939V2.44014ZM8.31366 1.97558C8.05396 1.97558 7.84441 2.18619 7.84441 2.44014V2.90469H14.6423V2.44014C14.6423 2.18619 14.4327 1.97558 14.1731 1.97558H8.31366ZM4.91471 4.88641V19.899C4.91471 20.1529 5.12427 20.3635 5.38396 20.3635H17.1027C17.3624 20.3635 17.572 20.1529 17.572 19.899V4.88641H4.91471ZM7.3305 7.77682C7.3305 7.50699 7.54927 7.27724 7.83164 7.27724H8.8082C9.07568 7.27724 9.30934 7.49219 9.30934 7.77682V17.4796C9.30934 17.7494 9.09057 17.9792 8.8082 17.9792H7.83164C7.56416 17.9792 7.3305 17.7642 7.3305 17.4796V7.77682ZM10.254 7.77682C10.254 7.50698 10.4727 7.27724 10.7551 7.27724H11.7317C11.9991 7.27724 12.2328 7.49219 12.2328 7.77682V17.4796C12.2328 17.7494 12.014 17.9792 11.7317 17.9792H10.7551C10.4876 17.9792 10.254 17.7642 10.254 17.4796V7.77682ZM13.1837 7.77682C13.1837 7.50699 13.4025 7.27724 13.6849 7.27724H14.6614C14.9289 7.27724 15.1626 7.49219 15.1626 7.77682V17.4796C15.1626 17.7494 14.9438 17.9792 14.6614 17.9792H13.6849C13.4174 17.9792 13.1837 17.7642 13.1837 17.4796V7.77682Z" fill="white"/>
</svg>
