<svg width="60" height="60" viewBox="0 0 60 60" fill="none" xmlns="http://www.w3.org/2000/svg">
<path d="M17.908 9.00001C17.6545 9.00001 17.4105 9.09626 17.2253 9.26931L12.0762 14.0801C11.4132 14.6996 11.8515 15.8108 12.7589 15.8108H27.8649C28.4172 15.8108 28.8649 15.3631 28.8649 14.8108V10C28.8649 9.44772 28.4172 9.00001 27.8649 9.00001H17.908ZM32.1351 9.00001C31.5829 9.00001 31.1351 9.44772 31.1351 10V14.8108C31.1351 15.3631 31.5829 15.8108 32.1351 15.8108H47.2411C48.1485 15.8108 48.5868 14.6996 47.9238 14.0801L42.7747 9.26931C42.5895 9.09626 42.3455 9.00001 42.092 9.00001H32.1351ZM10 18.0811C9.44772 18.0811 9 18.5288 9 19.0811V50C9 50.5523 9.44772 51 10 51H50C50.5523 51 51 50.5523 51 50V19.0811C51 18.5288 50.5523 18.0811 50 18.0811H10ZM29.8758 23.739C30.0365 23.7213 30.1991 23.7381 30.3527 23.7883C30.5064 23.8385 30.6475 23.921 30.7667 24.0301C30.886 24.1393 30.9805 24.2726 31.044 24.4212C31.1076 24.5698 31.1386 24.7303 31.1351 24.8919V38.4009C31.1351 39.3292 32.2899 39.7565 32.8942 39.0519L35.9417 35.4983C36.0382 35.3835 36.1564 35.2889 36.2895 35.2198C36.4226 35.1508 36.568 35.1087 36.7174 35.0961C36.8668 35.0834 37.0173 35.1003 37.1601 35.1459C37.303 35.1915 37.4354 35.2649 37.5498 35.3618C37.6643 35.4587 37.7584 35.5773 37.8269 35.7107C37.8954 35.844 37.9369 35.9896 37.949 36.1391C37.9611 36.2886 37.9435 36.439 37.8973 36.5816C37.8512 36.7243 37.7773 36.8564 37.6799 36.9705L30.8691 44.9164C30.7625 45.0432 30.6295 45.1451 30.4794 45.2151C30.3292 45.285 30.1656 45.3213 30 45.3213C29.8344 45.3213 29.6708 45.285 29.5206 45.2151C29.3705 45.1451 29.2375 45.0432 29.1309 44.9164L22.3201 36.9705C22.1824 36.8145 22.0902 36.6238 22.0535 36.419C22.0168 36.2143 22.0371 36.0034 22.1121 35.8093C22.1872 35.6153 22.3141 35.4457 22.479 35.3189C22.6439 35.1921 22.8405 35.113 23.0473 35.0904C23.2365 35.0681 23.4283 35.0938 23.605 35.1651C23.7816 35.2363 23.9375 35.351 24.0583 35.4983L27.1058 39.0519C27.7101 39.7565 28.8649 39.3292 28.8649 38.4009V24.8919C28.8588 24.6081 28.9592 24.3324 29.1463 24.119C29.3334 23.9056 29.5937 23.77 29.8758 23.739Z" fill="#121C4D"/>
</svg>
