<svg width="60" height="44" viewBox="0 0 60 44" fill="none" xmlns="http://www.w3.org/2000/svg">
<path d="M30 0C25.5349 0 21.0698 1.67441 17.6512 5.09301C14.7907 7.95348 13.1163 11.6511 12.6279 15.4186C5.5814 16.0465 0 21.9767 0 29.3023C0 36.9767 6.27907 43.2558 13.9535 43.2558H48.1395C54.6977 43.2558 60 37.9535 60 31.3953C60 24.8372 54.6977 19.5349 48.1395 19.5349H47.3023C47.9302 14.3721 46.2558 9.06976 42.2791 5.09301C38.9302 1.67441 34.4651 0 30 0ZM30 14.6512C30.3488 14.6512 30.6279 14.7209 30.907 15L38.5814 21.9767C39.1395 22.4651 39.2093 23.4419 38.7209 23.9302C38.2326 24.4186 37.2558 24.4883 36.7674 24L31.3953 19.1163V34.1163C31.3953 34.8837 30.7674 35.5116 30 35.5116C29.2326 35.5116 28.6047 34.8837 28.6047 34.1163V19.1163L23.2326 24C22.6744 24.4883 21.7674 24.4884 21.2791 23.9302C20.7907 23.3721 20.7907 22.4651 21.4186 21.9767L29.093 15C29.2326 14.7907 29.6512 14.6512 30 14.6512Z" fill="#E0E0E0"/>
</svg>
