<svg id="SvgjsSvg1001" width="288" height="288" xmlns="http://www.w3.org/2000/svg" version="1.1" xmlns:xlink="http://www.w3.org/1999/xlink" xmlns:svgjs="http://svgjs.com/svgjs"><defs id="SvgjsDefs1002"></defs><g id="SvgjsG1008" transform="matrix(1,0,0,1,0,0)"><svg xmlns="http://www.w3.org/2000/svg" width="288" height="288" version="1.0" viewBox="0 0 145 145"><g transform="matrix(.1 0 0 -.1 0 145)" fill="#9ea2a2" class="color000 svgShape"><path d="M665 1281c-3-5-18-12-33-16-47-10-115-69-147-126-28-51-30-61-33-187l-4-133 69 3 68 3 5 122c5 112 7 124 30 149 51 55 118 67 180 33 61-34 74-68 78-196l4-113 64 0 64 0 0 116c0 64-5 134-11 154-32 108-157 200-271 200-31 0-59-4-63-9zM404 779c-18-5-46-25-63-44l-31-36 0-231 0-231 45-44 45-43 325 0 325 0 39 24c61 39 66 63 66 301 0 201-1 212-23 246-40 65-62 69-400 68-163 0-311-5-328-10zm377-218c28-23 32-87 6-105-11-9-17-31-19-81-3-75-21-100-55-79-14 8-19 27-21 80-2 40-9 75-17 84-60 67 35 158 106 101z" fill="#9ea2a2" class="color000 svgShape"></path></g></svg></g></svg>