<svg id="SvgjsSvg1001" width="288" height="288" xmlns="http://www.w3.org/2000/svg" version="1.1" xmlns:xlink="http://www.w3.org/1999/xlink" xmlns:svgjs="http://svgjs.com/svgjs"><defs id="SvgjsDefs1002"></defs><g id="SvgjsG1008" transform="matrix(1,0,0,1,0,0)"><svg xmlns="http://www.w3.org/2000/svg" width="288" height="288" version="1.0" viewBox="0 0 145 145"><g transform="matrix(.1 0 0 -.1 0 145)" fill="#9ea2a2" class="color000 svgShape"><path d="M665 1303 c-78 -17 -132 -54 -156 -107 -39 -86 -16 -268 52 -417 42-93 47 -123 25 -155 -8 -11 -66 -46 -128 -77 -129 -64 -180 -103 -208 -158
-25 -48 -25 -76 0 -116 36 -59 118 -85 368 -118 112 -14 140 -14 224 1 l27 5
-35 31 c-57 50 -78 101 -78 188 0 57 5 85 21 116 21 39 77 96 105 107 10 4 11
7 1 18 -21 21 -15 53 22 139 70 158 97 348 62 432 -36 86 -179 138 -302 111z" fill="#9ea2a2" class="color000 svgShape"></path><path d="M988 549 c-13 -7 -18 -23 -18 -54 0 -69 -5 -75 -64 -75 -54 0 -76
-12 -76 -40 0 -29 33 -49 85 -52 l50 -3 3 -50 c4 -54 15 -75 42 -75 28 0 44
28 45 79 l0 46 58 5 c58 5 77 18 77 51 0 27 -23 39 -76 39 -59 0 -67 9 -59 68
3 23 -1 38 -15 52 -23 23 -28 23 -52 9z" fill="#9ea2a2" class="color000 svgShape"></path></g></svg></g></svg>