<svg width="25" height="24" viewBox="0 0 25 24" fill="none" xmlns="http://www.w3.org/2000/svg">
<path d="M10.1569 9.7075C10.1235 9.45472 10.1445 9.19772 10.2184 8.9537C10.2924 8.70969 10.4176 8.48427 10.5856 8.29254C10.7537 8.10081 10.9608 7.94719 11.1931 7.84195C11.4253 7.73671 11.6773 7.68228 11.9323 7.68231H12.1012C12.3562 7.68228 12.6082 7.73671 12.8404 7.84195C13.0727 7.94719 13.2798 8.10081 13.4479 8.29254C13.6159 8.48427 13.7411 8.70969 13.8151 8.9537C13.889 9.19772 13.91 9.45472 13.8766 9.7075L13.791 10.3489C13.7344 10.7795 13.5233 11.1747 13.1968 11.4611C12.8704 11.7475 12.451 11.9053 12.0168 11.9053C11.5825 11.9053 11.1631 11.7475 10.8367 11.4611C10.5103 11.1747 10.2991 10.7795 10.2425 10.3489L10.1569 9.7075ZM14.9578 13.2255C14.7913 13.0317 14.5849 12.8762 14.3528 12.7695C14.1207 12.6629 13.8682 12.6076 13.6127 12.6075H10.4208C10.1654 12.6071 9.9129 12.6618 9.68059 12.7679C9.44827 12.8739 9.24157 13.0289 9.0746 13.2221C8.90762 13.4154 8.78431 13.6424 8.71306 13.8876C8.64182 14.1329 8.62432 14.3906 8.66177 14.6432L9.0851 17.4893C9.13083 17.7945 9.28447 18.0732 9.51813 18.2748C9.7518 18.4764 10.05 18.5875 10.3586 18.5881H13.6749C13.9835 18.5875 14.2817 18.4764 14.5154 18.2748C14.749 18.0732 14.9027 17.7945 14.9484 17.4893L15.3694 14.6432C15.4069 14.3909 15.3895 14.1334 15.3185 13.8883C15.2474 13.6432 15.1244 13.4164 14.9578 13.2231V13.2255Z" fill="#071D49"/>
<path d="M23.7387 10.1151C23.6641 10.0778 22.5816 9.77916 21.7605 9.55521C21.4992 8.58476 21.126 7.65163 20.6034 6.79316L21.6112 5.00155C21.6858 4.85225 21.6858 4.66563 21.5365 4.55365L19.4463 2.46345C19.3344 2.35148 19.1477 2.31415 18.9984 2.3888L17.1695 3.39658C16.311 2.87403 15.3779 2.50078 14.4075 2.27683L13.8476 0.261275C13.8103 0.111975 13.661 0 13.4743 0H10.5257C10.339 0 10.2271 0.111975 10.1524 0.261275L9.59253 2.27683C8.62208 2.50078 7.72628 2.91135 6.83048 3.4339L5.00155 2.42613C4.85225 2.35148 4.66563 2.35148 4.55365 2.50078L2.46345 4.59098C2.35148 4.70295 2.31415 4.88958 2.3888 5.03888L3.39658 6.83048C2.87403 7.68896 2.50078 8.62208 2.2395 9.59253L0.261275 10.1524C0.111975 10.1897 0 10.339 0 10.5257V13.4743C0 13.661 0.111975 13.7729 0.261275 13.8476L2.2395 14.4075C2.50078 15.3779 2.87403 16.311 3.39658 17.1695L2.3888 18.9611C2.31415 19.1104 2.31415 19.297 2.46345 19.409L4.55365 21.4992C4.66563 21.6112 4.85225 21.6485 5.00155 21.5739L6.83048 20.5661C7.68896 21.0886 8.62208 21.4619 9.59253 21.7232L10.1524 23.7387C10.1897 23.888 10.339 24 10.5257 24H13.4743C13.6236 24 13.7729 23.888 13.8476 23.7387L14.4075 21.7232C15.3779 21.4992 16.311 21.0886 17.1695 20.5661L18.9984 21.5739C19.1477 21.6485 19.3344 21.6112 19.4463 21.4992L21.5365 19.409C21.6485 19.297 21.6858 19.1104 21.6112 18.9611L20.6034 17.1695C21.126 16.311 21.4992 15.3779 21.7605 14.4075L23.7387 13.8476C23.888 13.8103 24 13.661 24 13.4743V10.563C24.0373 10.3017 23.9253 10.1524 23.7387 10.1151ZM12.0933 17.916C8.80871 17.916 6.12131 15.2286 6.12131 11.944C6.12131 8.65941 8.80871 5.97201 12.0933 5.97201C15.3779 5.97201 18.0653 8.65941 18.0653 11.944C18.0653 15.2286 15.3779 17.916 12.0933 17.916Z" fill="#071D49"/>
</svg>
