<svg id="SvgjsSvg1001" width="288" height="288" xmlns="http://www.w3.org/2000/svg" version="1.1" xmlns:xlink="http://www.w3.org/1999/xlink" xmlns:svgjs="http://svgjs.com/svgjs"><defs id="SvgjsDefs1002"></defs><g id="SvgjsG1008" transform="matrix(1,0,0,1,0,0)"><svg xmlns="http://www.w3.org/2000/svg" width="288" height="288" version="1.0" viewBox="0 0 145 145"><path d="M665 1313 c-75 -16 -129 -52 -155 -103 -41 -81 -20 -278 44 -419 47-102 49 -115 32 -149 -11 -21 -44 -43 -132 -86 -176 -88 -240 -161 -219 -254
7 -33 34 -62 80 -85 73 -37 395 -83 477 -68 29 5 103 19 164 30 164 29 190 38
234 80 47 44 51 73 20 137 -34 70 -83 110 -204 168 -61 30 -118 61 -125 70
-16 19 -10 47 33 146 93 211 97 403 11 479 -55 48 -174 73 -260 54z" transform="matrix(.1 0 0 -.1 0 145)" fill="#9ea2a2" class="color000 svgShape"></path></svg></g></svg>